<?xml version="1.0" encoding="UTF-8" standalone="no"?>
<!DOCTYPE svg  PUBLIC '-//W3C//DTD SVG 1.1//EN'  'http://www.w3.org/Graphics/SVG/1.1/DTD/svg11.dtd'>
<svg version="1.1" xmlns="http://www.w3.org/2000/svg">
<defs>
<font id="Arimo-BoldItalic" horiz-adv-x="1139">
<font-face slope="-12" x-height="1082" bbox="-977 -425 2597 1979" units-per-em="2048" underline-thickness="215" ascent="1638" cap-height="1409" font-style="italic" font-family="Arimo" panose-1="2 11 7 4 2 2 2 9 2 4" font-weight="700" unicode-range="U+0020-04FE" descent="-410" underline-position="-538"/>
<missing-glyph/>
<glyph glyph-name="space" horiz-adv-x="569" unicode=" "/>
<glyph glyph-name="exclam" horiz-adv-x="682" unicode="!" d="M423 426h-230l160 983h294zM79 0l52 270h288l-52 -270h-288z"/>
<glyph glyph-name="quotedbl" horiz-adv-x="971" unicode='&quot;' d="M864 898h-219l72 511h275zM438 898h-219l72 511h273z"/>
<glyph glyph-name="numbersign" unicode="#" d="M939 862l-69 -332h215v-149h-246l-82 -381h-156l80 381h-307l-80 -381h-153l79 381h-155v149h188l70 332h-207v148h238l84 385h153l-82 -385h307l84 385h156l-84 -385h164v-148h-197zM479 862l-72 -332h309l70 332h-307z"/>
<glyph glyph-name="dollar" unicode="$" d="M1080 474q0 -213 -141 -327.5t-423 -125.5l-33 -173h-112l32 175q-176 0 -289 93.5t-125 249.5l262 42q14 -177 194 -177l73 388q-180 45 -277 140t-97 229q0 123 62.5 213.5t186.5 141.5t279 51l24 126l110 -4l-27 -130q162 0 263.5 -79t114.5 -218l-261 -57 q-14 77 -54.5 117.5t-100.5 40.5l-67 -353q209 -50 307.5 -138.5t98.5 -224.5zM810 413q0 77 -44 117.5t-139 62.5l-73 -362q115 0 185.5 49t70.5 133zM412 1006q0 -49 32.5 -81.5t121.5 -61.5l67 331q-99 0 -160 -53t-61 -135z"/>
<glyph glyph-name="percent" horiz-adv-x="1821" unicode="%" d="M546 1421q150 0 229.5 -79.5t79.5 -228.5q0 -82 -26 -178q-29 -137 -90 -227t-144.5 -137t-187.5 -47q-142 0 -218.5 84t-76.5 233q0 89 24 174q84 406 410 406zM545 1270q-78 0 -123 -60t-71 -184.5t-26 -198.5q0 -142 86 -142q79 0 127.5 64.5t74.5 195.5 q28 109 28 186q0 139 -96 139zM1455 882q150 0 229.5 -79.5t79.5 -228.5q0 -82 -26 -178q-29 -137 -90 -227t-144.5 -137t-187.5 -47q-142 0 -218.5 84t-76.5 233q0 89 24 174q84 406 410 406zM1454 731q-78 0 -123 -60t-71 -184.5t-26 -198.5q0 -142 86 -142 q79 0 127.5 64.5t74.5 195.5q28 109 28 186q0 139 -96 139zM486 0h-197l1086 1409h199z"/>
<glyph glyph-name="ampersand" horiz-adv-x="1479" unicode="&amp;" d="M49 354q0 309 426 457q-15 48 -25 111t-10 115q0 172 114.5 276t313.5 104q159 0 247.5 -67.5t88.5 -189.5q0 -91 -45.5 -161.5t-131 -129t-291.5 -142.5q43 -119 81 -190t91 -142q133 142 234 365l187 -83q-45 -104 -120 -217.5t-158 -198.5q75 -64 184 -64q63 0 111 16 l-39 -203q-66 -22 -139 -22q-174 0 -305 117q-71 -55 -123 -77.5t-121 -35t-155 -12.5q-201 0 -308 96.5t-107 277.5zM493 170q63 0 125 22.5t107 56.5q-124 164 -200 382q-124 -56 -172.5 -122t-48.5 -149q0 -85 52 -137.5t137 -52.5zM667 1041q0 -81 20 -145 q142 54 192 85.5t75.5 70.5t25.5 90t-33.5 78t-91.5 27q-85 0 -136.5 -55t-51.5 -151z"/>
<glyph glyph-name="quotesingle" horiz-adv-x="487" unicode="&apos;" d="M417 898h-219l73 511h272z"/>
<glyph glyph-name="parenleft" horiz-adv-x="682" unicode="(" d="M874 1484q-524 -500 -524 -1204q0 -399 147 -705h-275q-148 316 -148 721q0 363 132 666t387 522h281z"/>
<glyph glyph-name="parenright" horiz-adv-x="682" unicode=")" d="M-180 -425q525 513 525 1234q0 170 -40 351t-109 324h265q161 -320 161 -691q0 -375 -134 -686t-387 -532h-281z"/>
<glyph glyph-name="asterisk" horiz-adv-x="797" unicode="*" d="M574 1135l235 104l68 -197l-250 -61l186 -213l-184 -121l-146 252l-149 -252l-186 123l190 211l-250 61l68 197l239 -104l-18 274h215z"/>
<glyph glyph-name="plus" horiz-adv-x="1196" unicode="+" d="M750 569v-408h-226v408h-399v224h399v408h226v-408h402v-224h-402z"/>
<glyph glyph-name="comma" horiz-adv-x="569" unicode="," d="M165 -317h-185q78 78 129.5 161t65.5 156h-129l59 305h289l-47 -239q-23 -120 -66 -211.5t-116 -171.5z"/>
<glyph glyph-name="hyphen" horiz-adv-x="682" unicode="-" d="M56 409l47 244h520l-47 -244h-520z"/>
<glyph glyph-name="period" horiz-adv-x="569" unicode="." d="M46 0l59 305h289l-59 -305h-289z"/>
<glyph glyph-name="slash" horiz-adv-x="569" unicode="/" d="M-76 -41l587 1525h238l-583 -1525h-242z"/>
<glyph glyph-name="zero" unicode="0" d="M724 1430q395 0 395 -466q0 -115 -38 -299q-144 -685 -603 -685q-200 0 -296.5 117.5t-96.5 356.5q0 139 44.5 344t123.5 346t195 213.5t276 72.5zM497 201q117 0 187.5 107.5t116 346.5t45.5 322q0 233 -152 233q-86 0 -139.5 -47t-91 -151.5t-71.5 -309t-34 -287.5 q0 -214 139 -214z"/>
<glyph glyph-name="one" unicode="1" d="M33 0l43 231h349l179 921l-381 -214l47 242l396 229h270l-230 -1178h323l-44 -231h-952z"/>
<glyph glyph-name="two" unicode="2" d="M-32 0l37 195q49 85 113 156t139.5 135.5t256.5 190.5q148 104 202 158t83.5 110t29.5 118q0 143 -162 143q-88 0 -142 -44t-81 -140l-266 59q53 179 181 264t328 85q210 0 320.5 -87.5t110.5 -259.5q0 -96 -42 -183t-126.5 -168.5t-273.5 -208.5q-132 -90 -210.5 -158 t-122.5 -134h654l-44 -231h-985z"/>
<glyph glyph-name="three" unicode="3" d="M535 829q149 0 222.5 58t73.5 164q0 72 -38.5 113.5t-118.5 41.5q-186 0 -237 -184l-267 52q102 356 515 356q203 0 317 -91t114 -253q0 -156 -97 -251t-264 -110l-1 -4q135 -21 205.5 -99.5t70.5 -203.5q0 -124 -65 -225.5t-183 -157t-271 -55.5q-226 0 -352.5 93 t-142.5 270l282 38q11 -90 63 -132.5t163 -42.5q104 0 162.5 56t58.5 154q0 186 -220 186h-107l44 227h73z"/>
<glyph glyph-name="four" unicode="4" d="M874 286l-54 -286h-268l54 286h-640l41 207l717 916h370l-178 -913h188l-42 -210h-188zM800 1206q-46 -78 -117 -170l-424 -540h389l102 524q18 90 50 186z"/>
<glyph glyph-name="five" unicode="5" d="M316 1409h847l-43 -231h-594l-87 -334q18 16 42.5 32t55.5 29t70 21t87 8q167 0 268.5 -113t101.5 -303q0 -161 -70.5 -283.5t-202.5 -188.5t-305 -66q-199 0 -318.5 88.5t-147.5 260.5l283 45q18 -93 65.5 -130.5t141.5 -37.5q125 0 196.5 76.5t71.5 203.5 q0 105 -49.5 163t-139.5 58q-123 0 -202 -91h-274z"/>
<glyph glyph-name="six" unicode="6" d="M533 -20q-210 0 -324 133t-114 374q0 269 83.5 486.5t233 337t333.5 119.5q180 0 283.5 -83.5t121.5 -240.5l-266 -41q-14 73 -51 108t-103 35q-115 0 -200 -115t-124 -347q53 72 134.5 116.5t184.5 44.5q164 0 258.5 -100t94.5 -274q0 -151 -70 -279t-194.5 -201 t-280.5 -73zM369 429q0 -105 49 -167t140 -62q107 0 170.5 81.5t63.5 217.5q0 97 -47.5 149t-130.5 52q-67 0 -124 -34t-89 -96t-32 -141z"/>
<glyph glyph-name="seven" unicode="7" d="M188 1409h1031l-44 -223l-162 -194q-259 -306 -374 -523t-167 -469h-298q35 182 103.5 335.5t162 293.5t209 273.5t244.5 275.5h-750z"/>
<glyph glyph-name="eight" unicode="8" d="M707 1429q199 0 314 -91.5t115 -246.5q0 -140 -85.5 -234t-230.5 -114l-1 -4q111 -33 170.5 -114t59.5 -193q0 -208 -148.5 -330t-407.5 -122q-222 0 -344 100.5t-122 279.5q0 147 94.5 245t264.5 132v4q-92 41 -139.5 121.5t-47.5 189.5q0 177 137 277t371 100zM648 840 q94 0 148.5 59.5t54.5 164.5q0 168 -172 168q-95 0 -149 -55.5t-54 -156.5q0 -87 45 -133.5t127 -46.5zM561 640q-116 0 -180 -71t-64 -192q0 -95 53.5 -147t149.5 -52q108 0 174 72t66 194q0 95 -53 145.5t-146 50.5z"/>
<glyph glyph-name="nine" unicode="9" d="M817 653q-65 -77 -139 -113.5t-178 -36.5q-161 0 -257 107t-96 283q0 149 71 273.5t196.5 194t277.5 69.5q200 0 319 -128.5t119 -344.5q0 -172 -48.5 -364.5t-135.5 -332t-205 -210t-262 -70.5q-182 0 -293 86t-138 245l274 48q29 -157 176 -157q233 0 319 451z M855 1009q0 87 -50 144t-127 57q-114 0 -180 -84t-66 -226q0 -85 48 -137.5t131 -52.5q114 0 179 80t65 219z"/>
<glyph glyph-name="colon" horiz-adv-x="682" unicode=":" d="M235 752l55 282h288l-55 -282h-288zM89 0l55 281h288l-55 -281h-288z"/>
<glyph glyph-name="semicolon" horiz-adv-x="682" unicode=";" d="M235 752l55 282h288l-55 -282h-288zM207 -317h-184q78 78 129.5 161t65.5 156h-129l55 281h288l-42 -215q-23 -120 -65.5 -211t-117.5 -172z"/>
<glyph glyph-name="less" horiz-adv-x="1196" unicode="&lt;" d="M124 516v322l1027 391v-228l-833 -325l833 -324v-227z"/>
<glyph glyph-name="equal" horiz-adv-x="1196" unicode="=" d="M123 842v223h1027v-223h-1027zM123 291v221h1027v-221h-1027z"/>
<glyph glyph-name="greater" horiz-adv-x="1196" unicode="&gt;" d="M124 125v227l832 324l-832 325v228l1027 -391v-322z"/>
<glyph glyph-name="question" horiz-adv-x="1251" unicode="?" d="M745 1430q214 0 339 -94t125 -261q0 -90 -37.5 -161t-105.5 -131.5t-225 -147.5q-78 -51 -106.5 -78t-45.5 -58t-23 -73h-267q14 77 45 134.5t79.5 104t166.5 119.5q69 43 114.5 76t72.5 63.5t38 61.5t11 70q0 63 -48 104.5t-149 41.5q-227 0 -279 -193l-266 40 q117 382 561 382zM309 0l52 270h289l-52 -270h-289z"/>
<glyph glyph-name="at" horiz-adv-x="1997" unicode="@" d="M1911 755q0 -182 -63.5 -332t-175.5 -234.5t-242 -84.5q-92 0 -141.5 45.5t-49.5 126.5q0 37 6 67h-6q-50 -105 -148.5 -172t-201.5 -67q-157 0 -243.5 101.5t-86.5 283.5q0 163 64.5 306t179 224.5t256.5 81.5q195 0 264 -174h6l39 152h156l-117 -506q-37 -172 -37 -240 q0 -50 23.5 -71t54.5 -21q80 0 153 69.5t115.5 186t42.5 256.5q0 175 -76.5 309.5t-220.5 207.5t-335 73q-240 0 -423 -105t-287.5 -303t-104.5 -444q0 -195 79.5 -342.5t223.5 -223t338 -75.5q294 0 589 155l62 -122q-168 -95 -328.5 -136t-329.5 -41q-236 0 -415.5 95.5 t-280 276t-100.5 413.5q0 283 126.5 512t349.5 355t499 126q243 0 421 -90.5t271.5 -255.5t93.5 -383zM1264 751q0 95 -59.5 155t-153.5 60t-168.5 -62.5t-116 -177t-41.5 -235.5q0 -114 48.5 -180t148.5 -66q66 0 128.5 42t111.5 121.5t75.5 181t26.5 161.5z"/>
<glyph glyph-name="A" horiz-adv-x="1479" unicode="A" d="M1039 0l-55 360h-537l-195 -360h-294l787 1409h348l238 -1409h-292zM876 1192q-21 -64 -98 -212l-212 -398h395l-67 452q-18 135 -18 158z"/>
<glyph glyph-name="B" horiz-adv-x="1479" unicode="B" d="M310 1409h584q251 0 380 -82.5t129 -243.5q0 -137 -82.5 -224.5t-241.5 -120.5q136 -23 212.5 -105.5t76.5 -201.5q0 -211 -156.5 -321t-470.5 -110h-705zM494 841h294q175 0 248.5 46t73.5 151q0 80 -57 116t-191 36h-301zM373 219h328q209 0 290 50.5t81 167.5 q0 90 -68 138t-222 48h-330z"/>
<glyph glyph-name="C" horiz-adv-x="1479" unicode="C" d="M401 573q0 -173 85.5 -267.5t244.5 -94.5q266 0 418 258l227 -117q-210 -372 -665 -372q-191 0 -329.5 72t-210 205.5t-71.5 311.5q0 252 105 450.5t293.5 304.5t428.5 106q230 0 377.5 -98.5t198.5 -293.5l-274 -71q-29 107 -111 169t-200 62q-242 0 -379.5 -168 t-137.5 -457z"/>
<glyph glyph-name="D" horiz-adv-x="1479" unicode="D" d="M734 1409q333 0 510 -155t177 -447q0 -236 -99 -417t-287 -285.5t-421 -104.5h-578l274 1409h424zM375 228h230q160 0 283.5 68.5t190 197.5t66.5 300q0 189 -105.5 288t-303.5 99h-176z"/>
<glyph glyph-name="E" horiz-adv-x="1366" unicode="E" d="M36 0l273 1409h1108l-44 -228h-813l-69 -354h752l-44 -228h-752l-72 -371h854l-45 -228h-1148z"/>
<glyph glyph-name="F" horiz-adv-x="1251" unicode="F" d="M560 1181l-85 -436h668l-44 -228h-668l-101 -517h-294l273 1409h986l-44 -228h-691z"/>
<glyph glyph-name="G" horiz-adv-x="1593" unicode="G" d="M740 -19q-300 0 -470 158.5t-170 443.5q0 250 104.5 444t296 298.5t441.5 104.5q228 0 381.5 -103t206.5 -288l-282 -78q-29 113 -112 175t-210 62q-159 0 -279 -75t-184 -213t-64 -318q0 -178 95.5 -279.5t269.5 -101.5q108 0 210 26t174 70l46 228h-342l39 208h614 l-105 -568q-156 -107 -312 -150.5t-348 -43.5z"/>
<glyph glyph-name="H" horiz-adv-x="1479" unicode="H" d="M956 0l118 604h-626l-118 -604h-294l273 1409h295l-109 -561h626l109 561h284l-274 -1409h-284z"/>
<glyph glyph-name="I" horiz-adv-x="569" unicode="I" d="M36 0l273 1409h295l-274 -1409h-294z"/>
<glyph glyph-name="J" unicode="J" d="M480 -20q-190 0 -303.5 96t-151.5 303l267 58q46 -226 207 -226q54 0 91 24t61 68t42 137l143 738h-281l44 231h575l-193 -986q-45 -231 -165 -337t-336 -106z"/>
<glyph glyph-name="K" horiz-adv-x="1479" unicode="K" d="M995 0l-355 640l-211 -123l-101 -517h-292l273 1409h295l-130 -639l760 639h369l-747 -616l465 -793h-326z"/>
<glyph glyph-name="L" horiz-adv-x="1251" unicode="L" d="M36 0l273 1409h295l-229 -1181h756l-45 -228h-1050z"/>
<glyph glyph-name="M" horiz-adv-x="1706" unicode="M" d="M1206 0l172 884q26 130 74 322l-69 -151q-79 -174 -114 -239l-412 -816h-210l-94 819q-31 291 -40 387q-28 -244 -43 -319l-172 -887h-262l274 1409h395l88 -788l25 -276q36 80 67 145t464 919h393l-274 -1409h-262z"/>
<glyph glyph-name="N" horiz-adv-x="1479" unicode="N" d="M884 0l-374 1131q-23 -162 -38 -239l-174 -892h-262l274 1409h350l377 -1141l12 82q11 83 29 174l174 885h262l-274 -1409h-356z"/>
<glyph glyph-name="O" horiz-adv-x="1593" unicode="O" d="M928 1430q293 0 462 -155.5t169 -423.5q0 -247 -105.5 -450.5t-294.5 -312t-432 -108.5q-193 0 -335.5 72t-217 206.5t-74.5 314.5q0 235 105.5 438.5t292.5 311t430 107.5zM914 1197q-162 0 -276 -75t-176 -226t-62 -315q0 -184 90 -276.5t251 -92.5t275 75t176.5 223 t62.5 317q0 176 -87.5 273t-253.5 97z"/>
<glyph glyph-name="P" horiz-adv-x="1366" unicode="P" d="M850 1409q246 0 382.5 -112t136.5 -310q0 -225 -153.5 -358t-410.5 -133h-377l-98 -496h-294l273 1409h541zM471 723h289q155 0 232.5 58t77.5 190q0 102 -64 155.5t-184 53.5h-262z"/>
<glyph glyph-name="Q" horiz-adv-x="1593" unicode="Q" d="M928 1430q293 0 462 -155.5t169 -423.5q0 -106 -20 -202q-27 -135 -84.5 -246.5t-141.5 -196t-192.5 -139t-238.5 -75.5q19 -98 64.5 -142t134.5 -44q80 0 150 14l-45 -195q-72 -25 -169 -25q-197 0 -303.5 94t-129.5 297q-118 19 -208.5 69.5t-152 126t-92.5 173.5 t-31 213q0 235 105.5 438.5t292.5 311t430 107.5zM914 1197q-162 0 -276 -75t-176 -226t-62 -315q0 -184 90 -276.5t251 -92.5t275 75t176.5 223t62.5 317q0 176 -87.5 273t-253.5 97z"/>
<glyph glyph-name="R" horiz-adv-x="1479" unicode="R" d="M1010 0l-230 534h-346l-103 -534h-295l274 1409h651q159 0 272.5 -49t172.5 -140t59 -214q0 -165 -108.5 -280t-294.5 -143l274 -583h-326zM872 764q145 0 219.5 58.5t74.5 166.5q0 93 -63.5 142t-178.5 49h-364l-81 -416h393z"/>
<glyph glyph-name="S" horiz-adv-x="1366" unicode="S" d="M600 -20q-267 0 -407 94.5t-168 290.5l289 49q21 -111 93.5 -162t212.5 -51q345 0 345 199q0 80 -60 126.5t-238 91.5q-184 49 -272.5 102t-135 129.5t-46.5 187.5q0 177 157 285t416 108q238 0 382 -86.5t177 -252.5l-288 -67q-22 90 -95.5 143.5t-191.5 53.5 q-124 0 -195 -46.5t-71 -127.5q0 -47 26 -80t76 -57.5t198 -64.5q159 -44 235 -82.5t121.5 -86.5t69.5 -110t24 -143q0 -216 -166 -329.5t-488 -113.5z"/>
<glyph glyph-name="T" horiz-adv-x="1251" unicode="T" d="M895 1181l-230 -1181h-295l230 1181h-455l44 228h1206l-44 -228h-456z"/>
<glyph glyph-name="U" horiz-adv-x="1479" unicode="U" d="M688 211q165 0 250.5 76t119.5 254l168 868h295l-171 -879q-55 -281 -220 -415.5t-458 -134.5q-264 0 -408.5 117.5t-144.5 333.5q0 44 7.5 105.5t15.5 98.5l148 774h295l-153 -810q-18 -87 -18 -172q0 -103 73 -159.5t201 -56.5z"/>
<glyph glyph-name="V" horiz-adv-x="1366" unicode="V" d="M737 0h-339l-227 1409h305l114 -905q16 -147 22 -266q47 106 75.5 167t513.5 1004h308z"/>
<glyph glyph-name="W" horiz-adv-x="1933" unicode="W" d="M1441 0h-350l-27 812l-4 220l-1 84q-60 -160 -91.5 -239t-373.5 -877h-355l-89 1409h280l36 -815q7 -168 7 -346l57 144l76 185l355 832h316l42 -1161q27 73 78.5 204.5t390.5 956.5h291z"/>
<glyph glyph-name="X" horiz-adv-x="1366" unicode="X" d="M220 1409h309l224 -471l402 471h313l-600 -677l367 -732h-307l-253 532l-455 -532h-314l652 736z"/>
<glyph glyph-name="Y" horiz-adv-x="1366" unicode="Y" d="M724 0h-294l112 578l-370 831h292l259 -605l474 605h323l-684 -831z"/>
<glyph glyph-name="Z" horiz-adv-x="1251" unicode="Z" d="M1082 0h-1130l40 209l927 969h-663l45 231h1014l-40 -205l-930 -973h782z"/>
<glyph glyph-name="bracketleft" horiz-adv-x="682" unicode="[" d="M-54 -425l370 1909h542l-37 -190h-276l-297 -1528h276l-37 -191h-541z"/>
<glyph glyph-name="backslash" horiz-adv-x="569" unicode="\" d="M289 -41l-178 1526h238l183 -1526h-243z"/>
<glyph glyph-name="bracketright" horiz-adv-x="682" unicode="]" d="M-174 -425l37 191h277l297 1528h-278l37 190h542l-371 -1909h-541z"/>
<glyph glyph-name="asciicircum" horiz-adv-x="1196" unicode="^" d="M962 514l-326 752l-324 -752h-227l391 895h322l393 -895h-229z"/>
<glyph glyph-name="underscore" unicode="_" d="M-120 -250v78h1177v-78h-1177z"/>
<glyph glyph-name="grave" horiz-adv-x="682" unicode="`" d="M596 1183l-307 276l8 43h258l195 -288l-6 -31h-148z"/>
<glyph glyph-name="a" unicode="a" d="M892 -10q-100 0 -154 42t-54 111q0 37 5 64h-6q-84 -130 -166 -178.5t-200 -48.5q-140 0 -223.5 83.5t-83.5 214.5q0 185 127.5 279.5t413.5 99.5l191 3q21 95 21 131q0 128 -127 128q-94 0 -140 -36.5t-63 -105.5l-263 31q34 144 153.5 219t317.5 75q207 0 303.5 -73 t96.5 -222q0 -37 -24 -157l-71 -353q-8 -45 -8 -72q0 -24 10 -37t23 -19t26 -7.5t20 -1.5q30 0 62 7l-14 -155q-42 -16 -85 -19t-88 -3zM711 503h-162q-117 -2 -184.5 -48t-67.5 -130q0 -70 39.5 -109.5t106.5 -39.5q83 0 151 64.5t95 170.5z"/>
<glyph glyph-name="b" horiz-adv-x="1251" unicode="b" d="M855 1102q159 0 248 -94.5t89 -259.5v-14q0 -188 -62 -379.5t-174.5 -283t-286.5 -91.5q-125 0 -203 52t-110 146h-2l-28 -111l-20 -67h-271q5 15 19.5 82t29.5 141l246 1261h281l-84 -427q-28 -144 -32 -144h4q56 84 145.5 136.5t210.5 52.5zM735 907q-126 0 -201.5 -88 t-109.5 -265q-17 -93 -17 -153q0 -107 53 -167.5t148 -60.5q101 0 158 62.5t95 212t38 246.5q0 105 -35.5 159t-128.5 54z"/>
<glyph glyph-name="c" unicode="c" d="M536 173q83 0 137 52.5t86 155.5l271 -50q-107 -351 -510 -351q-220 0 -338.5 112.5t-118.5 312.5q0 195 79 366t210.5 251t327.5 80q189 0 302 -95.5t127 -265.5l-284 -23q-11 191 -167 191q-107 0 -167.5 -73.5t-109.5 -260.5q-23 -115 -23 -168q0 -234 178 -234z"/>
<glyph glyph-name="d" horiz-adv-x="1251" unicode="d" d="M749 160q-71 -93 -153.5 -137t-203.5 -44q-154 0 -244 102t-90 273q0 191 64 374t179.5 278.5t278.5 95.5q256 0 314 -198h5q2 20 8 60t18 102l84 418h277l-238 -1253q-20 -112 -29 -231h-281q0 63 15 160h-4zM515 172q81 0 139 34.5t99 106t65 179.5t24 189 q0 120 -47 174.5t-141 54.5q-102 0 -166.5 -69t-98.5 -202t-34 -246q0 -221 160 -221z"/>
<glyph glyph-name="e" unicode="e" d="M358 476q-7 -38 -7 -89q0 -106 46.5 -162.5t137.5 -56.5q147 0 213 169l245 -74q-75 -159 -186 -221t-291 -62q-213 0 -333 115.5t-120 322.5t72 362.5t204.5 238.5t306.5 83q209 0 322.5 -107.5t113.5 -303.5q0 -99 -24 -215h-700zM822 663l3 56q0 107 -49.5 156 t-129.5 49q-96 0 -161.5 -66.5t-93.5 -194.5h431z"/>
<glyph glyph-name="f" horiz-adv-x="682" unicode="f" d="M528 892l-174 -892h-280l174 892h-158l37 190h158l22 113q30 155 124.5 222t266.5 67q73 0 155 -17l-36 -181q-11 2 -43 6t-53 4q-67 0 -97 -32t-43 -97l-16 -85h213l-37 -190h-213z"/>
<glyph glyph-name="g" horiz-adv-x="1251" unicode="g" d="M431 -425q-199 0 -306 69t-132 214l283 30q27 -127 188 -127q110 0 171 59t95 207q20 96 31 174h-2q-63 -89 -110.5 -128t-107 -60t-136.5 -21q-155 0 -247.5 100t-92.5 264q0 201 63.5 385.5t175 272t282.5 87.5q118 0 203 -56t112 -152h2q6 29 24.5 105t23.5 84h265 l-19 -83l-30 -146l-165 -843q-47 -233 -182 -334t-389 -101zM846 686q0 104 -52 163.5t-146 59.5q-76 0 -125.5 -32t-84 -103.5t-57 -188t-22.5 -189.5q0 -199 173 -199q89 0 162 67t112.5 182.5t39.5 239.5z"/>
<glyph glyph-name="h" horiz-adv-x="1251" unicode="h" d="M601 1484l-79 -405l-39 -182h3q75 104 165.5 154t207.5 50q152 0 229 -73t77 -211q0 -25 -7 -79.5t-14 -84.5l-127 -653h-279l118 595q26 124 26 165q0 129 -152 129q-101 0 -187 -82t-108 -201l-118 -606h-282l286 1484h280z"/>
<glyph glyph-name="i" horiz-adv-x="569" unicode="i" d="M282 1277l41 207h281l-41 -207h-281zM35 0l210 1082h281l-211 -1082h-280z"/>
<glyph glyph-name="j" horiz-adv-x="569" unicode="j" d="M283 1277l40 207h281l-40 -207h-281zM-54 -425q-95 0 -166 19l36 188l58 -4q67 0 98.5 34.5t49.5 127.5l223 1142h281l-236 -1210q-29 -144 -116.5 -220.5t-227.5 -76.5z"/>
<glyph glyph-name="k" unicode="k" d="M728 0l-188 497l-140 -75l-85 -422h-280l288 1484h281l-167 -850l465 448h322l-473 -422l275 -660h-298z"/>
<glyph glyph-name="l" horiz-adv-x="569" unicode="l" d="M35 0l288 1484h281l-289 -1484h-280z"/>
<glyph glyph-name="m" horiz-adv-x="1821" unicode="m" d="M1322 892q-91 0 -158 -77t-93 -208l-119 -607h-279l123 635q17 91 17 136q0 121 -126 121q-88 0 -156.5 -75.5t-95.5 -212.5l-118 -604h-282l166 851q20 95 39 231h272q0 -11 -10.5 -77.5t-17.5 -107.5h3q77 116 151.5 160t176.5 44q124 0 196 -59.5t86 -172.5 q80 125 162.5 178.5t191.5 53.5q138 0 211.5 -73t73.5 -211q0 -64 -21 -164l-128 -653h-279l122 627q18 90 18 139v5q-3 121 -126 121z"/>
<glyph glyph-name="n" horiz-adv-x="1251" unicode="n" d="M738 0l118 595q26 124 26 165q0 129 -152 129q-101 0 -187 -82t-108 -201l-118 -606h-282l166 851q16 79 38 231h268q0 -9 -9.5 -84t-14.5 -101h3q75 104 165.5 154t207.5 50q152 0 229 -73t77 -211q0 -25 -7 -79.5t-14 -84.5l-127 -653h-279z"/>
<glyph glyph-name="o" horiz-adv-x="1251" unicode="o" d="M1185 683q0 -207 -81.5 -368t-231 -248t-337.5 -87q-218 0 -345 117.5t-127 321.5q0 201 79.5 356t226.5 240.5t335 85.5q235 0 358 -109.5t123 -308.5zM891 662q0 247 -208 247q-114 0 -181.5 -60t-105.5 -182.5t-38 -235.5q0 -259 208 -259q112 0 177.5 56.5t103 171.5 t44.5 262z"/>
<glyph glyph-name="p" horiz-adv-x="1251" unicode="p" d="M728 907q-126 0 -201.5 -88t-109.5 -265q-17 -93 -17 -153q0 -107 53 -167.5t148 -60.5q102 0 161 64t93 206t34 251q0 106 -38.5 159.5t-122.5 53.5zM493 913q72 100 154.5 144.5t200.5 44.5q159 0 248 -94.5t89 -259.5q0 -202 -62 -393.5t-174.5 -283t-286.5 -91.5 q-125 0 -203 52t-110 146h-2q-7 -62 -32 -188l-80 -415h-280l243 1258l20 110l19 139h275q0 -14 -7.5 -77.5t-15.5 -91.5h4z"/>
<glyph glyph-name="q" horiz-adv-x="1251" unicode="q" d="M898 903q25 123 47 179h270q-8 -27 -30 -133t-267 -1374h-281l85 432l36 156h-4q-75 -98 -159.5 -141t-200.5 -43q-152 0 -243.5 98t-91.5 271q0 196 64 379t180 279t277 96q130 0 201 -45.5t112 -153.5h5zM518 172q127 0 202 88.5t107 266.5q16 88 16 153 q0 230 -174 230q-110 0 -176 -64.5t-101.5 -200.5t-35.5 -259q0 -104 40.5 -159t121.5 -55z"/>
<glyph glyph-name="r" horiz-adv-x="797" unicode="r" d="M844 853q-69 15 -114 15q-123 0 -200.5 -87t-112.5 -267l-101 -514h-281l161 830q24 120 42 252h268l-22 -172l-8 -49h4q73 134 144 187.5t163 53.5q47 0 103 -14z"/>
<glyph glyph-name="s" unicode="s" d="M1000 334q0 -174 -128.5 -264t-374.5 -90q-201 0 -317 71t-157 220l251 36q21 -75 77 -108t166 -33q109 0 165.5 35t56.5 101q0 52 -41.5 79.5t-182.5 57.5q-199 45 -280.5 124.5t-81.5 205.5q0 160 125.5 245t358.5 85q206 0 307 -70.5t125 -217.5l-251 -29 q-17 69 -66 100t-134 31q-205 0 -205 -120q0 -33 20 -55t57 -38t178 -49q182 -41 257 -117t75 -200z"/>
<glyph glyph-name="t" horiz-adv-x="682" unicode="t" d="M376 -16q-124 0 -192 58.5t-68 166.5q0 71 16 157l102 526h-148l37 190h162l137 254h176l-48 -254h202l-35 -190h-205l-104 -535q-11 -56 -11 -89q0 -46 23.5 -68.5t63.5 -22.5q32 0 108 13l-32 -182q-81 -24 -184 -24z"/>
<glyph glyph-name="u" horiz-adv-x="1251" unicode="u" d="M512 1082l-118 -595q-26 -123 -26 -165q0 -129 152 -129q101 0 186.5 81t108.5 202l118 606h282l-166 -851q-16 -79 -38 -231h-268q0 9 9.5 84t14.5 101h-3q-76 -107 -166.5 -155.5t-206.5 -48.5q-152 0 -229 73t-77 211q0 25 7 80.5t14 83.5l127 653h279z"/>
<glyph glyph-name="v" unicode="v" d="M622 0h-336l-176 1082h289l71 -605q4 -30 13 -138t9 -131q61 143 122 266l316 608h302z"/>
<glyph glyph-name="w" horiz-adv-x="1593" unicode="w" d="M1207 0h-297l-43 660l-5 230q-53 -142 -95 -232l-302 -658h-297l-69 1082h258l14 -696v-131l27 68l52 123l294 636h301l42 -636l5 -191l53 132l291 695h266z"/>
<glyph glyph-name="x" unicode="x" d="M724 0l-186 383l-327 -383h-301l508 562l-279 520h292l173 -347l296 347h308l-483 -525l294 -557h-295z"/>
<glyph glyph-name="y" unicode="y" d="M88 -425q-97 0 -173 18l38 196q40 -9 87 -9q78 0 137.5 46t118.5 150l28 48l-212 1058h291l71 -497q6 -31 21.5 -178t13.5 -156l17 37l139 293l259 501h300l-654 -1139q-107 -167 -174.5 -235t-141 -100.5t-166.5 -32.5z"/>
<glyph glyph-name="z" horiz-adv-x="1024" unicode="z" d="M-10 0l38 199l613 680h-440l40 203h769l-39 -201l-610 -676h527l-40 -205h-858z"/>
<glyph glyph-name="braceleft" horiz-adv-x="797" unicode="{" d="M388 -425q-119 0 -187.5 60.5t-68.5 162.5q0 44 11 101l61 308q7 35 7 68q0 154 -192 158l38 192q231 4 274 227l67 338q29 146 112.5 220t237.5 74h194l-37 -190h-76q-82 0 -125 -46.5t-65 -158.5l-60 -310q-19 -94 -89 -160.5t-167 -86.5l-1 -4q74 -19 118.5 -69.5 t44.5 -125.5q0 -29 -5 -52l-65 -334q-9 -42 -9 -76q0 -53 33 -79t89 -26h80l-37 -191h-183z"/>
<glyph glyph-name="bar" horiz-adv-x="573" unicode="|" d="M191 -425v1909h262v-1909h-262z"/>
<glyph glyph-name="braceright" horiz-adv-x="797" unicode="}" d="M399 1485q119 0 187.5 -60.5t68.5 -162.5q0 -46 -11 -101l-61 -308q-7 -33 -7 -68q0 -77 46.5 -116.5t145.5 -41.5l-38 -192q-118 -2 -185 -58.5t-89 -169.5l-67 -337q-31 -152 -115.5 -223.5t-234.5 -71.5h-194l37 190h76q82 0 125 46.5t65 158.5l60 310q19 95 89 161.5 t167 86.5l1 3q-75 19 -119 70.5t-44 125.5q0 29 5 52l65 333q9 45 9 77q0 53 -33 79t-89 26h-80l37 191h183z"/>
<glyph glyph-name="asciitilde" horiz-adv-x="1196" unicode="~" d="M889 516q-75 0 -147.5 21t-147.5 47q-135 47 -221 47q-71 0 -130.5 -21.5t-124.5 -66.5v213q113 84 271 84q80 0 156.5 -22t150.5 -48q134 -47 212 -47q134 0 248 92v-219q-64 -44 -122.5 -62t-144.5 -18z"/>
<glyph glyph-name="uni0400" horiz-adv-x="1366" unicode="Ѐ" d="M36 0l273 1409h1108l-44 -228h-813l-69 -354h752l-44 -228h-752l-72 -371h854l-45 -228h-1148zM900 1530l-304 235l9 43h238l203 -247l-7 -31h-139z"/>
<glyph glyph-name="uni0401" horiz-adv-x="1366" unicode="Ё" d="M36 0l273 1409h1108l-44 -228h-813l-69 -354h752l-44 -228h-752l-72 -371h854l-45 -228h-1148zM995 1530l43 219h217l-43 -219h-217zM562 1530l42 219h214l-43 -219h-213z"/>
<glyph glyph-name="uni0402" horiz-adv-x="1814" unicode="Ђ" d="M895 1181l-65 -336q146 56 261 79.5t219 23.5q403 0 403 -305q0 -52 -20.5 -169.5t-59.5 -219.5t-99 -161t-147 -86t-213 -27q-133 0 -225.5 41.5t-153.5 136.5l225 163q40 -60 86.5 -84.5t102.5 -24.5q74 0 118 47t70.5 161t26.5 163q0 144 -239 144q-181 0 -391 -66 l-129 -661h-295l230 1181h-455l44 228h1206l-44 -228h-456z"/>
<glyph glyph-name="uni0403" horiz-adv-x="1257" unicode="Ѓ" d="M1333 1409l-44 -228h-729l-229 -1180h-295l273 1408h1024zM646 1530l7 31l270 247h267l-9 -43l-386 -235h-149z"/>
<glyph glyph-name="uni0404" horiz-adv-x="1472" unicode="Є" d="M711 -20q-191 0 -329.5 72t-210 205.5t-71.5 311.5q0 252 105 450.5t293.5 304.5t428.5 106q230 0 377.5 -98.5t198.5 -293.5l-274 -71q-29 107 -111 169t-200 62q-181 0 -306.5 -97t-176.5 -272h542l-45 -228h-531v-28q0 -173 85.5 -267.5t244.5 -94.5q266 0 418 258 l227 -117q-210 -372 -665 -372z"/>
<glyph glyph-name="uni0405" horiz-adv-x="1366" unicode="Ѕ" d="M600 -20q-267 0 -407 94.5t-168 290.5l289 49q21 -111 93.5 -162t212.5 -51q345 0 345 199q0 80 -60 126.5t-238 91.5q-184 49 -272.5 102t-135 129.5t-46.5 187.5q0 177 157 285t416 108q238 0 382 -86.5t177 -252.5l-288 -67q-22 90 -95.5 143.5t-191.5 53.5 q-124 0 -195 -46.5t-71 -127.5q0 -47 26 -80t76 -57.5t198 -64.5q159 -44 235 -82.5t121.5 -86.5t69.5 -110t24 -143q0 -216 -166 -329.5t-488 -113.5z"/>
<glyph glyph-name="uni0406" horiz-adv-x="569" unicode="І" d="M36 0l273 1409h295l-274 -1409h-294z"/>
<glyph glyph-name="uni0407" horiz-adv-x="569" unicode="Ї" d="M36 0l273 1409h295l-274 -1409h-294zM584 1530l43 219h217l-43 -219h-217zM151 1530l42 219h214l-43 -219h-213z"/>
<glyph glyph-name="uni0408" unicode="Ј" d="M480 -20q-190 0 -303.5 96t-151.5 303l267 58q46 -226 207 -226q54 0 91 24t61 68t42 137l143 738h-281l44 231h575l-193 -986q-45 -231 -165 -337t-336 -106z"/>
<glyph glyph-name="uni0409" horiz-adv-x="2241" unicode="Љ" d="M1661 848q232 0 366.5 -103.5t134.5 -282.5q0 -221 -162 -341.5t-452 -120.5h-720l225 1165h-350l-116 -348q-113 -335 -175 -474.5t-119.5 -215t-128 -109.5t-172.5 -34q-57 0 -115 17l48 247q28 -7 55 -7q50 0 91 53.5t98.5 194t161.5 447.5l159 473h906l-109 -561h374 zM1167 230h391q145 0 222.5 55t77.5 156q0 89 -62 134.5t-199 45.5h-354z"/>
<glyph glyph-name="uni040A" horiz-adv-x="2134" unicode="Њ" d="M1553 848q232 0 366.5 -103.5t134.5 -282.5q0 -221 -162 -341.5t-452 -120.5h-641l117 604h-467l-118 -604h-294l273 1409h295l-109 -561h467l109 561h295l-109 -561h295zM1138 230h312q145 0 222.5 55t77.5 156q0 89 -62 134.5t-199 45.5h-275z"/>
<glyph glyph-name="uni040B" horiz-adv-x="1748" unicode="Ћ" d="M833 862q148 52 230 67.5t164 15.5q195 0 297 -93.5t102 -280.5q0 -72 -16 -154l-81 -417h-284l80 414q14 81 14 130q0 182 -218 182q-151 0 -325 -53l-131 -673h-295l230 1181h-455l44 228h1206l-44 -228h-456z"/>
<glyph glyph-name="uni040C" horiz-adv-x="1259" unicode="Ќ" d="M309 1409h295l-116 -599q56 0 127 64t186 206l267 329h308l-335 -425q-34 -42 -66.5 -78t-61 -63.5t-51.5 -46.5t-37 -28l318 -768h-313l-240 640q-23 -13 -68.5 -24t-74.5 -11l-118 -605h-293zM705 1530l7 31l270 247h267l-9 -43l-386 -235h-149z"/>
<glyph glyph-name="uni040D" horiz-adv-x="1473" unicode="Ѝ" d="M36 0l273 1409h262l-159 -819q-23 -117 -61 -275l825 1094h332l-274 -1409h-262l162 831l36 166l21 88l-820 -1085h-335zM890 1530l-304 235l9 43h238l203 -247l-7 -31h-139z"/>
<glyph glyph-name="uni040E" horiz-adv-x="1387" unicode="Ў" d="M293 -20q-131 0 -238 76l118 230q79 -42 142 -42q50 0 92 20t82.5 62.5t110.5 150.5l-375 932h297l256 -680l430 680h309l-737 -1091q-133 -198 -238 -268t-249 -70zM888 1514q-142 0 -234.5 64t-146.5 195l193 74q44 -103 97.5 -145.5t124.5 -42.5q183 0 274 204 l112 -49q-60 -149 -166.5 -224.5t-253.5 -75.5z"/>
<glyph glyph-name="uni040F" horiz-adv-x="1473" unicode="Џ" d="M430 -408l79 408h-474l274 1409h295l-226 -1165h617l226 1165h285l-274 -1409h-473l-79 -408h-250z"/>
<glyph glyph-name="uni0410" horiz-adv-x="1479" unicode="А" d="M1039 0l-55 360h-537l-195 -360h-294l787 1409h348l238 -1409h-292zM876 1192q-21 -64 -98 -212l-212 -398h395l-67 452q-18 135 -18 158z"/>
<glyph glyph-name="uni0411" horiz-adv-x="1450" unicode="Б" d="M869 848q232 0 366.5 -103.5t134.5 -282.5q0 -221 -162 -341.5t-452 -120.5h-720l273 1409h1059l-44 -227h-764l-65 -334h374zM375 230h391q145 0 222.5 55t77.5 156q0 89 -62 134.5t-199 45.5h-354z"/>
<glyph glyph-name="uni0412" horiz-adv-x="1479" unicode="В" d="M310 1409h584q251 0 380 -82.5t129 -243.5q0 -137 -82.5 -224.5t-241.5 -120.5q136 -23 212.5 -105.5t76.5 -201.5q0 -211 -156.5 -321t-470.5 -110h-705zM494 841h294q175 0 248.5 46t73.5 151q0 80 -57 116t-191 36h-301zM373 219h328q209 0 290 50.5t81 167.5 q0 90 -68 138t-222 48h-330z"/>
<glyph glyph-name="uni0413" horiz-adv-x="1257" unicode="Г" d="M1333 1409l-44 -228h-729l-229 -1180h-295l273 1408h1024z"/>
<glyph glyph-name="uni0414" horiz-adv-x="1479" unicode="Д" d="M1200 244h185l-127 -652h-250l79 408h-904l-79 -408h-249l127 652h155q89 121 183.5 310.5t168.5 409.5l148 445h789zM915 244l179 921h-262l-77 -234q-155 -470 -309 -687h469z"/>
<glyph glyph-name="uni0415" horiz-adv-x="1366" unicode="Е" d="M36 0l273 1409h1108l-44 -228h-813l-69 -354h752l-44 -228h-752l-72 -371h854l-45 -228h-1148z"/>
<glyph glyph-name="uni0416" horiz-adv-x="1899" unicode="Ж" d="M695 0l118 605q-73 0 -114 29l-470 -634h-315l600 773q-29 32 -111 229l-172 407h290l125 -324q60 -157 103 -216t103 -59l116 599h274l-116 -599q48 0 105.5 51t193.5 224l255 324h310l-324 -407q-47 -60 -112.5 -131t-96.5 -91l303 -780h-306l-224 640 q-22 -12 -67.5 -23.5t-76.5 -11.5l-118 -605h-273z"/>
<glyph glyph-name="uni0417" horiz-adv-x="1316" unicode="З" d="M589 -20q-223 0 -361 93t-201 295l269 91q41 -131 119.5 -191t198.5 -60q138 0 209 55.5t71 160.5q0 82 -72.5 130t-223.5 48h-59l45 227h59q337 0 337 221q0 73 -52 117.5t-147 44.5q-229 0 -328 -230l-256 75q77 193 224 282.5t384 89.5q215 0 341 -91.5t126 -246.5 q0 -152 -89 -246t-260 -126q116 -17 188 -99t72 -201q0 -211 -155.5 -325t-438.5 -114z"/>
<glyph glyph-name="uni0418" horiz-adv-x="1473" unicode="И" d="M36 0l273 1409h262l-159 -819q-23 -117 -61 -275l825 1094h332l-274 -1409h-262l162 831l36 166l21 88l-820 -1085h-335z"/>
<glyph glyph-name="uni0419" horiz-adv-x="1473" unicode="Й" d="M36 0l273 1409h262l-159 -819q-23 -117 -61 -275l825 1094h332l-274 -1409h-262l162 831l36 166l21 88l-820 -1085h-335zM931 1514q-142 0 -234.5 64t-146.5 195l193 74q44 -103 97.5 -145.5t124.5 -42.5q183 0 274 204l112 -49q-60 -149 -166.5 -224.5t-253.5 -75.5z "/>
<glyph glyph-name="uni041A" horiz-adv-x="1259" unicode="К" d="M309 1409h295l-116 -599q56 0 127 64t186 206l267 329h308l-335 -425q-34 -42 -66.5 -78t-61 -63.5t-51.5 -46.5t-37 -28l318 -768h-313l-240 640q-23 -13 -68.5 -24t-74.5 -11l-118 -605h-293z"/>
<glyph glyph-name="uni041B" horiz-adv-x="1407" unicode="Л" d="M1110 1165h-407l-116 -348q-113 -335 -175 -474.5t-119.5 -215t-128 -109.5t-172.5 -34q-57 0 -115 17l48 247q28 -7 55 -7q50 0 91 53.5t98.5 194t161.5 447.5l159 473h952l-274 -1409h-284z"/>
<glyph glyph-name="uni041C" horiz-adv-x="1706" unicode="М" d="M1206 0l172 884q26 130 74 322l-69 -151q-79 -174 -114 -239l-412 -816h-210l-94 819q-31 291 -40 387q-28 -244 -43 -319l-172 -887h-262l274 1409h395l88 -788l25 -276q36 80 67 145t464 919h393l-274 -1409h-262z"/>
<glyph glyph-name="uni041D" horiz-adv-x="1479" unicode="Н" d="M956 0l118 604h-626l-118 -604h-294l273 1409h295l-109 -561h626l109 561h284l-274 -1409h-284z"/>
<glyph glyph-name="uni041E" horiz-adv-x="1593" unicode="О" d="M928 1430q293 0 462 -155.5t169 -423.5q0 -247 -105.5 -450.5t-294.5 -312t-432 -108.5q-193 0 -335.5 72t-217 206.5t-74.5 314.5q0 235 105.5 438.5t292.5 311t430 107.5zM914 1197q-162 0 -276 -75t-176 -226t-62 -315q0 -184 90 -276.5t251 -92.5t275 75t176.5 223 t62.5 317q0 176 -87.5 273t-253.5 97z"/>
<glyph glyph-name="uni041F" horiz-adv-x="1473" unicode="П" d="M949 0l227 1165h-620l-227 -1165h-293l273 1409h1199l-274 -1409h-285z"/>
<glyph glyph-name="uni0420" horiz-adv-x="1366" unicode="Р" d="M850 1409q246 0 382.5 -112t136.5 -310q0 -225 -153.5 -358t-410.5 -133h-377l-98 -496h-294l273 1409h541zM471 723h289q155 0 232.5 58t77.5 190q0 102 -64 155.5t-184 53.5h-262z"/>
<glyph glyph-name="uni0421" horiz-adv-x="1479" unicode="С" d="M401 573q0 -173 85.5 -267.5t244.5 -94.5q266 0 418 258l227 -117q-210 -372 -665 -372q-191 0 -329.5 72t-210 205.5t-71.5 311.5q0 252 105 450.5t293.5 304.5t428.5 106q230 0 377.5 -98.5t198.5 -293.5l-274 -71q-29 107 -111 169t-200 62q-242 0 -379.5 -168 t-137.5 -457z"/>
<glyph glyph-name="uni0422" horiz-adv-x="1251" unicode="Т" d="M895 1181l-230 -1181h-295l230 1181h-455l44 228h1206l-44 -228h-456z"/>
<glyph glyph-name="uni0423" horiz-adv-x="1387" unicode="У" d="M293 -20q-131 0 -238 76l118 230q79 -42 142 -42q50 0 92 20t82.5 62.5t110.5 150.5l-375 932h297l256 -680l430 680h309l-737 -1091q-133 -198 -238 -268t-249 -70z"/>
<glyph glyph-name="uni0424" horiz-adv-x="1599" unicode="Ф" d="M1031 1052l-127 -655h32q170 0 267.5 106t97.5 286q0 122 -61.5 192.5t-168.5 70.5h-40zM555 -11l38 199h-54q-207 0 -334 128t-127 335q0 292 176 451t501 159h47l30 158h270l-30 -158h45q145 0 252.5 -58t165 -164t57.5 -246q0 -286 -178 -445.5t-492 -159.5h-59 l-38 -199h-270zM761 1052h-24q-175 0 -271.5 -101t-96.5 -289q0 -122 59 -193.5t162 -71.5h44z"/>
<glyph glyph-name="uni0425" horiz-adv-x="1366" unicode="Х" d="M220 1409h309l224 -471l402 471h313l-600 -677l367 -732h-307l-253 532l-455 -532h-314l652 736z"/>
<glyph glyph-name="uni0426" horiz-adv-x="1493" unicode="Ц" d="M1051 -408l79 408h-1094l274 1409h295l-226 -1165h569l226 1165h285l-226 -1165h195l-127 -652h-250z"/>
<glyph glyph-name="uni0427" horiz-adv-x="1450" unicode="Ч" d="M916 0l107 547q-148 -49 -241.5 -66t-182.5 -17q-207 0 -314.5 97.5t-107.5 284.5q0 64 16 146l81 417h284l-80 -414q-13 -75 -13 -117q0 -98 59 -146.5t184 -48.5q163 0 352 53l130 673h295l-274 -1409h-295z"/>
<glyph glyph-name="uni0428" horiz-adv-x="2005" unicode="Ш" d="M36 0l273 1409h285l-226 -1165h448l226 1165h275l-226 -1165h448l226 1165h275l-274 -1409h-1730z"/>
<glyph glyph-name="uni0429" horiz-adv-x="2025" unicode="Щ" d="M1584 -408l79 408h-1627l273 1409h285l-226 -1165h424l226 1165h275l-226 -1165h424l226 1165h275l-227 -1165h196l-127 -652h-250z"/>
<glyph glyph-name="uni042A" horiz-adv-x="1749" unicode="Ъ" d="M1168 848q232 0 366.5 -103.5t134.5 -282.5q0 -221 -162 -341.5t-452 -120.5h-680l229 1181h-455l44 228h750l-109 -561h334zM714 230h351q145 0 222.5 55t77.5 156q0 89 -62 134.5t-199 45.5h-314z"/>
<glyph glyph-name="uni042B" horiz-adv-x="2048" unicode="Ы" d="M1514 0l274 1409h295l-274 -1409h-295zM869 848q232 0 366.5 -103.5t134.5 -282.5q0 -221 -162 -341.5t-452 -120.5h-720l273 1409h295l-109 -561h374zM375 230h391q145 0 222.5 55t77.5 156q0 89 -62 134.5t-199 45.5h-354z"/>
<glyph glyph-name="uni042C" horiz-adv-x="1450" unicode="Ь" d="M869 848q232 0 366.5 -103.5t134.5 -282.5q0 -221 -162 -341.5t-452 -120.5h-720l273 1409h295l-109 -561h374zM375 230h391q145 0 222.5 55t77.5 156q0 89 -62 134.5t-199 45.5h-354z"/>
<glyph glyph-name="uni042D" horiz-adv-x="1472" unicode="Э" d="M846 1430q283 0 438 -149t155 -414q0 -259 -100.5 -462t-286.5 -314t-429 -111q-224 0 -369 98.5t-212 305.5l260 95q52 -142 134.5 -204.5t205.5 -62.5q370 0 465 389h-559l45 228h546q5 30 5 62q0 147 -86.5 227t-248.5 80q-137 0 -239.5 -62.5t-147.5 -168.5l-241 71 q174 392 665 392z"/>
<glyph glyph-name="uni042E" horiz-adv-x="2134" unicode="Ю" d="M1444 1430q274 0 431.5 -154.5t157.5 -424.5q0 -176 -54.5 -340.5t-157.5 -284t-247 -183t-318 -63.5q-143 0 -252 43.5t-183 122t-112 187.5t-38 240v31h-224l-118 -604h-294l273 1409h295l-109 -561h214q36 132 102.5 239.5t160.5 183.5t213 117.5t260 41.5zM1426 1197 q-144 0 -245 -75.5t-156 -228t-55 -312.5q0 -184 80 -276.5t223 -92.5t244.5 75.5t156.5 223.5t55 316q0 178 -79 274t-224 96z"/>
<glyph glyph-name="uni042F" horiz-adv-x="1493" unicode="Я" d="M-44 0l476 592q-68 26 -124.5 80.5t-87.5 127t-31 158.5q0 221 153 336t455 115h732l-274 -1409h-295l104 535h-356l-411 -535h-341zM1190 1180h-393q-165 0 -237.5 -56t-72.5 -170q0 -85 59.5 -137.5t158.5 -52.5h404z"/>
<glyph glyph-name="uni0430" unicode="а" d="M892 -10q-100 0 -154 42t-54 111q0 37 5 64h-6q-84 -130 -166 -178.5t-200 -48.5q-140 0 -223.5 83.5t-83.5 214.5q0 185 127.5 279.5t413.5 99.5l191 3q21 95 21 131q0 128 -127 128q-94 0 -140 -36.5t-63 -105.5l-263 31q34 144 153.5 219t317.5 75q207 0 303.5 -73 t96.5 -222q0 -37 -24 -157l-71 -353q-8 -45 -8 -72q0 -24 10 -37t23 -19t26 -7.5t20 -1.5q30 0 62 7l-14 -155q-42 -16 -85 -19t-88 -3zM711 503h-162q-117 -2 -184.5 -48t-67.5 -130q0 -70 39.5 -109.5t106.5 -39.5q83 0 151 64.5t95 170.5z"/>
<glyph glyph-name="uni0431" horiz-adv-x="1268" unicode="б" d="M580 172q84 0 141.5 28.5t96.5 87.5t58 146t19 160q0 116 -51 178t-151 62q-114 0 -184 -48t-104 -145t-34 -204q0 -121 55 -193t154 -72zM574 -20q-227 0 -354 137.5t-127 390.5q0 120 30.5 266.5t76 250.5t111.5 178t160.5 123.5t257 87t584.5 88.5l-45 -235 q-206 -21 -391 -49q-205 -29 -287.5 -57t-134.5 -75.5t-87.5 -123.5t-66.5 -210q77 147 185 211t270 64q208 0 322 -109.5t114 -306.5q0 -120 -38.5 -244t-116.5 -212t-193.5 -131.5t-269.5 -43.5z"/>
<glyph glyph-name="uni0432" horiz-adv-x="1237" unicode="в" d="M1185 833q0 -106 -73.5 -177t-206.5 -94l-1 -7q107 -16 170 -77t63 -152q0 -167 -151.5 -256.5t-432.5 -89.5q-268 0 -514 41l116 619q44 235 181.5 343.5t393.5 108.5q214 0 334.5 -68t120.5 -191zM356 185q125 -16 212 -16q143 0 212 38t69 123q0 134 -249 134h-190z M619 632q129 0 197.5 40t68.5 113q0 126 -168 126q-117 0 -180.5 -59.5t-85.5 -173.5l-9 -46h177z"/>
<glyph glyph-name="uni0433" horiz-adv-x="1093" unicode="г" d="M580 911q-103 0 -152.5 -29t-78.5 -110l-233 48q52 155 165.5 219t315.5 64q205 0 318.5 -76.5t113.5 -216.5q0 -88 -37 -148t-114.5 -103t-251.5 -90q-185 -48 -237.5 -70t-75 -47.5t-22.5 -63.5q0 -121 211 -121q119 0 179.5 34.5t88.5 113.5l235 -56 q-93 -279 -508 -279q-227 0 -347 80t-120 244q0 95 43 161t132.5 112.5t268.5 89.5q98 24 156 41t88.5 33t40 34t9.5 44q0 19 -9 35.5t-30.5 29t-57.5 20t-91 7.5z"/>
<glyph glyph-name="uni0434" horiz-adv-x="1266" unicode="д" d="M918 893l5 77q0 158 -85.5 243t-235.5 85q-87 0 -178 -32l-58 171q32 18 99 32.5t130 14.5q289 0 443 -159.5t154 -466.5q0 -153 -39.5 -335.5t-120 -303.5t-201 -180t-291.5 -59q-225 0 -352.5 120t-127.5 332q3 81 11 125q45 231 179.5 357.5t333.5 126.5 q116 0 205.5 -41.5t128.5 -106.5zM567 172q105 0 172.5 59t100.5 189t33 206q0 112 -55.5 169t-162.5 57q-60 0 -106.5 -18t-81.5 -57t-59.5 -99.5t-40.5 -145.5q-13 -64 -13 -122q0 -110 53 -174t160 -64z"/>
<glyph glyph-name="uni0435" unicode="е" d="M358 476q-7 -38 -7 -89q0 -106 46.5 -162.5t137.5 -56.5q147 0 213 169l245 -74q-75 -159 -186 -221t-291 -62q-213 0 -333 115.5t-120 322.5t72 362.5t204.5 238.5t306.5 83q209 0 322.5 -107.5t113.5 -303.5q0 -99 -24 -215h-700zM822 663l3 56q0 107 -49.5 156 t-129.5 49q-96 0 -161.5 -66.5t-93.5 -194.5h431z"/>
<glyph glyph-name="uni0436" horiz-adv-x="1508" unicode="ж" d="M611 447q-64 0 -95 11l-312 -458h-296l438 571q-33 33 -72 134l-146 377h264l86 -257q26 -79 50.5 -124.5t49.5 -67.5t65 -25l92 474h252l-92 -474q43 2 68 19.5t59.5 58.5t101.5 135l185 261h285l-285 -388q-64 -85 -128 -130l212 -564h-277l-154 458q-33 -11 -99 -11 l-87 -447h-252z"/>
<glyph glyph-name="uni0437" horiz-adv-x="1045" unicode="з" d="M448 -20q-186 0 -297 80t-140 229l252 44q35 -164 200 -164q89 0 136 39.5t47 113.5q0 81 -68 115t-193 34l28 177q173 0 245 39.5t72 120.5q0 57 -42.5 86t-113.5 29q-156 0 -196 -144l-232 20q83 303 459 303q180 0 289 -71t109 -188q0 -78 -41 -140.5t-109 -99.5 t-152 -46v-4q109 -17 170.5 -80t61.5 -160q0 -155 -129 -244t-356 -89z"/>
<glyph glyph-name="uni0438" horiz-adv-x="1251" unicode="и" d="M512 1082l-118 -595q-26 -123 -26 -165q0 -129 152 -129q101 0 186.5 81t108.5 202l118 606h282l-166 -851q-16 -79 -38 -231h-268q0 9 9.5 84t14.5 101h-3q-76 -107 -166.5 -155.5t-206.5 -48.5q-152 0 -229 73t-77 211q0 25 7 80.5t14 83.5l127 653h279z"/>
<glyph glyph-name="uni0439" horiz-adv-x="1251" unicode="й" d="M512 1082l-118 -595q-26 -123 -26 -165q0 -129 152 -129q101 0 186.5 81t108.5 202l118 606h282l-166 -851q-16 -79 -38 -231h-268q0 9 9.5 84t14.5 101h-3q-76 -107 -166.5 -155.5t-206.5 -48.5q-152 0 -229 73t-77 211q0 25 7 80.5t14 83.5l127 653h279zM749 1184 q-142 0 -234.5 64t-146.5 195l193 74q44 -103 97.5 -145.5t124.5 -42.5q183 0 274 204l112 -49q-60 -149 -166.5 -224.5t-253.5 -75.5z"/>
<glyph glyph-name="uni043A" horiz-adv-x="1038" unicode="к" d="M247 1082h282l-91 -464q51 3 75.5 16t57.5 49t105 142l171 257h274l-270 -381q-70 -95 -136 -133l210 -568h-280l-142 458q-26 -11 -98 -11l-87 -447h-282z"/>
<glyph glyph-name="uni043B" horiz-adv-x="1274" unicode="л" d="M745 0l174 892h-283q-61 -184 -109 -323t-89.5 -240.5t-80.5 -168.5t-81.5 -107t-93 -56.5t-115.5 -16.5q-38 0 -86 7t-63 11l36 186q33 -9 65 -9q29 0 53 12.5t48.5 47.5t52.5 98t65 163.5t85.5 244.5t114.5 341h800l-211 -1082h-282z"/>
<glyph glyph-name="uni043C" horiz-adv-x="1515" unicode="м" d="M1018 0l136 698q30 133 69 259l-461 -957h-213l-98 955q-2 -34 -8.5 -87.5t-12.5 -93.5t-149 -774h-246l211 1082h364l61 -561q19 -203 19 -308q25 66 68.5 160t342.5 709h374l-211 -1082h-246z"/>
<glyph glyph-name="uni043D" horiz-adv-x="1237" unicode="н" d="M528 1082l-84 -428h387l84 428h282l-211 -1082h-282l90 463h-387l-90 -463h-282l211 1082h282z"/>
<glyph glyph-name="uni043E" horiz-adv-x="1251" unicode="о" d="M1185 683q0 -207 -81.5 -368t-231 -248t-337.5 -87q-218 0 -345 117.5t-127 321.5q0 201 79.5 356t226.5 240.5t335 85.5q235 0 358 -109.5t123 -308.5zM891 662q0 247 -208 247q-114 0 -181.5 -60t-105.5 -182.5t-38 -235.5q0 -259 208 -259q112 0 177.5 56.5t103 171.5 t44.5 262z"/>
<glyph glyph-name="uni043F" horiz-adv-x="1251" unicode="п" d="M1215 1082l-211 -1082h-282l174 892h-405l-174 -892h-282l211 1082h969z"/>
<glyph glyph-name="uni0440" horiz-adv-x="1251" unicode="р" d="M728 907q-126 0 -201.5 -88t-109.5 -265q-17 -93 -17 -153q0 -107 53 -167.5t148 -60.5q102 0 161 64t93 206t34 251q0 106 -38.5 159.5t-122.5 53.5zM493 913q72 100 154.5 144.5t200.5 44.5q159 0 248 -94.5t89 -259.5q0 -202 -62 -393.5t-174.5 -283t-286.5 -91.5 q-125 0 -203 52t-110 146h-2q-7 -62 -32 -188l-80 -415h-280l243 1258l20 110l19 139h275q0 -14 -7.5 -77.5t-15.5 -91.5h4z"/>
<glyph glyph-name="uni0441" unicode="с" d="M536 173q83 0 137 52.5t86 155.5l271 -50q-107 -351 -510 -351q-220 0 -338.5 112.5t-118.5 312.5q0 195 79 366t210.5 251t327.5 80q189 0 302 -95.5t127 -265.5l-284 -23q-11 191 -167 191q-107 0 -167.5 -73.5t-109.5 -260.5q-23 -115 -23 -168q0 -234 178 -234z"/>
<glyph glyph-name="uni0442" horiz-adv-x="1821" unicode="т" d="M1322 892q-91 0 -158 -77t-93 -208l-119 -607h-279l123 635q17 91 17 136q0 121 -126 121q-88 0 -156.5 -75.5t-95.5 -212.5l-118 -604h-282l166 851q20 95 39 231h272q0 -11 -10.5 -77.5t-17.5 -107.5h3q77 116 151.5 160t176.5 44q124 0 196 -59.5t86 -172.5 q80 125 162.5 178.5t191.5 53.5q138 0 211.5 -73t73.5 -211q0 -64 -21 -164l-128 -653h-279l122 627q18 90 18 139v5q-3 121 -126 121z"/>
<glyph glyph-name="uni0443" unicode="у" d="M88 -425q-97 0 -173 18l38 196q40 -9 87 -9q78 0 137.5 46t118.5 150l28 48l-212 1058h291l71 -497q6 -31 21.5 -178t13.5 -156l17 37l139 293l259 501h300l-654 -1139q-107 -167 -174.5 -235t-141 -100.5t-166.5 -32.5z"/>
<glyph glyph-name="uni0444" horiz-adv-x="1812" unicode="ф" d="M1258 -20q-117 0 -190.5 52t-103.5 146l-115 -603h-261l84 432l36 156h-4q-71 -98 -149 -141t-184 -43q-142 0 -225 100t-83 269q0 194 59.5 377.5t168.5 280t262 96.5q122 0 188.5 -45t105.5 -154h4q2 12 8 43l68 361l37 177h251l-86 -447l-27 -124h4q65 99 142 144 t187 45q147 0 230 -94t83 -260q0 -202 -58.5 -393t-162.5 -283t-269 -92zM505 172q73 0 124.5 35.5t88 108.5t57 183t20.5 181q0 230 -156 230q-97 0 -155 -63.5t-90 -199t-32 -261.5q0 -214 143 -214zM1309 907q-110 0 -175 -85t-97 -268q-20 -110 -20 -153 q0 -112 49.5 -170t129.5 -58q91 0 143 64t82.5 206.5t30.5 250.5q0 106 -34 159.5t-109 53.5z"/>
<glyph glyph-name="uni0445" unicode="х" d="M724 0l-186 383l-327 -383h-301l508 562l-279 520h292l173 -347l296 347h308l-483 -525l294 -557h-295z"/>
<glyph glyph-name="uni0446" horiz-adv-x="1323" unicode="ц" d="M512 1082l-118 -595q-26 -123 -26 -165q0 -129 152 -129q101 0 186.5 81t108.5 202l118 606h282l-174 -892h150l-116 -598h-245l79 408h-166q0 9 9.5 84t14.5 101h-3q-76 -107 -166.5 -155.5t-206.5 -48.5q-152 0 -229 73t-77 211q0 25 7 80.5t14 83.5l127 653h279z"/>
<glyph glyph-name="uni0447" horiz-adv-x="1194" unicode="ч" d="M468 1082l-71 -353q-7 -45 -7 -76q0 -50 32.5 -81.5t97.5 -31.5q49 0 95.5 7t158.5 38l97 497h281l-211 -1082h-281l81 415q-189 -86 -353 -86q-124 0 -203 73.5t-79 197.5q0 55 9 98l73 384h280z"/>
<glyph glyph-name="uni0448" horiz-adv-x="1821" unicode="ш" d="M499 190q91 0 158 77t93 208l119 607h279l-123 -635q-17 -91 -17 -136q0 -121 126 -121q88 0 156.5 75.5t95.5 212.5l118 604h282l-166 -851q-20 -95 -39 -231h-272q0 11 10.5 77.5t17.5 107.5h-3q-77 -116 -151.5 -160t-176.5 -44q-124 0 -196 59.5t-86 172.5 q-85 -130 -166.5 -181t-187.5 -51q-138 0 -211.5 73t-73.5 211q0 64 21 164l128 653h279l-122 -627q-18 -90 -18 -139v-5q3 -121 126 -121z"/>
<glyph glyph-name="uni0449" horiz-adv-x="1915" unicode="щ" d="M1006 -19q-124 0 -196 59.5t-86 172.5q-85 -130 -166.5 -181t-187.5 -51q-138 0 -211.5 73t-73.5 211q0 64 21 164l128 653h279l-122 -627q-18 -90 -18 -139v-5q3 -121 126 -121q91 0 158 77t93 208l119 607h279l-123 -635q-17 -91 -17 -136q0 -121 126 -121 q88 0 156.5 75.5t95.5 212.5l118 604h282l-174 -892h186l-117 -598h-245l80 408h-207q0 11 10.5 77.5t17.5 107.5h-3q-77 -116 -151.5 -160t-176.5 -44z"/>
<glyph glyph-name="uni044A" horiz-adv-x="1448" unicode="ъ" d="M1328 339q0 -176 -143.5 -267.5t-418.5 -91.5q-260 0 -496 41l169 871h-362l39 190h642l-85 -435h191q237 0 350.5 -76t113.5 -232zM580 169q64 -16 197 -16q260 0 260 176q0 72 -52 109t-169 37h-176z"/>
<glyph glyph-name="uni044B" horiz-adv-x="1749" unicode="ы" d="M1221 0l211 1082h281l-211 -1082h-281zM526 1082l-85 -435h191q237 0 350.5 -76t113.5 -232q0 -176 -143.5 -267.5t-418.5 -91.5q-260 0 -496 41l206 1061h282zM348 169q64 -16 197 -16q260 0 260 176q0 72 -52 109t-169 37h-176z"/>
<glyph glyph-name="uni044C" horiz-adv-x="1216" unicode="ь" d="M526 1082l-85 -435h191q237 0 350.5 -76t113.5 -232q0 -176 -143.5 -267.5t-418.5 -91.5q-260 0 -496 41l206 1061h282zM348 169q64 -16 197 -16q260 0 260 176q0 72 -52 109t-169 37h-176z"/>
<glyph glyph-name="uni044D" horiz-adv-x="1130" unicode="э" d="M617 1101q217 0 333 -108.5t116 -307.5q0 -202 -75.5 -368.5t-206.5 -251.5t-307 -85q-193 0 -314 94t-147 263l284 26q15 -93 65 -142t126 -49q105 0 165.5 68t84.5 213h-316l37 190h310l5 66q0 204 -173 204q-81 0 -136.5 -41.5t-76.5 -126.5l-284 26q43 152 177 241 t333 89z"/>
<glyph glyph-name="uni044E" horiz-adv-x="1771" unicode="ю" d="M1705 686q0 -208 -79 -369.5t-222.5 -249t-326.5 -87.5q-210 0 -333 117.5t-123 321.5v22l1 22h-215l-90 -463h-282l211 1082h282l-84 -428h207q58 211 213.5 330.5t375.5 119.5q227 0 346 -109.5t119 -308.5zM1410 661q0 247 -192 247q-106 0 -169 -61t-97.5 -181 t-34.5 -235q0 -125 47.5 -192t144.5 -67q107 0 167 58t93.5 171t40.5 260z"/>
<glyph glyph-name="uni044F" horiz-adv-x="1206" unicode="я" d="M577 435l-350 -435h-320l413 471q-77 26 -129.5 102t-52.5 169q0 175 126.5 257.5t418.5 82.5h487l-211 -1082h-282l85 435h-185zM856 907h-192q-126 0 -182 -39t-56 -121q0 -68 44.5 -104t118.5 -36h208z"/>
<glyph glyph-name="uni0450" unicode="ѐ" d="M358 476q-7 -38 -7 -89q0 -106 46.5 -162.5t137.5 -56.5q147 0 213 169l245 -74q-75 -159 -186 -221t-291 -62q-213 0 -333 115.5t-120 322.5t72 362.5t204.5 238.5t306.5 83q209 0 322.5 -107.5t113.5 -303.5q0 -99 -24 -215h-700zM822 663l3 56q0 107 -49.5 156 t-129.5 49q-96 0 -161.5 -66.5t-93.5 -194.5h431zM723 1183l-307 276l8 43h258l195 -288l-6 -31h-148z"/>
<glyph glyph-name="uni0451" unicode="ё" d="M358 476q-7 -38 -7 -89q0 -106 46.5 -162.5t137.5 -56.5q147 0 213 169l245 -74q-75 -159 -186 -221t-291 -62q-213 0 -333 115.5t-120 322.5t72 362.5t204.5 238.5t306.5 83q209 0 322.5 -107.5t113.5 -303.5q0 -99 -24 -215h-700zM822 663l3 56q0 107 -49.5 156 t-129.5 49q-96 0 -161.5 -66.5t-93.5 -194.5h431zM812 1199l43 219h217l-43 -219h-217zM379 1199l42 219h214l-43 -219h-213z"/>
<glyph glyph-name="uni0452" horiz-adv-x="1251" unicode="ђ" d="M650 -425q-95 0 -166 19l36 188l58 -4q67 0 98.5 34.5t49.5 127.5l122 615q26 124 26 165q0 129 -152 129q-101 0 -187 -82t-108 -201l-110 -566h-282l226 1175h-132l33 170h132l27 139h280l-27 -139h312l-33 -170h-313q-35 -183 -65 -318h3q75 104 165.5 154t207.5 50 q152 0 229 -73t77 -211q0 -25 -7 -79.5t-14 -84.5l-142 -741q-29 -144 -116.5 -220.5t-227.5 -76.5z"/>
<glyph glyph-name="uni0453" horiz-adv-x="961" unicode="ѓ" d="M961 1082l-37 -190h-433l-174 -892h-282l211 1082h715zM471 1183l6 31l247 288h277l-8 -43l-376 -276h-146z"/>
<glyph glyph-name="uni0454" horiz-adv-x="1153" unicode="є" d="M536 173q168 0 233 208l271 -50q-52 -173 -183 -262t-337 -89q-220 0 -338.5 112.5t-118.5 312.5q0 195 79 366t210.5 251t327.5 80q192 0 308.5 -97.5t130.5 -263.5l-284 -23q-5 90 -50.5 140.5t-126.5 50.5q-97 0 -158 -59.5t-103 -206.5h310l-37 -190h-309l-3 -52 q0 -120 45.5 -174t132.5 -54z"/>
<glyph glyph-name="uni0455" unicode="ѕ" d="M1000 334q0 -174 -128.5 -264t-374.5 -90q-201 0 -317 71t-157 220l251 36q21 -75 77 -108t166 -33q109 0 165.5 35t56.5 101q0 52 -41.5 79.5t-182.5 57.5q-199 45 -280.5 124.5t-81.5 205.5q0 160 125.5 245t358.5 85q206 0 307 -70.5t125 -217.5l-251 -29 q-17 69 -66 100t-134 31q-205 0 -205 -120q0 -33 20 -55t57 -38t178 -49q182 -41 257 -117t75 -200z"/>
<glyph glyph-name="uni0456" horiz-adv-x="569" unicode="і" d="M282 1277l41 207h281l-41 -207h-281zM35 0l210 1082h281l-211 -1082h-280z"/>
<glyph glyph-name="uni0457" horiz-adv-x="569" unicode="ї" d="M35 0l210 1082h281l-211 -1082h-280zM514 1199l43 219h217l-43 -219h-217zM81 1199l42 219h214l-43 -219h-213z"/>
<glyph glyph-name="uni0458" horiz-adv-x="569" unicode="ј" d="M283 1277l40 207h281l-40 -207h-281zM-54 -425q-95 0 -166 19l36 188l58 -4q67 0 98.5 34.5t49.5 127.5l223 1142h281l-236 -1210q-29 -144 -116.5 -220.5t-227.5 -76.5z"/>
<glyph glyph-name="uni0459" horiz-adv-x="1985" unicode="љ" d="M1295 1082l-85 -435h191q237 0 350.5 -76t113.5 -232q0 -176 -143.5 -267.5t-418.5 -91.5q-260 0 -496 41l169 871h-340q-61 -184 -109 -323t-89.5 -240.5t-80.5 -168.5t-81.5 -107t-93 -56.5t-115.5 -16.5q-38 0 -86 7t-63 11l36 186q33 -9 65 -9q29 0 53 12.5 t48.5 47.5t52.5 98t65 163.5t85.5 244.5t114.5 341h857zM1117 169q64 -16 197 -16q260 0 260 176q0 72 -52 109t-169 37h-176z"/>
<glyph glyph-name="uni045A" horiz-adv-x="1855" unicode="њ" d="M1165 1082l-85 -435h191q237 0 350.5 -76t113.5 -232q0 -176 -143.5 -267.5t-418.5 -91.5q-260 0 -496 41l86 442h-354l-90 -463h-282l211 1082h282l-84 -428h354l83 428h282zM987 169q16 -4 41 -7t52.5 -5t55 -3t48.5 -1q260 0 260 176q0 72 -52 109t-169 37h-176z"/>
<glyph glyph-name="uni045B" horiz-adv-x="1251" unicode="ћ" d="M601 1484l-27 -139h313l-33 -170h-314q-35 -183 -65 -318h3q75 104 165.5 154t207.5 50q152 0 229 -73t77 -211q0 -25 -7 -79.5t-14 -84.5l-119 -613h-279l110 555q26 124 26 165q0 129 -152 129q-101 0 -187 -82t-108 -201l-110 -566h-282l226 1175h-137l33 170h137 l27 139h280z"/>
<glyph glyph-name="uni045C" horiz-adv-x="1038" unicode="ќ" d="M247 1082h282l-91 -464q51 3 75.5 16t57.5 49t105 142l171 257h274l-270 -381q-70 -95 -136 -133l210 -568h-280l-142 458q-26 -11 -98 -11l-87 -447h-282zM574 1183l6 31l247 288h277l-8 -43l-376 -276h-146z"/>
<glyph glyph-name="uni045D" horiz-adv-x="1251" unicode="ѝ" d="M512 1082l-118 -595q-26 -123 -26 -165q0 -129 152 -129q101 0 186.5 81t108.5 202l118 606h282l-166 -851q-16 -79 -38 -231h-268q0 9 9.5 84t14.5 101h-3q-76 -107 -166.5 -155.5t-206.5 -48.5q-152 0 -229 73t-77 211q0 25 7 80.5t14 83.5l127 653h279zM716 1183 l-307 276l8 43h258l195 -288l-6 -31h-148z"/>
<glyph glyph-name="uni045E" unicode="ў" d="M88 -425q-97 0 -173 18l38 196q40 -9 87 -9q78 0 137.5 46t118.5 150l28 48l-212 1058h291l71 -497q6 -31 21.5 -178t13.5 -156l17 37l139 293l259 501h300l-654 -1139q-107 -167 -174.5 -235t-141 -100.5t-166.5 -32.5zM695 1184q-142 0 -234.5 64t-146.5 195l193 74 q44 -103 97.5 -145.5t124.5 -42.5q183 0 274 204l112 -49q-60 -149 -166.5 -224.5t-253.5 -75.5z"/>
<glyph glyph-name="uni045F" horiz-adv-x="1251" unicode="џ" d="M657 -56l-71 -352h-245l82 352h234zM512 1082l-118 -595q-26 -123 -26 -165q0 -129 152 -129q101 0 186.5 81t108.5 202l118 606h282l-166 -851q-16 -79 -38 -231h-268q0 9 9.5 84t14.5 101h-3q-76 -107 -166.5 -155.5t-206.5 -48.5q-152 0 -229 73t-77 211q0 25 7 80.5 t14 83.5l127 653h279z"/>
<glyph glyph-name="uni0460" horiz-adv-x="2653" unicode="Ѡ" d="M1628 1351q184 79 377 79q182 0 313.5 -72t200 -203t68.5 -306q0 -236 -107.5 -440t-300.5 -316.5t-446 -112.5q-290 0 -481 136q-240 -136 -512 -136q-183 0 -320.5 75t-215 216.5t-77.5 316.5q0 241 107 436t297.5 300.5t434.5 105.5q86 0 160 -16.5t163 -62.5 l-151 -213q-91 60 -197 60q-151 0 -268.5 -80t-181 -219.5t-63.5 -308.5q0 -181 87 -280t255 -99q109 0 210.5 31t178.5 88l62 321h270l-62 -321q114 -119 318 -119q150 0 273 83t195.5 234t72.5 321q0 177 -80 263t-248 86q-68 0 -119.5 -17.5t-99.5 -42.5z"/>
<glyph glyph-name="uni0461" horiz-adv-x="1594" unicode="ѡ" d="M1595 1082q11 -53 11 -123q0 -174 -57.5 -334t-164.5 -309t-292 -316h-267l-45 360q-131 -217 -278 -360h-267l-144 1082h297l67 -843q82 92 157 220t120 259l-47 364h293l67 -843q290 304 290 724q0 51 -7 119h267z"/>
<glyph glyph-name="uni0462" horiz-adv-x="1683" unicode="Ѣ" d="M132 1227h349l35 182h295l-36 -182h458l-37 -190h-458l-36 -189h374q232 0 366.5 -103.5t134.5 -282.5q0 -221 -162 -341.5t-452 -120.5h-720l201 1037h-349zM582 230h391q145 0 222.5 55t77.5 156q0 89 -62 134.5t-199 45.5h-354z"/>
<glyph glyph-name="uni0463" horiz-adv-x="1735" unicode="ѣ" d="M1216 1082q-21 -94 -105 -342l-31 -93h122q239 0 351.5 -75.5t112.5 -223.5q0 -180 -125.5 -274t-355.5 -94q-162 0 -253.5 39t-136 119t-44.5 200q0 90 28 203.5t107 305.5q-403 -10 -474 -367l-96 -480h-281l161 830q25 121 42 252h268q-21 -161 -30 -221h4 q63 113 178 167t318 54h240zM1044 475q-19 -91 -19 -147q0 -97 43.5 -136t134.5 -39q77 0 124.5 49.5t47.5 126.5q0 72 -49 109t-164 37h-118z"/>
<glyph glyph-name="uni0464" horiz-adv-x="1987" unicode="Ѥ" d="M36 0l273 1409h295l-113 -580h228q68 285 270 443t497 158q230 0 377.5 -98.5t198.5 -293.5l-274 -71q-29 107 -111.5 169t-199.5 62q-343 0 -452 -369h511l-45 -228h-500v-28q0 -184 74 -273t225 -89q266 0 418 258l227 -117q-104 -186 -272 -279t-393 -93 q-279 0 -429.5 152t-150.5 437v33h-243l-117 -602h-294z"/>
<glyph glyph-name="uni0465" horiz-adv-x="1637" unicode="ѥ" d="M35 0l210 1082h281l-86 -439h180q66 231 208.5 345t375.5 114q192 0 308.5 -97.5t130.5 -263.5l-284 -23q-5 90 -50.5 140.5t-126.5 50.5q-99 0 -160.5 -62t-100.5 -204h310l-37 -190h-309l-3 -52q0 -120 45.5 -174t132.5 -54q168 0 233 208l271 -50q-51 -171 -182 -261 t-338 -90q-220 0 -338.5 112.5t-118.5 312.5q0 34 1 47h-185l-88 -452h-280z"/>
<glyph glyph-name="uni0466" horiz-adv-x="1366" unicode="Ѧ" d="M988 0l-73 479h-103l-100 -479h-231l99 479h-121l-258 -479h-294l787 1409h348l238 -1409h-292zM825 1192q-21 -64 -98 -212l-147 -277h313l-50 331q-18 135 -18 158z"/>
<glyph glyph-name="uni0467" unicode="ѧ" d="M435 347h-73l-176 -347h-278l609 1082h336l176 -1082h-273l-39 347h-77l-68 -347h-205zM464 534h219l-41 341z"/>
<glyph glyph-name="uni0468" horiz-adv-x="1896" unicode="Ѩ" d="M36 0l273 1409h295l-138 -706h375l395 706h348l238 -1409h-292l-73 479h-104l-99 -479h-231l98 479h-120l-258 -479h-294l267 479h-293l-93 -479h-294zM1367 1192q-21 -64 -98 -212l-144 -277h309l-49 331q-18 135 -18 158z"/>
<glyph glyph-name="uni0469" horiz-adv-x="1639" unicode="ѩ" d="M961 347h-73l-176 -347h-278l195 347h-265l-68 -347h-281l211 1082h281l-107 -548h334l309 548h336l176 -1082h-273l-39 347h-77l-68 -347h-205zM990 534h219l-41 341z"/>
<glyph glyph-name="uni046A" horiz-adv-x="1657" unicode="Ѫ" d="M980 576l-112 -576h-285l112 576h-20q-156 0 -238.5 -60t-105.5 -177l-64 -339h-285l71 357q24 126 68 204t109 126.5t158 78t215 33.5l-254 610h1298l-490 -610q185 -14 281 -115.5t96 -278.5q0 -65 -11 -122l-53 -283h-286l61 317q6 33 6 62q0 94 -67 145.5t-186 51.5 h-18zM881 813l292 373h-438z"/>
<glyph glyph-name="uni046B" horiz-adv-x="1543" unicode="ѫ" d="M804 0h-275l80 408q-236 0 -281 -233l-34 -175h-275l53 261q68 333 468 333l-211 488h1097l-401 -488q108 -9 182 -52t112.5 -114t38.5 -162q0 -22 -2.5 -43.5t-43.5 -222.5h-274l34 175q7 35 7 67q0 166 -195 166zM779 585l224 294h-331z"/>
<glyph glyph-name="uni046C" horiz-adv-x="2218" unicode="Ѭ" d="M1548 576l-112 -576h-285l112 576h-20q-156 0 -238.5 -60t-105.5 -177l-64 -339h-285l71 357q26 148 102 214h-317l-111 -571h-295l273 1409h295l-118 -610h721l-254 610h1298l-490 -610q185 -14 281 -115.5t96 -278.5q0 -65 -11 -122l-53 -283h-286l61 317q6 33 6 62 q0 94 -67 145.5t-186 51.5h-18zM1449 813l292 373h-438z"/>
<glyph glyph-name="uni046D" horiz-adv-x="2003" unicode="ѭ" d="M1325 0h-275l80 408q-236 0 -281 -233l-34 -175h-275l49 242q10 50 31.5 90t48.5 59h-273l-76 -391h-281l211 1082h281l-95 -488h625l-211 488h1097l-401 -488q108 -9 182 -52t112.5 -114t38.5 -162q0 -22 -2.5 -43.5t-43.5 -222.5h-274l34 175q7 35 7 67q0 166 -195 166 zM1300 585l224 294h-331z"/>
<glyph glyph-name="uni046E" horiz-adv-x="1316" unicode="Ѯ" d="M195 -121q0 -34 26 -57.5t77 -23.5q49 0 109.5 16.5t125.5 37t131 37t127 16.5q122 0 184.5 -61t62.5 -174q0 -39 -8 -85h-282l4 34q0 62 -60 62q-35 0 -83 -16.5t-104.5 -36.5t-120 -36.5t-130.5 -16.5q-140 0 -225.5 79t-85.5 216q0 107 56 178t162.5 115t319.5 74 l150 21q124 16 185.5 58t61.5 118t-73.5 122t-223.5 46h-57l44 227h57q340 0 340 223q0 71 -52.5 115.5t-149.5 44.5q-111 0 -190.5 -54.5t-134.5 -174.5l-256 74q65 160 172 246.5t293 116.5l-113 349h198l79 -335l150 223q51 74 93.5 99t98.5 25q49 0 91.5 -20t65.5 -58 l-98 -89q-12 26 -39 26q-33 0 -66 -46l-133 -181q129 -27 205.5 -116t76.5 -203q0 -153 -83 -245.5t-268 -129.5q118 -19 190 -98t72 -189q0 -137 -74 -227.5t-212.5 -132.5t-377.5 -62q-88 -8 -156 -21.5t-110 -38t-42 -71.5z"/>
<glyph glyph-name="uni046F" horiz-adv-x="1045" unicode="ѯ" d="M-51 -168q0 74 22 128.5t65.5 94.5t114.5 68.5t219 55.5q129 24 174.5 43t71 48t25.5 74q0 64 -62.5 95.5t-200.5 31.5l35 177q166 0 240 44t74 134q0 43 -40.5 70t-106.5 27q-164 0 -202 -144l-233 22q34 117 114 191t214 99l-114 318h198l85 -307l144 195 q53 72 95.5 98t99.5 26q49 0 90 -20t64 -58l-98 -89q-12 26 -38 26q-31 0 -67 -46l-123 -163q91 -30 142 -91t51 -133q0 -118 -81 -195t-220 -95v-4q110 -19 170.5 -78.5t60.5 -149.5q0 -129 -88.5 -205t-297.5 -109l-113 -19q-143 -22 -196.5 -55t-53.5 -86q0 -70 95 -70 q37 0 81.5 14t93 31t100.5 31t106 14q190 0 190 -203q0 -37 -6 -77h-234q1 13 1 17q0 57 -62 57q-39 0 -72.5 -14t-71 -31t-81.5 -31t-104 -14q-73 0 -135.5 31.5t-98.5 89.5t-36 136z"/>
<glyph glyph-name="uni0470" horiz-adv-x="1697" unicode="Ѱ" d="M955 427l-83 -427h-279l83 427q-142 0 -223.5 43t-122.5 137.5t-58 310.5l-42 491h279l56 -629q13 -132 154 -132l147 761h279l-147 -761h9q161 0 245 66.5t117 227.5l90 467h279l-90 -463q-50 -263 -212 -391t-441 -128h-40z"/>
<glyph glyph-name="uni0471" horiz-adv-x="1583" unicode="ѱ" d="M836 176q142 2 211.5 70.5t100.5 227.5l118 608h275l-121 -624q-49 -249 -198 -362.5t-422 -115.5l-79 -405h-259l79 405q-101 1 -168.5 25.5t-106.5 71.5t-56 126.5t-17 254.5l-5 624h275l-10 -772q0 -56 36 -94.5t90 -38.5l176 905h257z"/>
<glyph glyph-name="uni0472" horiz-adv-x="1593" unicode="Ѳ" d="M928 1430q293 0 462 -155.5t169 -423.5q0 -246 -105 -449t-294.5 -312.5t-432.5 -109.5q-193 0 -335.5 72t-217 206.5t-74.5 314.5q0 235 105.5 438.5t292.5 311t430 107.5zM563 545q-32 0 -81 8t-82 23q1 -183 90.5 -273.5t250.5 -90.5q370 0 482 387q-94 43 -208 43 q-46 0 -98.5 -15t-110 -33.5t-119 -33.5t-124.5 -15zM914 1197q-370 0 -479 -378q32 -16 83 -26.5t89 -10.5q71 0 125.5 15t105.5 33.5t103.5 33.5t119.5 15q93 0 194 -38q-4 173 -93 264.5t-248 91.5z"/>
<glyph glyph-name="uni0473" horiz-adv-x="1251" unicode="ѳ" d="M1185 683q0 -207 -81.5 -368t-231 -248t-337.5 -87q-218 0 -345 117t-127 322q0 201 79.5 356t227 240.5t334.5 85.5q233 0 357 -109.5t124 -308.5zM891 662q0 247 -208 247q-124 0 -195.5 -74.5t-106.5 -219.5q52 -16 103 -16q52 0 89 12t70 27t68 27t83 12q46 0 97 -18 v3zM445 406q-47 0 -87 16q4 -250 208 -250q88 0 141.5 30.5t93 94.5t64.5 170q-54 16 -120 16q-34 0 -66 -12t-67 -26.5t-75.5 -26.5t-91.5 -12z"/>
<glyph glyph-name="uni0474" horiz-adv-x="1606" unicode="Ѵ" d="M714 0h-299l-248 1409h308l114 -905q18 -163 23 -266q61 146 123 266l315 624q82 158 179 230t233 72q177 0 315 -145l-161 -168q-72 82 -146 82q-52 0 -89.5 -29.5t-79.5 -104.5z"/>
<glyph glyph-name="uni0475" horiz-adv-x="1257" unicode="ѵ" d="M623 0h-336l-176 1082h288l71 -605q4 -31 23 -267l26 58q58 135 96 206l167 322q88 171 173 238.5t217 67.5q109 0 217 -69l-139 -211q-45 29 -81 29q-45 0 -75.5 -29t-68.5 -96z"/>
<glyph glyph-name="uni0476" horiz-adv-x="1606" unicode="Ѷ" d="M714 0h-299l-248 1409h308l114 -905q18 -163 23 -266q61 146 123 266l315 624q82 158 179 230t233 72q177 0 315 -145l-161 -168q-72 82 -146 82q-52 0 -89.5 -29.5t-79.5 -104.5zM1076 1516l-307 276l9 43h256l197 -288l-8 -31h-147zM671 1516l-307 276l9 43h256 l197 -288l-8 -31h-147z"/>
<glyph glyph-name="uni0477" horiz-adv-x="1257" unicode="ѷ" d="M623 0h-336l-176 1082h288l71 -605q4 -31 23 -267l26 58q58 135 96 206l167 322q88 171 173 238.5t217 67.5q109 0 217 -69l-139 -211q-45 29 -81 29q-45 0 -75.5 -29t-68.5 -96zM900 1183l-307 276l9 43h256l197 -288l-8 -31h-147zM495 1183l-307 276l9 43h256l197 -288 l-8 -31h-147z"/>
<glyph glyph-name="uni0478" horiz-adv-x="2327" unicode="Ѹ" d="M1233 907q0 -256 -90.5 -470.5t-250 -335.5t-360.5 -121q-206 0 -320.5 141t-114.5 389q0 252 91 472.5t247.5 334t359.5 113.5q206 0 322 -137.5t116 -385.5zM576 212q99 0 181.5 89t133 249.5t50.5 333.5q0 149 -51.5 231.5t-140.5 82.5q-98 0 -180.5 -87.5 t-132.5 -246.5t-50 -330q0 -147 51.5 -234.5t138.5 -87.5zM1268 -425q-97 0 -173 18l38 196q41 -9 87 -9q53 0 94.5 19.5t81.5 64t108 160.5l-182 1058h291l84 -818l387 818h300l-634 -1139q-115 -208 -224 -288t-258 -80z"/>
<glyph glyph-name="uni0479" horiz-adv-x="2010" unicode="ѹ" d="M947 702q0 -198 -72.5 -367t-196 -262t-278.5 -93q-152 0 -242 115t-90 300q0 192 71.5 357t195 257.5t276.5 92.5q158 0 247 -106t89 -294zM437 172q63 0 117.5 69.5t90 197.5t35.5 259q0 102 -28.5 156.5t-77.5 54.5q-62 0 -114.5 -67.5t-88.5 -195.5t-36 -258 q0 -102 26.5 -159t75.5 -57zM1015 -425q-97 0 -173 18l38 196q41 -9 87 -9q53 0 94.5 19.5t81.5 64t108 160.5l-182 1058h291l84 -818l387 818h300l-634 -1139q-115 -208 -224 -288t-258 -80z"/>
<glyph glyph-name="uni047A" horiz-adv-x="1698" unicode="Ѻ" d="M722 -119q-55 0 -104.5 30t-68.5 79q-222 29 -352.5 193t-130.5 398t94 425t265 301t394 119q28 47 82.5 75t116.5 28q58 0 108.5 -30.5t69.5 -77.5q152 -22 262 -101t168 -203t58 -276q0 -223 -99 -417.5t-276.5 -312.5t-391.5 -126q-84 -104 -195 -104zM786 311 q55 0 102.5 -26.5t67.5 -68.5q126 19 221 103t147.5 218t52.5 286t-61.5 251t-168.5 120q-84 -95 -188 -95q-56 0 -103.5 26.5t-67.5 69.5q-128 -16 -223 -97t-147 -218t-52 -297q0 -152 61 -249t171 -119q83 96 188 96z"/>
<glyph glyph-name="uni047B" horiz-adv-x="1328" unicode="ѻ" d="M31 435q0 179 73.5 328.5t207.5 237t309 96.5q51 76 156 76q47 0 87 -20.5t59 -55.5q190 -32 281.5 -139t91.5 -276q0 -290 -153.5 -472.5t-424.5 -216.5q-32 -42 -77 -67.5t-97 -25.5q-53 0 -93.5 25.5t-57.5 67.5q-174 31 -268 147t-94 295zM568 893q-72 -16 -128 -85 t-88 -172t-32 -205q0 -94 31.5 -156.5t86.5 -82.5q73 84 167 84q49 0 88 -24.5t58 -62.5q71 11 128.5 73.5t93 175t35.5 230.5q0 86 -28.5 144.5t-82.5 80.5q-33 -44 -79.5 -70t-99.5 -26q-54 0 -94.5 26.5t-55.5 69.5z"/>
<glyph glyph-name="uni047C" horiz-adv-x="2653" unicode="Ѽ" d="M2173 1595h-22q-88 0 -164 25t-170 84q-92 59 -165.5 84t-153.5 25q-125 0 -196.5 -57.5t-91.5 -160.5h-178q33 181 164.5 282.5t322.5 101.5q157 0 343 -100q58 -32 111.5 -55t102 -36.5t131.5 -17.5zM1649 1351q181 79 347 79q183 0 318.5 -72.5t209 -206t73.5 -302.5 q0 -258 -110.5 -459.5t-303.5 -305.5t-448 -104q-265 0 -477 155q-150 -92 -266.5 -123.5t-258.5 -31.5q-187 0 -327 76.5t-216 214.5t-76 309q0 247 104 441t297.5 301.5t445.5 107.5q89 0 164.5 -17.5t160.5 -61.5l-162 -213q-91 60 -201 60q-155 0 -270 -78.5 t-176.5 -221.5t-61.5 -326q0 -168 95.5 -264.5t261.5 -96.5q130 0 249.5 47t290.5 169q131 -127 225 -171.5t220 -44.5q161 0 283.5 76.5t189.5 214.5t67 312q0 176 -87 280t-240 104q-68 0 -120 -17.5t-100 -42.5zM1391 1358q29 35 51 81.5t30 87.5h-106l34 172h230 l-28 -140q-26 -121 -81 -201h-130z"/>
<glyph glyph-name="uni047D" horiz-adv-x="1858" unicode="ѽ" d="M846 50q-152 -70 -300 -70q-222 0 -346.5 121t-124.5 325q0 201 80.5 354.5t232.5 237.5t358 84h6l-45 -218q-171 0 -254 -114t-83 -348q0 -245 214 -245q63 0 129.5 24t165.5 82q65 -50 128.5 -78.5t144.5 -28.5q164 0 251 124.5t87 361.5q0 116 -54 170t-146 54l39 216 q212 0 334 -109.5t122 -311.5q0 -207 -81.5 -367.5t-232 -247t-349.5 -86.5q-153 0 -276 70zM1743 1346h-22q-88 0 -165.5 25.5t-169.5 83.5q-92 59 -165.5 84t-153.5 25q-125 0 -196 -57.5t-91 -160.5h-178q31 167 172 275.5t328 108.5q156 0 337 -100q68 -39 122 -61.5 t97 -33.5t119 -14zM961 1109q29 35 51 81.5t30 87.5h-106l33 172h230l-27 -140q-23 -117 -81 -201h-130z"/>
<glyph glyph-name="uni047E" horiz-adv-x="2653" unicode="Ѿ" d="M1628 1351q184 79 377 79q182 0 313.5 -72t200 -203t68.5 -306q0 -236 -107.5 -440t-300.5 -316.5t-446 -112.5q-290 0 -481 136q-240 -136 -512 -136q-183 0 -320.5 75t-215 216.5t-77.5 316.5q0 241 107 436t297.5 300.5t434.5 105.5q86 0 160 -16.5t163 -62.5 l-151 -213q-91 60 -197 60q-151 0 -268.5 -80t-181 -219.5t-63.5 -308.5q0 -181 87 -280t255 -99q109 0 210.5 31t178.5 88l62 321h270l-62 -321q114 -119 318 -119q150 0 273 83t195.5 234t72.5 321q0 177 -80 263t-248 86q-68 0 -119.5 -17.5t-99.5 -42.5zM1927 1717 l-90 -215h-39l-47 111h-214l-47 -111h-40l-47 111h-214l-47 -111h-39l-90 215h914z"/>
<glyph glyph-name="uni047F" horiz-adv-x="1594" unicode="ѿ" d="M1595 1082q11 -53 11 -123q0 -174 -57.5 -334t-164.5 -309t-292 -316h-267l-45 360q-131 -217 -278 -360h-267l-144 1082h297l67 -843q82 92 157 220t120 259l-47 364h293l67 -843q290 304 290 724q0 51 -7 119h267zM1307 1375l-90 -215h-39l-47 111h-214l-47 -111h-40 l-47 111h-214l-47 -111h-39l-90 215h914z"/>
<glyph glyph-name="uni0480" horiz-adv-x="1479" unicode="Ҁ" d="M401 573q0 -173 85.5 -267.5t244.5 -94.5q80 0 156 26q-40 -213 -128 -662h-295l81 421q-212 41 -328.5 191.5t-116.5 381.5q0 252 105 450.5t293.5 304.5t428.5 106q230 0 377.5 -98.5t198.5 -293.5l-274 -71q-29 107 -111.5 169t-199.5 62q-242 0 -379.5 -168 t-137.5 -457z"/>
<glyph glyph-name="uni0481" horiz-adv-x="1026" unicode="ҁ" d="M523 173q119 0 185 56l-139 -654h-281l80 416q-160 29 -247 136.5t-87 277.5q0 191 77 363.5t207 253t323 80.5q186 0 295.5 -93.5t123.5 -267.5l-284 -23q-5 89 -41 140t-116 51q-97 0 -154 -59.5t-96.5 -207t-39.5 -235.5q0 -121 47 -177.5t147 -56.5z"/>
<glyph glyph-name="uni0482" horiz-adv-x="1196" unicode="҂" d="M1241 905l-92 -215l-370 97l-98 -215l370 -97l-93 -216l-370 97l-160 -356h-249l187 417l-370 97l91 216l372 -97l98 215l-371 97l92 215l371 -97l189 421h250l-216 -482z"/>
<glyph glyph-name="uni0483" horiz-adv-x="0" unicode="҃" d="M518 1363q0 -53 -35.5 -87.5t-85.5 -34.5h-339v-12q0 -55 -35 -85t-86 -30q-53 0 -87 33.5t-34 87.5q0 55 33.5 88.5t87.5 33.5h339v12q0 54 35 84.5t86 30.5q50 0 85.5 -34.5t35.5 -86.5z"/>
<glyph glyph-name="uni0484" horiz-adv-x="0" unicode="҄" d="M387 1224l1 23q0 109 -110 109q-39 0 -82 -20.5t-92 -45.5t-104.5 -45.5t-117.5 -20.5h-95l36 185h102q53 0 101 15.5t93.5 33.5t91 33.5t92.5 15.5q197 0 197 -188q0 -44 -8 -95h-105z"/>
<glyph glyph-name="uni0485" horiz-adv-x="0" unicode="҅" d="M63 1484h244l-40 -207h-108l-3 -25q0 -58 64 -145h-136q-31 50 -42 87t-11 85q0 35 8 79z"/>
<glyph glyph-name="uni0486" horiz-adv-x="0" unicode="҆" d="M144 1107h-137q112 100 127 170h-108l40 207h244l-24 -126q-14 -71 -45.5 -128.5t-96.5 -122.5z"/>
<glyph glyph-name="uni0487" horiz-adv-x="0" unicode="҇" d="M694 1390h-22q-89 0 -174.5 25.5t-192.5 83.5q-112 60 -184 84.5t-145 24.5q-125 0 -185 -57.5t-60 -160.5h-178q0 170 117 277t302 107q76 0 158.5 -23t198.5 -77t196 -79.5t169 -29.5v-175z"/>
<glyph glyph-name="uni0488" horiz-adv-x="0" unicode="҈" d="M774 964q0 149 -114 149t-114 -149h-103q0 255 217 255t217 -255h-103zM894 458q0 149 -114 149t-114 -149h-103q0 255 217 255t217 -255h-103zM114 1208q0 149 -114 149t-114 -149h-103q0 255 217 255t217 -255h-103zM774 -98q0 149 -114 149t-114 -149h-103 q0 255 217 255t217 -255h-103zM-526 964q0 149 -114 149t-114 -149h-103q0 255 217 255t217 -255h-103zM-646 458q0 149 -114 149t-114 -149h-103q0 255 217 255t217 -255h-103zM114 -342q0 149 -114 149t-114 -149h-103q0 255 217 255t217 -255h-103zM-526 -98 q0 149 -114 149t-114 -149h-103q0 255 217 255t217 -255h-103z"/>
<glyph glyph-name="uni0489" horiz-adv-x="0" unicode="҉" d="M69 -59v-122q0 -68 -13 -114.5t-41 -87.5h-100q66 88 66 168h-75v156h163zM-94 1187v122q0 68 13 114.5t41 87.5h100q-66 -88 -66 -168h75v-156h-163zM-593 447h-122q-68 0 -114.5 13t-87.5 41v100q88 -66 169 -66v75h155v-163zM603 662h122q68 0 114.5 -13t87.5 -41 v-100q-88 66 -169 66v-75h-155v163zM542 234l86 -87q48 -48 71.5 -90t33.5 -91l-71 -70q-15 109 -72 165l-53 -53l-110 110zM-528 893l-86 86q-48 48 -71.5 90t-32.5 91l70 71q15 -109 72 -166l53 53l111 -110zM-424 46l-86 -86q-49 -48 -90.5 -71.5t-90.5 -33.5l-71 71 q108 15 166 73l-53 53l110 110zM440 1066l86 86q48 49 90 72t91 33l71 -71q-110 -15 -167 -72l53 -54l-109 -109z"/>
<glyph glyph-name="uni048A" horiz-adv-x="1473" unicode="Ҋ" d="M36 0l273 1409h262l-159 -819q-21 -107 -61 -275l825 1094h332l-227 -1165h152l-357 -652h-250l242 408h-96l162 831l36 166l21 88l-820 -1085h-335zM893 1503q-142 0 -234.5 64t-146.5 195l193 74q44 -103 97.5 -145.5t124.5 -42.5q183 0 274 204l112 -49 q-60 -149 -166.5 -224.5t-253.5 -75.5z"/>
<glyph glyph-name="uni048B" horiz-adv-x="1251" unicode="ҋ" d="M512 1082l-118 -595q-26 -123 -26 -165q0 -129 152 -129q101 0 187 82t108 201l118 606h282l-176 -891h133l-327 -599h-250l242 408h-94q0 9 9.5 84t14.5 101h-3q-75 -104 -165.5 -154t-207.5 -50q-152 0 -229 73t-77 211q0 25 7 79.5t14 84.5l127 653h279zM720 1184 q-142 0 -234.5 64t-146.5 195l193 74q44 -103 97.5 -145.5t124.5 -42.5q183 0 274 204l112 -49q-60 -149 -166.5 -224.5t-253.5 -75.5z"/>
<glyph glyph-name="uni048C" horiz-adv-x="1450" unicode="Ҍ" d="M148 1246h129l32 163h295l-32 -163h159l-35 -176h-158l-43 -222h374q232 0 366.5 -103.5t134.5 -282.5q0 -221 -162 -341.5t-452 -120.5h-720l207 1070h-129zM375 230h391q145 0 222.5 55t77.5 156q0 89 -62 134.5t-199 45.5h-354z"/>
<glyph glyph-name="uni048D" horiz-adv-x="1216" unicode="ҍ" d="M169 1345h126l27 139h282l-27 -139h149l-33 -170h-149l-103 -528h191q237 0 350.5 -76t113.5 -232q0 -176 -143.5 -267.5t-418.5 -91.5q-260 0 -496 41l224 1154h-126zM348 169q64 -16 197 -16q260 0 260 176q0 72 -52 109t-169 37h-176z"/>
<glyph glyph-name="uni048E" horiz-adv-x="1366" unicode="Ҏ" d="M850 1409q246 0 382.5 -112t136.5 -310q0 -224 -153 -358l84 -103l-185 -151l-116 144q-90 -23 -194 -23h-377l-98 -496h-294l273 1409h541zM471 723h289l72 3l-84 105l184 151l112 -139q26 54 26 128q0 102 -64 155.5t-184 53.5h-262z"/>
<glyph glyph-name="uni048F" horiz-adv-x="1251" unicode="ҏ" d="M493 913q73 103 157 146t198 43q159 0 248 -94.5t89 -259.5q0 -184 -53 -364t-144 -275l94 -116l-142 -117l-106 131q-77 -27 -172 -27q-125 0 -203 52t-110 146h-2q-3 -29 -8.5 -61.5t-103.5 -541.5h-280l243 1258l20 110l19 139h275q0 -11 -6.5 -65.5t-16.5 -103.5h4z M728 907q-81 0 -139.5 -35t-99.5 -106.5t-65 -178.5t-24 -186q0 -107 53 -167.5t148 -60.5q50 0 88 14l-116 145l141 117l101 -126q31 69 52.5 180t21.5 191q0 106 -38.5 159.5t-122.5 53.5z"/>
<glyph glyph-name="uni0490" horiz-adv-x="1178" unicode="Ґ" d="M994 1409l80 411h250l-124 -639h-641l-229 -1180h-294l272 1408h686z"/>
<glyph glyph-name="uni0491" horiz-adv-x="956" unicode="ґ" d="M725 1082l79 408h245l-116 -598h-444l-173 -892h-281l209 1082h481z"/>
<glyph glyph-name="uni0492" horiz-adv-x="1257" unicode="Ғ" d="M62 831h135l112 578h1024l-44 -228h-729l-68 -350h369l-40 -214h-371l-119 -616h-295l119 616h-133z"/>
<glyph glyph-name="uni0493" horiz-adv-x="961" unicode="ғ" d="M42 622h113l89 460h778l-39 -190h-494l-52 -270h217l-35 -185h-218l-85 -437h-281l84 437h-112z"/>
<glyph glyph-name="uni0494" horiz-adv-x="1365" unicode="Ҕ" d="M309 1409h1061l-44 -227h-766l-62 -320q101 41 160 52.5t130 11.5q235 0 361 -135.5t126 -379.5q0 -253 -87 -443t-246 -291.5t-361 -101.5q-150 0 -258.5 30.5t-185.5 101.5l177 178q96 -91 264 -91q118 0 214.5 77.5t145 209t48.5 310.5q0 151 -66 228t-217 77 q-62 0 -114.5 -10.5t-133.5 -44.5l-124 -641h-296z"/>
<glyph glyph-name="uni0495" horiz-adv-x="1183" unicode="ҕ" d="M429 585q60 15 108 22t121 7q210 0 319 -109.5t109 -311.5q0 -288 -168.5 -453t-458.5 -165q-126 0 -232 39t-165 109l192 130q31 -32 87 -56.5t131 -24.5q165 0 253 106t88 302q0 116 -58.5 180t-168.5 64q-89 0 -193 -26l-77 -398h-282l210 1082h790l-46 -234h-508z "/>
<glyph glyph-name="uni0496" horiz-adv-x="1899" unicode="Җ" d="M695 0l118 605q-73 0 -114 29l-470 -634h-315l600 773q-29 32 -111 229l-172 407h290l125 -324q60 -157 103 -216t103 -59l116 599h274l-116 -599q48 0 105.5 51t193.5 224l255 324h310l-324 -407q-66 -82 -124.5 -144t-84.5 -78l208 -536h185l-127 -652h-250l79 408h-98 l-224 640q-22 -12 -67.5 -23.5t-76.5 -11.5l-118 -605h-273z"/>
<glyph glyph-name="uni0497" horiz-adv-x="1508" unicode="җ" d="M611 447q-64 0 -95 11l-312 -458h-296l438 571q-33 33 -72 134l-146 377h264l86 -257q26 -79 50.5 -124.5t49.5 -67.5t65 -25l92 474h252l-92 -474q35 2 53.5 11t41.5 31t53.5 61t265.5 371h285l-285 -388q-64 -85 -128 -130l140 -374h151l-116 -598h-245l79 408h-74 l-154 458q-33 -11 -99 -11l-87 -447h-252z"/>
<glyph glyph-name="uni0498" horiz-adv-x="1316" unicode="Ҙ" d="M367 -277q83 0 126 61t43 197q-203 11 -327.5 105t-181.5 282l269 91q41 -131 119.5 -191t198.5 -60q138 0 209 55.5t71 160.5q0 82 -72.5 130t-223.5 48h-59l45 227h59q337 0 337 221q0 73 -52 117.5t-147 44.5q-229 0 -328 -230l-256 75q77 193 224 282.5t384 89.5 q213 0 340 -91t127 -247q0 -152 -89 -246t-260 -126q116 -17 188 -99t72 -201q0 -188 -125.5 -300.5t-356.5 -133.5q1 -38 1 -66q0 -344 -327 -344q-47 0 -98.5 10t-77.5 25l28 142q22 -11 61 -20t79 -9z"/>
<glyph glyph-name="uni0499" horiz-adv-x="1045" unicode="ҙ" d="M933 313q0 -135 -99.5 -221t-276.5 -106q1 -38 1 -67q0 -344 -327 -344q-47 0 -98.5 10t-77.5 25l28 142q22 -11 61 -20t79 -9q83 0 126 62t43 197q-161 12 -257.5 90.5t-123.5 216.5l252 44q35 -164 200 -164q91 0 137 40.5t46 112.5q0 81 -68 115t-193 34l28 177 q173 0 245 39.5t72 120.5q0 57 -42.5 86t-113.5 29q-156 0 -196 -144l-232 20q83 303 459 303q180 0 289 -71t109 -188q0 -78 -41 -140.5t-109 -99.5t-152 -46v-4q110 -18 171 -81.5t61 -158.5z"/>
<glyph glyph-name="uni049A" horiz-adv-x="1259" unicode="Қ" d="M930 0h-100l-240 640q-23 -13 -68.5 -24t-74.5 -11l-118 -605h-293l273 1409h295l-116 -599q56 0 127 64t186 206l267 329h308l-335 -425q-130 -161 -216 -216l217 -524h186l-127 -652h-250z"/>
<glyph glyph-name="uni049B" horiz-adv-x="1038" unicode="қ" d="M722 0h-77l-142 458q-29 -11 -98 -11l-87 -447h-282l211 1082h282l-91 -464q45 2 67.5 12t47 33.5t56.5 66.5t238 352h274l-270 -381q-70 -95 -136 -133l120 -324h185l-127 -652h-250z"/>
<glyph glyph-name="uni049C" horiz-adv-x="1259" unicode="Ҝ" d="M565 629q-61 -24 -118 -24l-118 -605h-293l273 1409h295l-116 -599q54 0 124 61l79 404h110l-50 -256l317 390h308l-335 -425q-130 -161 -216 -216l318 -768h-313l-183 487l-61 -314h-110z"/>
<glyph glyph-name="uni049D" horiz-adv-x="1038" unicode="ҝ" d="M480 452l-75 -5l-87 -447h-282l211 1082h282l-91 -464h16l38 -1l20 1l68 348h110l-44 -223l201 339h274l-262 -381q-70 -95 -136 -133l202 -568h-280l-83 310l-26 -137h-110z"/>
<glyph glyph-name="uni049E" horiz-adv-x="1259" unicode="Ҟ" d="M143 1246h134l32 163h295l-32 -163h154l-35 -176h-153l-50 -260q56 0 127 64t186 206l267 329h308l-335 -425q-130 -161 -216 -216l318 -768h-313l-240 640q-23 -13 -68.5 -24t-74.5 -11l-118 -605h-293l207 1070h-134z"/>
<glyph glyph-name="uni049F" horiz-adv-x="1038" unicode="ҟ" d="M155 1345h143l27 138h282l-27 -138h158l-32 -170h-159l-109 -557q45 2 67.5 12t47 33.5t56.5 66.5t238 352h274l-270 -381q-70 -95 -136 -133l210 -568h-280l-142 458q-29 -11 -98 -11l-87 -447h-282l229 1175h-141z"/>
<glyph glyph-name="uni04A0" horiz-adv-x="1567" unicode="Ҡ" d="M191 1409h723l-116 -599q56 0 127 64t186 206l267 329h308l-335 -425q-130 -161 -216 -216l318 -768h-313l-240 640q-23 -13 -68.5 -24t-74.5 -11l-118 -605h-293l229 1181h-429z"/>
<glyph glyph-name="uni04A1" horiz-adv-x="1254" unicode="ҡ" d="M141 1082h611l-91 -464q45 2 67.5 12t47 33.5t56.5 66.5t238 352h274l-270 -381q-65 -92 -136 -133l210 -568h-280l-142 458q-29 -11 -98 -11l-87 -447h-282l165 848h-328z"/>
<glyph glyph-name="uni04A2" horiz-adv-x="1479" unicode="Ң" d="M1151 0h-195l118 604h-626l-118 -604h-294l273 1409h295l-109 -561h626l109 561h284l-227 -1165h162l-127 -652h-250z"/>
<glyph glyph-name="uni04A3" horiz-adv-x="1237" unicode="ң" d="M528 1082l-84 -428h387l84 428h282l-164 -838h162l-127 -652h-250l79 408h-193l90 463h-387l-90 -463h-282l211 1082h282z"/>
<glyph glyph-name="uni04A4" horiz-adv-x="1787" unicode="Ҥ" d="M948 0l117 604h-615l-116 -604h-295l273 1409h295l-109 -561h614l109 561h710l-44 -228h-415l-229 -1181h-295z"/>
<glyph glyph-name="uni04A5" horiz-adv-x="1423" unicode="ҥ" d="M530 1082l-84 -428h387l84 428h630l-46 -234h-348l-165 -848h-282l90 463h-387l-90 -463h-282l211 1082h282z"/>
<glyph glyph-name="uni04A6" horiz-adv-x="2287" unicode="Ҧ" d="M1673 926q229 0 359 -138t130 -387q0 -252 -87.5 -440.5t-247 -287t-361.5 -98.5q-150 0 -258.5 30.5t-185.5 101.5l177 178q96 -91 264 -91q63 0 134.5 27.5t133 94.5t102 180.5t40.5 284.5q0 315 -285 315q-62 0 -114.5 -10.5t-133.5 -44.5l-124 -641h-285l226 1165 h-599l-226 -1165h-294l274 1409h1178l-107 -547q101 41 160 52.5t130 11.5z"/>
<glyph glyph-name="uni04A7" horiz-adv-x="1867" unicode="ҧ" d="M1269 424q-106 0 -204 -26l-77 -398h-282l173 892h-387l-173 -892h-282l210 1082h951l-97 -497q114 29 240 29q210 0 319 -109.5t109 -311.5q0 -288 -168.5 -453t-458.5 -165q-126 0 -232 39t-165 109l192 130q31 -32 87 -56.5t131 -24.5q165 0 253 106t88 302 q0 116 -58.5 180t-168.5 64z"/>
<glyph glyph-name="uni04A8" horiz-adv-x="1485" unicode="Ҩ" d="M928 261q81 91 136 253t55 297q0 103 -64 103q-45 0 -85 -51.5t-64 -141t-24 -184.5q0 -82 14 -161t32 -115zM1130 -20q-146 0 -244 52q-77 -32 -128 -42t-127 -10q-160 0 -280.5 77t-184.5 218t-64 324q0 217 102.5 416.5t267.5 307t367 107.5q57 0 90.5 -5.5 t76.5 -22.5l-105 -218q-37 11 -114 11q-107 0 -193 -79t-139 -231t-53 -319q0 -170 83 -269.5t226 -99.5q-32 71 -51 167.5t-19 171.5q0 166 61 313.5t162 223t229 75.5q123 0 194.5 -86.5t71.5 -236.5q0 -143 -66 -314t-171 -298q163 0 253 47l-46 -244q-83 -36 -199 -36z "/>
<glyph glyph-name="uni04A9" horiz-adv-x="1157" unicode="ҩ" d="M866 -20q-95 0 -167 35q-93 -35 -196 -35q-200 0 -320 124t-120 327q0 181 74.5 338t201.5 244.5t288 87.5q85 0 163 -35l-112 -195q-22 19 -70 19q-74 0 -134.5 -58.5t-95 -159.5t-34.5 -215q0 -294 221 -294q-23 46 -39.5 119t-16.5 125q0 121 43.5 229.5t117.5 161.5 t171 53q103 0 161 -61.5t58 -175.5q0 -113 -44 -231t-118 -211q43 0 101 9.5t95 25.5l-38 -190q-84 -37 -190 -37zM734 213q55 54 95 167.5t40 222.5q0 42 -15.5 62.5t-40.5 20.5q-46 0 -78 -84t-32 -212q0 -123 31 -177z"/>
<glyph glyph-name="uni04AA" horiz-adv-x="1479" unicode="Ҫ" d="M401 573q0 -173 85.5 -267.5t244.5 -94.5q266 0 418 258l227 -117q-181 -324 -553 -366v-67q0 -344 -327 -344q-47 0 -98.5 10t-77.5 25l28 142q22 -11 61 -20t79 -9q169 0 169 244v15q-263 15 -410 170t-147 417q0 252 105 450.5t293.5 304.5t428.5 106 q230 0 377.5 -98.5t198.5 -293.5l-274 -71q-29 107 -111.5 169t-199.5 62q-242 0 -379.5 -168t-137.5 -457z"/>
<glyph glyph-name="uni04AB" unicode="ҫ" d="M536 173q83 0 137 52.5t86 155.5l271 -50q-92 -304 -403 -344v-68q0 -344 -327 -344q-47 0 -98.5 10t-77.5 25l28 142q22 -11 61 -20t79 -9q169 0 169 244v16q-190 13 -294 124.5t-104 297.5q0 195 79 366t210.5 251t327.5 80q189 0 302 -95.5t127 -265.5l-284 -23 q-11 191 -167 191q-107 0 -167.5 -73.5t-109.5 -260.5q-23 -115 -23 -168q0 -234 178 -234z"/>
<glyph glyph-name="uni04AC" horiz-adv-x="1251" unicode="Ҭ" d="M589 0h-219l230 1181h-455l44 228h1206l-44 -228h-456l-183 -937h175l-127 -652h-250z"/>
<glyph glyph-name="uni04AD" horiz-adv-x="1821" unicode="ҭ" d="M1322 892q-91 0 -158 -77t-93 -208l-119 -607h-279l123 635q17 91 17 136q0 121 -126 121q-88 0 -156.5 -75.5t-95.5 -212.5l-118 -604h-282l166 851q20 95 39 231h272q0 -11 -10.5 -77.5t-17.5 -107.5h3q77 116 151.5 160t176.5 44q124 0 196 -59.5t86 -172.5 q85 130 166.5 181t187.5 51q138 0 211.5 -73t73.5 -211q0 -64 -21 -164l-91 -463h143l-116 -598h-245l79 408h-177l122 627q18 90 18 144q-3 121 -126 121z"/>
<glyph glyph-name="uni04AE" unicode="Ү" d="M614 0h-294l111 575l-262 834h314l147 -569l371 569h314l-595 -858z"/>
<glyph glyph-name="uni04AF" unicode="ү" d="M523 -425h-301l83 425l-195 1082h289l72 -591q5 -35 22 -269q60 143 122 266l315 594h302l-626 -1082z"/>
<glyph glyph-name="uni04B0" unicode="Ұ" d="M124 762h255l-210 647h314l147 -569l371 569h314l-456 -647h270l-40 -214h-370l-105 -548h-294l105 548h-339z"/>
<glyph glyph-name="uni04B1" unicode="ұ" d="M606 0h308l-40 -214h-310l-41 -211h-301l41 211h-261l38 214h265l-195 1082h289l72 -591q5 -35 22 -269q76 180 122 266l315 594h302z"/>
<glyph glyph-name="uni04B2" horiz-adv-x="1366" unicode="Ҳ" d="M220 1409h309l224 -471l402 471h313l-600 -677l244 -488h189l-127 -652h-250l79 408h-75l-253 532l-455 -532h-314l652 736z"/>
<glyph glyph-name="uni04B3" unicode="ҳ" d="M778 0h-54l-186 383l-327 -383h-301l508 562l-279 520h292l173 -347l296 347h308l-483 -525l165 -313h186l-127 -652h-250z"/>
<glyph glyph-name="uni04B4" horiz-adv-x="1786" unicode="Ҵ" d="M178 1409h988l-44 -228h-340l-182 -937h569l226 1165h285l-226 -1165h195l-127 -652h-250l79 408h-1094l230 1181h-353z"/>
<glyph glyph-name="uni04B5" horiz-adv-x="1455" unicode="ҵ" d="M138 1082h711l-37 -190h-210l-80 -405q-26 -123 -26 -165q0 -129 152 -129q66 0 133.5 38t115 103t61.5 142l118 606h282l-174 -892h148l-116 -598h-245l79 408h-164l24 185h-3q-146 -204 -388 -204q-152 0 -229 73t-77 211q0 25 7 79.5t14 84.5l90 463h-223z"/>
<glyph glyph-name="uni04B6" horiz-adv-x="1450" unicode="Ҷ" d="M1112 0h-201l107 547q-148 -49 -241.5 -66t-182.5 -17q-207 0 -314.5 97.5t-107.5 284.5q0 64 16 146l81 417h284l-80 -414q-13 -75 -13 -117q0 -98 59 -146.5t184 -48.5q163 0 352 53l130 673h295l-227 -1165h157l-127 -652h-250z"/>
<glyph glyph-name="uni04B7" horiz-adv-x="1194" unicode="ҷ" d="M468 1082l-71 -353q-7 -45 -7 -76q0 -50 32.5 -81.5t97.5 -31.5q49 0 95.5 7t158.5 38l97 497h281l-174 -892h149l-116 -598h-245l79 408h-185l81 415q-189 -86 -353 -86q-124 0 -203 73.5t-79 197.5q0 55 9 98l73 384h280z"/>
<glyph glyph-name="uni04B8" horiz-adv-x="1450" unicode="Ҹ" d="M916 0l107 547q-129 -45 -226 -63l-53 -277h-196l49 257q-206 0 -313 97.5t-107 284.5q0 64 16 146l81 417h284l-80 -414q-13 -75 -13 -117q0 -84 42.5 -131t132.5 -60l77 403h196l-77 -399q111 13 224 45l130 673h295l-274 -1409h-295z"/>
<glyph glyph-name="uni04B9" horiz-adv-x="1194" unicode="ҹ" d="M468 1082l-71 -353q-7 -45 -7 -76q0 -45 26.5 -75.5t79.5 -36.5l53 267h125l-51 -260q48 8 151 37l97 497h281l-211 -1082h-281l81 415q-91 -40 -156 -59l-40 -203h-125l35 179l-67 -3q-124 0 -203 73.5t-79 197.5q0 55 9 98l73 384h280z"/>
<glyph glyph-name="uni04BA" horiz-adv-x="1450" unicode="Һ" d="M609 1409l-106 -547q152 51 249.5 67t186.5 16q383 0 383 -329q0 -68 -16 -152l-89 -464h-284l85 437q12 60 12 111q0 95 -58 136.5t-175 41.5q-142 0 -331 -53l-130 -673h-295l273 1409h295z"/>
<glyph glyph-name="uni04BB" horiz-adv-x="1251" unicode="һ" d="M601 1484l-79 -405l-39 -182h3q75 104 165.5 154t207.5 50q152 0 229 -73t77 -211q0 -25 -7 -79.5t-14 -84.5l-127 -653h-279l118 595q26 124 26 165q0 129 -152 129q-101 0 -187 -82t-108 -201l-118 -606h-282l286 1484h280z"/>
<glyph glyph-name="uni04BC" horiz-adv-x="1760" unicode="Ҽ" d="M1566 280q-102 -146 -256 -223t-377 -77q-185 0 -318.5 69.5t-206.5 211.5t-73 338h-14q-141 0 -217.5 63t-76.5 185q0 105 66 261l202 -31q-46 -93 -46 -169q1 -74 116 -77q77 284 280 441.5t492 157.5q172 0 297.5 -70.5t193 -201t67.5 -298.5q0 -51 -9.5 -125.5 t-24.5 -135.5h-1024q0 -191 86 -289.5t251 -98.5q225 0 374 200zM1391 831l4 58q-2 152 -76 233.5t-206 81.5q-176 0 -287 -95t-151 -278h716z"/>
<glyph glyph-name="uni04BD" horiz-adv-x="1328" unicode="ҽ" d="M553 476q-7 -38 -7 -89q0 -106 46.5 -162.5t137.5 -56.5q147 0 213 169l245 -74q-72 -157 -183.5 -220t-293.5 -63q-213 0 -333 115.5t-120 322.5l2 69q-266 11 -266 192q0 96 78 238l170 -48q-46 -78 -46 -127q0 -72 92 -79q55 209 201.5 324t351.5 115 q209 0 322.5 -107.5t113.5 -303.5q0 -99 -24 -215h-700zM1017 663l3 56q0 99 -46 152t-133 53q-96 0 -163 -68.5t-92 -192.5h431z"/>
<glyph glyph-name="uni04BE" horiz-adv-x="1760" unicode="Ҿ" d="M1566 280q-183 -260 -517 -294l-51 -257h-212l50 256q-241 27 -371 186.5t-130 427.5h-14q-141 0 -217.5 63t-76.5 185q0 105 66 261l202 -31q-46 -93 -46 -169q1 -74 116 -77q77 284 280 441.5t492 157.5q172 0 297.5 -70.5t193 -201t67.5 -298.5q0 -51 -9.5 -125.5 t-24.5 -135.5h-1024q0 -191 86 -289.5t251 -98.5q225 0 374 200zM1391 831l4 58q-2 152 -76 233.5t-206 81.5q-176 0 -287 -95t-151 -278h716z"/>
<glyph glyph-name="uni04BF" horiz-adv-x="1328" unicode="ҿ" d="M551 476q-7 -38 -7 -89q0 -106 46.5 -162.5t137.5 -56.5q147 0 213 169l245 -74q-63 -135 -150.5 -198t-221.5 -79l-51 -257h-212l51 260q-168 28 -257 141t-89 288l2 69q-266 11 -266 192q0 96 78 238l170 -48q-46 -78 -46 -127q0 -72 92 -79q55 209 201.5 324 t351.5 115q209 0 322.5 -107.5t113.5 -303.5q0 -99 -24 -215h-700zM1015 663l3 56q0 99 -46 152t-133 53q-96 0 -163 -68.5t-92 -192.5h431z"/>
<glyph glyph-name="uni04C0" horiz-adv-x="569" unicode="Ӏ" d="M36 0l273 1409h295l-274 -1409h-294z"/>
<glyph glyph-name="uni04C1" horiz-adv-x="1899" unicode="Ӂ" d="M695 0l118 605q-73 0 -114 29l-470 -634h-315l600 773q-29 32 -111 229l-172 407h290l125 -324q60 -157 103 -216t103 -59l116 599h274l-116 -599q48 0 105.5 51t193.5 224l255 324h310l-324 -407q-47 -60 -112.5 -131t-96.5 -91l303 -780h-306l-224 640 q-22 -12 -67.5 -23.5t-76.5 -11.5l-118 -605h-273zM1113 1497q-142 0 -234.5 64t-146.5 195l193 74q44 -103 97.5 -145.5t124.5 -42.5q183 0 274 204l112 -49q-60 -149 -166.5 -224.5t-253.5 -75.5z"/>
<glyph glyph-name="uni04C2" horiz-adv-x="1508" unicode="ӂ" d="M611 447q-64 0 -95 11l-312 -458h-296l438 571q-33 33 -72 134l-146 377h264l86 -257q26 -79 50.5 -124.5t49.5 -67.5t65 -25l92 474h252l-92 -474q43 2 68 19.5t59.5 58.5t101.5 135l185 261h285l-285 -388q-64 -85 -128 -130l212 -564h-277l-154 458q-33 -11 -99 -11 l-87 -447h-252zM855 1184q-142 0 -234.5 64t-146.5 195l193 74q44 -103 97.5 -145.5t124.5 -42.5q183 0 274 204l112 -49q-60 -149 -166.5 -224.5t-253.5 -75.5z"/>
<glyph glyph-name="uni04C3" horiz-adv-x="1350" unicode="Ӄ" d="M310 1409h295l-119 -598q30 0 55.5 10.5t59.5 38.5t81.5 81t385.5 468h308l-329 -415q-39 -50 -91 -100.5t-90 -77.5q200 -42 297 -167.5t97 -334.5q0 -218 -88.5 -386.5t-248.5 -260.5t-357 -92q-140 0 -248 28.5t-188 103.5l176 179q97 -92 265 -92q109 0 201 60 t145.5 169.5t53.5 263.5q0 158 -83 246.5t-236 88.5h-201l-121 -622h-294z"/>
<glyph glyph-name="uni04C4" horiz-adv-x="1193" unicode="ӄ" d="M528 1082l-90 -464q54 2 82.5 20.5t63.5 60.5t92 126l170 257h274l-270 -381q-23 -32 -39.5 -50.5t-53.5 -52.5q346 -79 346 -416q0 -278 -172 -442.5t-465 -164.5q-130 0 -232 39t-155 109l192 130q31 -32 87 -56.5t131 -24.5q165 0 253 106t88 302q0 125 -72.5 196 t-190.5 71h-162l-87 -447h-282l210 1082h282z"/>
<glyph glyph-name="uni04C5" horiz-adv-x="1407" unicode="Ӆ" d="M1110 1165h-407q-197 -590 -252 -729t-106 -228.5t-106 -138.5t-121 -68.5t-126 -16.5q-57 0 -115 17l48 247q28 -7 55 -7q42 0 75.5 35.5t72 116t91 222.5t271.5 794h952l-227 -1165h152l-357 -652h-250l242 408h-118z"/>
<glyph glyph-name="uni04C6" horiz-adv-x="1274" unicode="ӆ" d="M1064 191h133l-327 -599h-250l242 408h-117l174 892h-283q-131 -395 -190 -543t-111.5 -225t-113 -110.5t-154.5 -33.5q-38 0 -86 7t-63 11l36 186q33 -9 65 -9q43 0 72.5 26.5t61.5 89.5t79 189.5t206 601.5h800z"/>
<glyph glyph-name="uni04C7" horiz-adv-x="1479" unicode="Ӈ" d="M596 -425q-150 0 -258.5 30.5t-185.5 101.5l177 178q96 -91 264 -91q94 0 174.5 50t139.5 146.5t87 237.5l73 376h-614l-117 -604h-295l274 1409h295l-109 -561h614l109 561h295l-235 -1205q-60 -307 -237 -468t-451 -161z"/>
<glyph glyph-name="uni04C8" horiz-adv-x="1237" unicode="ӈ" d="M800 463h-387l-90 -463h-282l210 1082h282l-83 -428h387l83 428h282l-198 -1025q-47 -248 -194.5 -365t-419.5 -117q-279 0 -387 148l195 129q31 -32 82.5 -57.5t115.5 -25.5q148 0 224.5 83t112.5 266z"/>
<glyph glyph-name="uni04C9" horiz-adv-x="1479" unicode="Ӊ" d="M956 0l118 604h-626l-118 -604h-294l273 1409h295l-109 -561h626l109 561h284l-227 -1165h150l-357 -652h-250l242 408h-116z"/>
<glyph glyph-name="uni04CA" horiz-adv-x="1237" unicode="ӊ" d="M528 1082l-84 -428h387l84 428h282l-175 -891h133l-328 -599h-250l242 408h-115l90 463h-387l-90 -463h-282l211 1082h282z"/>
<glyph glyph-name="uni04CB" horiz-adv-x="1450" unicode="Ӌ" d="M1042 0l-79 -408h-250l127 652h123l60 303q-148 -49 -241.5 -66t-182.5 -17q-207 0 -314.5 97.5t-107.5 284.5q0 64 16 146l81 417h284l-80 -414q-13 -75 -13 -117q0 -98 59 -146.5t184 -48.5q163 0 352 53l130 673h295l-274 -1409h-169z"/>
<glyph glyph-name="uni04CC" horiz-adv-x="1194" unicode="ӌ" d="M468 1082l-71 -353q-7 -45 -7 -76q0 -50 32.5 -81.5t97.5 -31.5q49 0 95.5 7t158.5 38l97 497h281l-211 -1082h-162l-79 -408h-241l116 598h122l44 225q-189 -86 -353 -86q-124 0 -203 73.5t-79 197.5q0 55 9 98l73 384h280z"/>
<glyph glyph-name="uni04CD" horiz-adv-x="1706" unicode="Ӎ" d="M1515 244h150l-357 -652h-250l242 408h-94l172 884q20 102 45 205.5t28 114.5q-7 -17 -44 -98.5t-71 -153t-479 -952.5h-210l-94 819l-24 221l-16 164l-5 -43q-19 -173 -38 -274l-172 -887h-262l274 1409h395l88 -788l25 -276l26 57l103 214l402 793h393z"/>
<glyph glyph-name="uni04CE" horiz-adv-x="1515" unicode="ӎ" d="M1301 191h132l-327 -599h-250l242 408h-80l136 698q15 85 69 259l-461 -957h-213l-98 955q-7 -102 -34 -257l-136 -698h-246l211 1082h364l61 -561q19 -203 19 -308q25 66 68.5 160t342.5 709h374z"/>
<glyph glyph-name="uni04CF" horiz-adv-x="569" unicode="ӏ" d="M35 0l288 1484h281l-289 -1484h-280z"/>
<glyph glyph-name="uni04D0" horiz-adv-x="1479" unicode="Ӑ" d="M1039 0l-55 360h-537l-195 -360h-294l787 1409h348l238 -1409h-292zM876 1192q-21 -64 -98 -212l-212 -398h395l-67 452q-18 135 -18 158zM914 1520q-142 0 -227.5 81t-85.5 222h165q0 -75 45.5 -119.5t124.5 -44.5q78 0 131 38t80 126h164q-42 -153 -139 -228t-258 -75z "/>
<glyph glyph-name="uni04D1" unicode="ӑ" d="M892 -10q-100 0 -154 42t-54 111q0 37 5 64h-6q-84 -130 -166 -178.5t-200 -48.5q-140 0 -223.5 83.5t-83.5 214.5q0 185 127.5 279.5t413.5 99.5l191 3q21 95 21 131q0 128 -127 128q-94 0 -140 -36.5t-63 -105.5l-263 31q34 144 153.5 219t317.5 75q207 0 303.5 -73 t96.5 -222q0 -37 -24 -157l-71 -353q-8 -45 -8 -72q0 -24 10 -37t23 -19t26 -7.5t20 -1.5q30 0 62 7l-14 -155q-42 -16 -85 -19t-88 -3zM711 503h-162q-117 -2 -184.5 -48t-67.5 -130q0 -70 39.5 -109.5t106.5 -39.5q83 0 151 64.5t95 170.5zM684 1183q-140 0 -226.5 78.5 t-86.5 206.5l2 38h163q0 -74 45.5 -120t118.5 -46q78 0 135.5 43.5t81.5 122.5h164q-43 -164 -140 -243.5t-257 -79.5z"/>
<glyph glyph-name="uni04D2" horiz-adv-x="1479" unicode="Ӓ" d="M1039 0l-55 360h-537l-195 -360h-294l787 1409h348l238 -1409h-292zM876 1192q-21 -64 -98 -212l-212 -398h395l-67 452q-18 135 -18 158zM1033 1530l43 219h217l-43 -219h-217zM600 1530l42 219h214l-43 -219h-213z"/>
<glyph glyph-name="uni04D3" unicode="ӓ" d="M892 -10q-100 0 -154 42t-54 111q0 37 5 64h-6q-84 -130 -166 -178.5t-200 -48.5q-140 0 -223.5 83.5t-83.5 214.5q0 185 127.5 279.5t413.5 99.5l191 3q21 95 21 131q0 128 -127 128q-94 0 -140 -36.5t-63 -105.5l-263 31q34 144 153.5 219t317.5 75q207 0 303.5 -73 t96.5 -222q0 -37 -24 -157l-71 -353q-8 -45 -8 -72q0 -24 10 -37t23 -19t26 -7.5t20 -1.5q30 0 62 7l-14 -155q-42 -16 -85 -19t-88 -3zM711 503h-162q-117 -2 -184.5 -48t-67.5 -130q0 -70 39.5 -109.5t106.5 -39.5q83 0 151 64.5t95 170.5zM777 1199l43 219h217l-43 -219 h-217zM344 1199l42 219h214l-43 -219h-213z"/>
<glyph glyph-name="uni04D4" horiz-adv-x="2048" unicode="Ӕ" d="M837 0l70 360h-450l-242 -360h-312l965 1409h1231l-45 -227h-701l-69 -355h639l-43 -221h-639l-73 -379h742l-44 -227h-1029zM1068 1192h-61l-136 -209l-269 -401h348z"/>
<glyph glyph-name="uni04D5" horiz-adv-x="1821" unicode="ӕ" d="M1027 476q-7 -38 -7 -89q0 -106 46.5 -162.5t137.5 -56.5q147 0 213 169l245 -74q-75 -159 -186 -221t-291 -62q-297 0 -394 219q-51 -80 -113.5 -127.5t-136 -69.5t-192.5 -22q-140 0 -223.5 83.5t-83.5 214.5q0 382 541 382h191q21 95 21 131q0 128 -127 128 q-94 0 -140 -36.5t-63 -105.5l-263 31q34 144 153.5 219t317.5 75q207 0 300 -113q140 113 342 113q209 0 322.5 -107.5t113.5 -303.5q0 -99 -24 -215h-700zM743 500h-161q-113 0 -177 -46t-64 -129q0 -72 34.5 -110.5t99.5 -38.5q83 0 151 64.5t95 170.5zM1491 663l3 56 q0 107 -49.5 156t-129.5 49q-96 0 -161.5 -66.5t-93.5 -194.5h431z"/>
<glyph glyph-name="uni04D6" horiz-adv-x="1366" unicode="Ӗ" d="M36 0l273 1409h1108l-44 -228h-813l-69 -354h752l-44 -228h-752l-72 -371h854l-45 -228h-1148zM875 1520q-142 0 -227.5 81t-85.5 222h165q0 -75 45.5 -119.5t124.5 -44.5q78 0 131 38t80 126h164q-42 -153 -139 -228t-258 -75z"/>
<glyph glyph-name="uni04D7" unicode="ӗ" d="M358 476q-7 -38 -7 -89q0 -106 46.5 -162.5t137.5 -56.5q147 0 213 169l245 -74q-75 -159 -186 -221t-291 -62q-213 0 -333 115.5t-120 322.5t72 362.5t204.5 238.5t306.5 83q209 0 322.5 -107.5t113.5 -303.5q0 -99 -24 -215h-700zM822 663l3 56q0 107 -49.5 156 t-129.5 49q-96 0 -161.5 -66.5t-93.5 -194.5h431zM672 1183q-140 0 -226.5 78.5t-86.5 206.5l2 38h163q0 -74 45.5 -120t118.5 -46q78 0 135.5 43.5t81.5 122.5h164q-43 -164 -140 -243.5t-257 -79.5z"/>
<glyph glyph-name="uni018F" horiz-adv-x="1531" unicode="Ә" d="M700 206q152 0 261.5 107t157.5 300h-710q-7 -44 -7 -93q0 -145 78.5 -229.5t219.5 -84.5zM265 1070q87 188 233.5 274t374.5 86q270 0 432 -159.5t162 -433.5q0 -244 -107.5 -441t-295.5 -306.5t-421 -109.5q-162 0 -283 72.5t-187 203t-66 289.5q0 152 48 303h1006 l2 55q0 129 -83 213t-211 84q-84 0 -142 -18.5t-102.5 -57t-100.5 -127.5z"/>
<glyph glyph-name="uni0259" unicode="ә" d="M787 606q7 39 7 89q0 106 -46.5 162.5t-137.5 56.5q-147 0 -213 -169l-245 74q75 159 186 221t291 62q213 0 333 -115.5t120 -322.5t-72 -362.5t-204.5 -238.5t-306.5 -83q-209 0 -322.5 107.5t-113.5 303.5q0 99 24 215h700zM323 419l-3 -56q0 -107 49.5 -156t129.5 -49 q96 0 161.5 66.5t93.5 194.5h-431z"/>
<glyph glyph-name="uni04DA" horiz-adv-x="1531" unicode="Ӛ" d="M700 206q152 0 261.5 107t157.5 300h-710q-7 -44 -7 -93q0 -145 78.5 -229.5t219.5 -84.5zM265 1070q87 188 233.5 274t374.5 86q270 0 432 -159.5t162 -433.5q0 -244 -107.5 -441t-295.5 -306.5t-421 -109.5q-162 0 -283 72.5t-187 203t-66 289.5q0 152 48 303h1006 l2 55q0 129 -83 213t-211 84q-84 0 -142 -18.5t-102.5 -57t-100.5 -127.5zM993 1530l43 219h217l-43 -219h-217zM560 1530l42 219h214l-43 -219h-213z"/>
<glyph glyph-name="uni04DB" unicode="ӛ" d="M787 606q7 39 7 89q0 106 -46.5 162.5t-137.5 56.5q-147 0 -213 -169l-245 74q75 159 186 221t291 62q213 0 333 -115.5t120 -322.5t-72 -362.5t-204.5 -238.5t-306.5 -83q-209 0 -322.5 107.5t-113.5 303.5q0 99 24 215h700zM323 419l-3 -56q0 -107 49.5 -156t129.5 -49 q96 0 161.5 66.5t93.5 194.5h-431zM761 1199l43 219h217l-43 -219h-217zM328 1199l42 219h214l-43 -219h-213z"/>
<glyph glyph-name="uni04DC" horiz-adv-x="1899" unicode="Ӝ" d="M695 0l118 605q-73 0 -114 29l-470 -634h-315l600 773q-29 32 -111 229l-172 407h290l125 -324q60 -157 103 -216t103 -59l116 599h274l-116 -599q48 0 105.5 51t193.5 224l255 324h310l-324 -407q-47 -60 -112.5 -131t-96.5 -91l303 -780h-306l-224 640 q-22 -12 -67.5 -23.5t-76.5 -11.5l-118 -605h-273zM1214 1530l43 219h217l-43 -219h-217zM781 1530l42 219h214l-43 -219h-213z"/>
<glyph glyph-name="uni04DD" horiz-adv-x="1508" unicode="ӝ" d="M611 447q-64 0 -95 11l-312 -458h-296l438 571q-33 33 -72 134l-146 377h264l86 -257q26 -79 50.5 -124.5t49.5 -67.5t65 -25l92 474h252l-92 -474q43 2 68 19.5t59.5 58.5t101.5 135l185 261h285l-285 -388q-64 -85 -128 -130l212 -564h-277l-154 458q-33 -11 -99 -11 l-87 -447h-252zM989 1199l43 219h217l-43 -219h-217zM556 1199l42 219h214l-43 -219h-213z"/>
<glyph glyph-name="uni04DE" horiz-adv-x="1316" unicode="Ӟ" d="M589 -20q-223 0 -361 93t-201 295l269 91q41 -131 119.5 -191t198.5 -60q138 0 209 55.5t71 160.5q0 82 -72.5 130t-223.5 48h-59l45 227h59q337 0 337 221q0 73 -52 117.5t-147 44.5q-229 0 -328 -230l-256 75q77 193 224 282.5t384 89.5q215 0 341 -91.5t126 -246.5 q0 -152 -89 -246t-260 -126q116 -17 188 -99t72 -201q0 -211 -155.5 -325t-438.5 -114zM933 1530l43 219h217l-43 -219h-217zM500 1530l42 219h214l-43 -219h-213z"/>
<glyph glyph-name="uni04DF" horiz-adv-x="1045" unicode="ӟ" d="M448 -20q-186 0 -297 80t-140 229l252 44q35 -164 200 -164q89 0 136 39.5t47 113.5q0 81 -68 115t-193 34l28 177q173 0 245 39.5t72 120.5q0 57 -42.5 86t-113.5 29q-156 0 -196 -144l-232 20q83 303 459 303q180 0 289 -71t109 -188q0 -78 -41 -140.5t-109 -99.5 t-152 -46v-4q109 -17 170.5 -80t61.5 -160q0 -155 -129 -244t-356 -89zM734 1199l43 219h217l-43 -219h-217zM301 1199l42 219h214l-43 -219h-213z"/>
<glyph glyph-name="uni04E0" horiz-adv-x="1251" unicode="Ӡ" d="M284 1409h1014l-38 -197l-371 -326q124 -29 197.5 -127t73.5 -237q0 -251 -168.5 -396.5t-457.5 -145.5q-151 0 -259.5 43t-179.5 123t-117 222l268 91q44 -133 121 -192t199 -59q136 0 217 68.5t81 182.5q0 106 -77 169.5t-206 63.5h-59l34 177l341 309h-658z"/>
<glyph glyph-name="uni04E1" horiz-adv-x="1078" unicode="ӡ" d="M393 -232q120 0 192.5 83t72.5 224q0 98 -32.5 157t-99 85t-188.5 26h-81l37 189l407 347h-568l39 203h902l-38 -195l-434 -365q165 -26 256 -140t91 -296q0 -145 -69.5 -263t-196 -183t-287.5 -65q-433 0 -497 353l272 41q27 -201 222 -201z"/>
<glyph glyph-name="uni04E2" horiz-adv-x="1473" unicode="Ӣ" d="M36 0l273 1409h262l-159 -819q-23 -117 -61 -275l825 1094h332l-274 -1409h-262l162 831l36 166l21 88l-820 -1085h-335zM1209 1525h-586l33 168h590z"/>
<glyph glyph-name="uni04E3" horiz-adv-x="1251" unicode="ӣ" d="M512 1082l-118 -595q-26 -123 -26 -165q0 -129 152 -129q101 0 186.5 81t108.5 202l118 606h282l-166 -851q-16 -79 -38 -231h-268q0 9 9.5 84t14.5 101h-3q-76 -107 -166.5 -155.5t-206.5 -48.5q-152 0 -229 73t-77 211q0 25 7 80.5t14 83.5l127 653h279zM1016 1203 h-586l33 168h590z"/>
<glyph glyph-name="uni04E4" horiz-adv-x="1473" unicode="Ӥ" d="M36 0l273 1409h262l-159 -819q-23 -117 -61 -275l825 1094h332l-274 -1409h-262l162 831l36 166l21 88l-820 -1085h-335zM1048 1530l43 219h217l-43 -219h-217zM615 1530l42 219h214l-43 -219h-213z"/>
<glyph glyph-name="uni04E5" horiz-adv-x="1251" unicode="ӥ" d="M512 1082l-118 -595q-26 -123 -26 -165q0 -129 152 -129q101 0 186.5 81t108.5 202l118 606h282l-166 -851q-16 -79 -38 -231h-268q0 9 9.5 84t14.5 101h-3q-76 -107 -166.5 -155.5t-206.5 -48.5q-152 0 -229 73t-77 211q0 25 7 80.5t14 83.5l127 653h279zM838 1199 l43 219h217l-43 -219h-217zM405 1199l42 219h214l-43 -219h-213z"/>
<glyph glyph-name="uni04E6" horiz-adv-x="1593" unicode="Ӧ" d="M928 1430q293 0 462 -155.5t169 -423.5q0 -247 -105.5 -450.5t-294.5 -312t-432 -108.5q-193 0 -335.5 72t-217 206.5t-74.5 314.5q0 235 105.5 438.5t292.5 311t430 107.5zM914 1197q-162 0 -276 -75t-176 -226t-62 -315q0 -184 90 -276.5t251 -92.5t275 75t176.5 223 t62.5 317q0 176 -87.5 273t-253.5 97zM1056 1530l43 219h217l-43 -219h-217zM623 1530l42 219h214l-43 -219h-213z"/>
<glyph glyph-name="uni04E7" horiz-adv-x="1251" unicode="ӧ" d="M1185 683q0 -207 -81.5 -368t-231 -248t-337.5 -87q-218 0 -345 117.5t-127 321.5q0 201 79.5 356t226.5 240.5t335 85.5q235 0 358 -109.5t123 -308.5zM891 662q0 247 -208 247q-114 0 -181.5 -60t-105.5 -182.5t-38 -235.5q0 -259 208 -259q112 0 177.5 56.5t103 171.5 t44.5 262zM846 1199l43 219h217l-43 -219h-217zM413 1199l42 219h214l-43 -219h-213z"/>
<glyph glyph-name="uni04E8" horiz-adv-x="1593" unicode="Ө" d="M928 1430q293 0 462 -155.5t169 -423.5q0 -246 -105 -449t-294.5 -312.5t-432.5 -109.5q-193 0 -335.5 72t-217 206.5t-74.5 314.5q0 235 105.5 438.5t292.5 311t430 107.5zM741 212q372 0 483 390h-824v-21q0 -185 90 -277t251 -92zM914 1197q-360 0 -474 -362h815 q-2 173 -90.5 267.5t-250.5 94.5z"/>
<glyph glyph-name="uni04E9" horiz-adv-x="1251" unicode="ө" d="M1185 683q0 -207 -81.5 -368t-231 -248t-337.5 -87q-218 0 -345 117t-127 322q0 201 79.5 356t227 240.5t334.5 85.5q233 0 357 -109.5t124 -308.5zM566 172q85 0 137 28.5t91.5 89t65.5 159.5h-502v-18q0 -259 208 -259zM892 684q0 109 -54 167t-155 58 q-121 0 -190 -68.5t-107 -205.5h504z"/>
<glyph glyph-name="uni04EA" horiz-adv-x="1593" unicode="Ӫ" d="M928 1430q293 0 462 -155.5t169 -423.5q0 -246 -105 -449t-294.5 -312.5t-432.5 -109.5q-193 0 -335.5 72t-217 206.5t-74.5 314.5q0 235 105.5 438.5t292.5 311t430 107.5zM741 212q372 0 483 390h-824v-21q0 -185 90 -277t251 -92zM914 1197q-360 0 -474 -362h815 q-2 173 -90.5 267.5t-250.5 94.5zM1051 1530l43 219h217l-43 -219h-217zM618 1530l42 219h214l-43 -219h-213z"/>
<glyph glyph-name="uni04EB" horiz-adv-x="1251" unicode="ӫ" d="M1185 683q0 -207 -81.5 -368t-231 -248t-337.5 -87q-218 0 -345 117t-127 322q0 201 79.5 356t227 240.5t334.5 85.5q233 0 357 -109.5t124 -308.5zM566 172q85 0 137 28.5t91.5 89t65.5 159.5h-502v-18q0 -259 208 -259zM892 684q0 109 -54 167t-155 58 q-121 0 -190 -68.5t-107 -205.5h504zM828 1199l43 219h217l-43 -219h-217zM395 1199l42 219h214l-43 -219h-213z"/>
<glyph glyph-name="uni04EC" horiz-adv-x="1472" unicode="Ӭ" d="M846 1430q283 0 438 -149t155 -414q0 -259 -100.5 -462t-286.5 -314t-429 -111q-224 0 -369 98.5t-212 305.5l260 95q52 -142 134.5 -204.5t205.5 -62.5q370 0 465 389h-559l45 228h546q5 30 5 62q0 147 -86.5 227t-248.5 80q-137 0 -239.5 -62.5t-147.5 -168.5l-241 71 q174 392 665 392zM964 1530l43 219h217l-43 -219h-217zM531 1530l42 219h214l-43 -219h-213z"/>
<glyph glyph-name="uni04ED" horiz-adv-x="1130" unicode="ӭ" d="M617 1101q217 0 333 -108.5t116 -307.5q0 -202 -75.5 -368.5t-206.5 -251.5t-307 -85q-193 0 -314 94t-147 263l284 26q15 -93 65 -142t126 -49q105 0 165.5 68t84.5 213h-316l37 190h310l5 66q0 204 -173 204q-81 0 -136.5 -41.5t-76.5 -126.5l-284 26q43 152 177 241 t333 89zM753 1199l43 219h217l-43 -219h-217zM320 1199l42 219h214l-43 -219h-213z"/>
<glyph glyph-name="uni04EE" horiz-adv-x="1387" unicode="Ӯ" d="M293 -20q-131 0 -238 76l118 230q79 -42 142 -42q50 0 92 20t82.5 62.5t110.5 150.5l-375 932h297l256 -680l430 680h309l-737 -1091q-133 -198 -238 -268t-249 -70zM1176 1527h-586l33 168h590z"/>
<glyph glyph-name="uni04EF" unicode="ӯ" d="M88 -425q-97 0 -173 18l38 196q40 -9 87 -9q78 0 137.5 46t118.5 150l28 48l-212 1058h291l71 -497q6 -31 21.5 -178t13.5 -156l17 37l139 293l259 501h300l-654 -1139q-107 -167 -174.5 -235t-141 -100.5t-166.5 -32.5zM956 1203h-586l33 168h590z"/>
<glyph glyph-name="uni04F0" horiz-adv-x="1387" unicode="Ӱ" d="M293 -20q-131 0 -238 76l118 230q79 -42 142 -42q50 0 92 20t82.5 62.5t110.5 150.5l-375 932h297l256 -680l430 680h309l-737 -1091q-133 -198 -238 -268t-249 -70zM983 1530l43 219h217l-43 -219h-217zM550 1530l42 219h214l-43 -219h-213z"/>
<glyph glyph-name="uni04F1" unicode="ӱ" d="M88 -425q-97 0 -173 18l38 196q40 -9 87 -9q78 0 137.5 46t118.5 150l28 48l-212 1058h291l71 -497q6 -31 21.5 -178t13.5 -156l17 37l139 293l259 501h300l-654 -1139q-107 -167 -174.5 -235t-141 -100.5t-166.5 -32.5zM788 1199l43 219h217l-43 -219h-217zM355 1199 l42 219h214l-43 -219h-213z"/>
<glyph glyph-name="uni04F2" horiz-adv-x="1387" unicode="Ӳ" d="M293 -20q-131 0 -238 76l118 230q79 -42 142 -42q50 0 92 20t82.5 62.5t110.5 150.5l-375 932h297l256 -680l430 680h309l-737 -1091q-133 -198 -238 -268t-249 -70zM548 1515l10 31l257 288h261l-10 -43l-372 -276h-146zM953 1515l10 31l257 288h261l-10 -43l-372 -276 h-146z"/>
<glyph glyph-name="uni04F3" unicode="ӳ" d="M88 -425q-97 0 -173 18l38 196q40 -9 87 -9q78 0 137.5 46t118.5 150l28 48l-212 1058h291l71 -497q6 -31 21.5 -178t13.5 -156l17 37l139 293l259 501h300l-654 -1139q-107 -167 -174.5 -235t-141 -100.5t-166.5 -32.5zM334 1183l10 31l257 288h261l-10 -43l-372 -276 h-146zM739 1183l10 31l257 288h261l-10 -43l-372 -276h-146z"/>
<glyph glyph-name="uni04F4" horiz-adv-x="1450" unicode="Ӵ" d="M916 0l107 547q-148 -49 -241.5 -66t-182.5 -17q-207 0 -314.5 97.5t-107.5 284.5q0 64 16 146l81 417h284l-80 -414q-13 -75 -13 -117q0 -98 59 -146.5t184 -48.5q163 0 352 53l130 673h295l-274 -1409h-295zM1008 1530l43 219h217l-43 -219h-217zM575 1530l42 219h214 l-43 -219h-213z"/>
<glyph glyph-name="uni04F5" horiz-adv-x="1194" unicode="ӵ" d="M468 1082l-71 -353q-7 -45 -7 -76q0 -50 32.5 -81.5t97.5 -31.5q49 0 95.5 7t158.5 38l97 497h281l-211 -1082h-281l81 415q-189 -86 -353 -86q-124 0 -203 73.5t-79 197.5q0 55 9 98l73 384h280zM789 1199l43 219h217l-43 -219h-217zM356 1199l42 219h214l-43 -219h-213 z"/>
<glyph glyph-name="uni04F6" horiz-adv-x="1257" unicode="Ӷ" d="M1333 1409l-44 -228h-729l-182 -937h153l-127 -652h-250l80 409h-198l273 1408h1024z"/>
<glyph glyph-name="uni04F7" horiz-adv-x="961" unicode="ӷ" d="M202 0h-168l210 1082h731l-37 -190h-449l-136 -702h127l-116 -598h-241z"/>
<glyph glyph-name="uni04F8" horiz-adv-x="2048" unicode="Ӹ" d="M1514 0l274 1409h295l-274 -1409h-295zM869 848q232 0 366.5 -103.5t134.5 -282.5q0 -221 -162 -341.5t-452 -120.5h-720l273 1409h295l-109 -561h374zM375 230h391q145 0 222.5 55t77.5 156q0 89 -62 134.5t-199 45.5h-354zM1298 1530l43 219h217l-43 -219h-217z M865 1530l42 219h214l-43 -219h-213z"/>
<glyph glyph-name="uni04F9" horiz-adv-x="1749" unicode="ӹ" d="M1221 0l211 1082h281l-211 -1082h-281zM526 1082l-85 -435h191q237 0 350.5 -76t113.5 -232q0 -176 -143.5 -267.5t-418.5 -91.5q-260 0 -496 41l206 1061h282zM348 169q64 -16 197 -16q260 0 260 176q0 72 -52 109t-169 37h-176zM1064 1199l43 219h217l-43 -219h-217z M631 1199l42 219h214l-43 -219h-213z"/>
<glyph glyph-name="uni04FA" horiz-adv-x="1257" unicode="Ӻ" d="M109 824h137l114 585h984l-45 -228h-689l-69 -357h315l-39 -200h-315l-102 -524h111l-34 -177q-34 -177 -130 -262.5t-260 -85.5q-46 0 -101.5 5.5t-85.5 11.5l40 206q55 -12 102 -12q137 0 163 125l17 90h-136l121 623h-137z"/>
<glyph glyph-name="uni04FB" horiz-adv-x="961" unicode="ӻ" d="M951 1082l-37 -190h-373l-54 -278h189l-37 -191h-189l-63 -323h85l-34 -177q-36 -185 -118 -266.5t-239 -81.5q-49 0 -108 6t-80 11l36 186q55 -12 102 -12q130 0 153 125l22 109h-120l82 423h-127l37 191h127l91 468h655z"/>
<glyph glyph-name="uni04FC" horiz-adv-x="1366" unicode="Ӽ" d="M220 1409h309l224 -471l402 471h313l-600 -677l317 -617q58 -112 58 -195q0 -158 -102.5 -251.5t-274.5 -93.5q-55 0 -115.5 5.5t-86.5 11.5l41 211q55 -12 102 -12q81 0 115 29t34 93q0 40 -22 87l-259 532l-455 -532h-314l652 736z"/>
<glyph glyph-name="uni04FD" unicode="ӽ" d="M1030 -105q0 -151 -98.5 -235.5t-278.5 -84.5q-55 0 -115.5 5.5t-86.5 11.5l41 211q55 -12 102 -12q83 0 117.5 30t34.5 92q0 40 -22 87l-186 383l-327 -383h-301l508 562l-279 520h292l173 -347l296 347h308l-483 -525l205 -388q60 -116 80 -175t20 -99z"/>
<glyph glyph-name="uni04FE" horiz-adv-x="1366" unicode="Ӿ" d="M160 832h350l-290 577h309l224 -471l402 471h313l-512 -577h337l-39 -203h-335l316 -629h-307l-253 532l-455 -532h-314l557 629h-342z"/>
<glyph glyph-name="acute" horiz-adv-x="682" d="M255 1183l6 31l247 288h277l-8 -43l-376 -276h-146z"/>
<glyph glyph-name="dieresis" horiz-adv-x="682" d="M568 1199l43 219h217l-43 -219h-217zM135 1199l42 219h214l-43 -219h-213z"/>
<glyph glyph-name="AE" horiz-adv-x="2048" d="M837 0l70 360h-450l-242 -360h-312l965 1409h1231l-45 -227h-701l-69 -355h639l-43 -221h-639l-73 -379h742l-44 -227h-1029zM1068 1192h-61l-136 -209l-269 -401h348z"/>
<glyph glyph-name="ae" horiz-adv-x="1821" d="M1027 476q-7 -38 -7 -89q0 -106 46.5 -162.5t137.5 -56.5q147 0 213 169l245 -74q-75 -159 -186 -221t-291 -62q-297 0 -394 219q-51 -80 -113.5 -127.5t-136 -69.5t-192.5 -22q-140 0 -223.5 83.5t-83.5 214.5q0 382 541 382h191q21 95 21 131q0 128 -127 128 q-94 0 -140 -36.5t-63 -105.5l-263 31q34 144 153.5 219t317.5 75q207 0 300 -113q140 113 342 113q209 0 322.5 -107.5t113.5 -303.5q0 -99 -24 -215h-700zM743 500h-161q-113 0 -177 -46t-64 -129q0 -72 34.5 -110.5t99.5 -38.5q83 0 151 64.5t95 170.5zM1491 663l3 56 q0 107 -49.5 156t-129.5 49q-96 0 -161.5 -66.5t-93.5 -194.5h431z"/>
<glyph glyph-name="dotlessi" horiz-adv-x="569" d="M35 0l210 1082h281l-211 -1082h-280z"/>
<glyph glyph-name="macron" horiz-adv-x="682" d="M753 1203h-586l33 168h590z"/>
<glyph glyph-name="breve" horiz-adv-x="682" d="M470 1183q-140 0 -226.5 78.5t-86.5 206.5l2 38h163q0 -74 45.5 -120t118.5 -46q78 0 135.5 43.5t81.5 122.5h164q-43 -164 -140 -243.5t-257 -79.5z"/>
<glyph glyph-name="hungarumlaut" horiz-adv-x="682" d="M58 1183l10 31l257 288h261l-10 -43l-372 -276h-146zM463 1183l10 31l257 288h261l-10 -43l-372 -276h-146z"/>
<glyph glyph-name="hbar" horiz-adv-x="1251" d="M601 1484l-27 -139h313l-33 -170h-314q-35 -183 -65 -318h3q75 104 165.5 154t207.5 50q152 0 229 -73t77 -211q0 -25 -7 -79.5t-14 -84.5l-119 -613h-279l110 555q26 124 26 165q0 129 -152 129q-101 0 -187 -82t-108 -201l-110 -566h-282l226 1175h-137l33 170h137 l27 139h280z"/>
<glyph glyph-name="breve.cyr" horiz-adv-x="682" d="M411 1184q-142 0 -234.5 64t-146.5 195l193 74q44 -103 97.5 -145.5t124.5 -42.5q183 0 274 204l112 -49q-60 -149 -166.5 -224.5t-253.5 -75.5z"/>
<glyph glyph-name="grave.uc" horiz-adv-x="682" d="M605 1530l-304 235l9 43h238l203 -247l-7 -31h-139z"/>
<glyph glyph-name="acute.uc" horiz-adv-x="682" d="M277 1530l7 31l270 247h267l-9 -43l-386 -235h-149z"/>
<glyph glyph-name="breve.uc" horiz-adv-x="682" d="M470 1520q-142 0 -227.5 81t-85.5 222h165q0 -75 45.5 -119.5t124.5 -44.5q78 0 131 38t80 126h164q-42 -153 -139 -228t-258 -75z"/>
<glyph glyph-name="uni0292" horiz-adv-x="1078" d="M393 -232q120 0 192.5 83t72.5 224q0 98 -32.5 157t-99 85t-188.5 26h-81l37 189l407 347h-568l39 203h902l-38 -195l-434 -365q165 -26 256 -140t91 -296q0 -145 -69.5 -263t-196 -183t-287.5 -65q-433 0 -497 353l272 41q27 -201 222 -201z"/>
<glyph glyph-name="uni030F" horiz-adv-x="0" d="M516 1183l-307 276l9 43h256l197 -288l-8 -31h-147zM111 1183l-307 276l9 43h256l197 -288l-8 -31h-147z"/>
<glyph glyph-name="cyrillic_otmark" horiz-adv-x="0" d="M587 1375l-90 -215h-39l-47 111h-214l-47 -111h-40l-47 111h-214l-47 -111h-39l-90 215h914z"/>
</font>
</defs>
</svg>
