<?xml version="1.0" encoding="utf-8"?><svg xmlns="http://www.w3.org/2000/svg" xmlns:xlink="http://www.w3.org/1999/xlink"><symbol viewBox="0 0 9 7" id="arrow"><path fill-rule="evenodd" d="M.375 3.9H7.15L4.644 6.356a.375.375 0 0 0 .526.536L8.322 3.8a.374.374 0 0 0 .002-.533L5.167.11a.374.374 0 0 0-.53 0 .375.375 0 0 0 0 .53l2.509 2.51H.376a.375.375 0 0 0 0 .75"/></symbol><symbol viewBox="0 0 11 6" id="arrow-d"><path fill-rule="evenodd" d="M10.5 1.085c-.01.215-.11.364-.258.493l-2.218 1.95c-.65.571-1.296 1.145-1.95 1.712-.104.09-.232.17-.365.219-.295.106-.538-.005-.747-.187l-1.799-1.58c-.795-.7-1.592-1.396-2.382-2.099A1.224 1.224 0 0 1 .54 1.27C.42 1.052.593.742.792.616a.75.75 0 0 1 .786-.01c.068.04.128.09.186.141L5.37 3.916c.129.113.131.114.257.004L9.08.884c.103-.09.206-.183.32-.261.378-.258.944-.083 1.064.325.015.053.027.108.035.137"/></symbol><symbol viewBox="0 0 11 20" id="arrow-l"><path d="M10.146 0a.854.854 0 0 1 .608 1.454L2.341 10l8.413 8.547a.854.854 0 0 1-1.216 1.199L.534 10.599a.854.854 0 0 1 0-1.198L9.538.255A.851.851 0 0 1 10.146 0" fill-rule="evenodd"/></symbol><symbol viewBox="0 0 11 20" id="arrow-r"><path fill-rule="evenodd" d="M.854 20a.854.854 0 0 1-.608-1.454L8.659 10 .246 1.453A.854.854 0 0 1 1.462.254l9.004 9.147a.854.854 0 0 1 0 1.198l-9.004 9.146A.851.851 0 0 1 .854 20"/></symbol><symbol viewBox="0 0 482.6 482.6" id="call"><path d="M98.339 320.8c47.6 56.9 104.9 101.7 170.3 133.4 24.9 11.8 58.2 25.8 95.3 28.2 2.3.1 4.5.2 6.8.2 24.9 0 44.9-8.6 61.2-26.3.1-.1.3-.3.4-.5 5.8-7 12.4-13.3 19.3-20 4.7-4.5 9.5-9.2 14.1-14 21.3-22.2 21.3-50.4-.2-71.9l-60.1-60.1c-10.2-10.6-22.4-16.2-35.2-16.2-12.8 0-25.1 5.6-35.6 16.1l-35.8 35.8c-3.3-1.9-6.7-3.6-9.9-5.2-4-2-7.7-3.9-11-6-32.6-20.7-62.2-47.7-90.5-82.4-14.3-18.1-23.9-33.3-30.6-48.8 9.4-8.5 18.2-17.4 26.7-26.1 3-3.1 6.1-6.2 9.2-9.3 10.8-10.8 16.6-23.3 16.6-36s-5.7-25.2-16.6-36l-29.8-29.8c-3.5-3.5-6.8-6.9-10.2-10.4-6.6-6.8-13.5-13.8-20.3-20.1-10.3-10.1-22.4-15.4-35.2-15.4-12.7 0-24.9 5.3-35.6 15.5l-37.4 37.4c-13.6 13.6-21.3 30.1-22.9 49.2-1.9 23.9 2.5 49.3 13.9 80 17.5 47.5 43.9 91.6 83.1 138.7zm-72.6-216.6c1.2-13.3 6.3-24.4 15.9-34l37.2-37.2c5.8-5.6 12.2-8.5 18.4-8.5 6.1 0 12.3 2.9 18 8.7 6.7 6.2 13 12.7 19.8 19.6 3.4 3.5 6.9 7 10.4 10.6l29.8 29.8c6.2 6.2 9.4 12.5 9.4 18.7s-3.2 12.5-9.4 18.7c-3.1 3.1-6.2 6.3-9.3 9.4-9.3 9.4-18 18.3-27.6 26.8l-.5.5c-8.3 8.3-7 16.2-5 22.2.1.3.2.5.3.8 7.7 18.5 18.4 36.1 35.1 57.1 30 37 61.6 65.7 96.4 87.8 4.3 2.8 8.9 5 13.2 7.2 4 2 7.7 3.9 11 6 .4.2.7.4 1.1.6 3.3 1.7 6.5 2.5 9.7 2.5 8 0 13.2-5.1 14.9-6.8l37.4-37.4c5.8-5.8 12.1-8.9 18.3-8.9 7.6 0 13.8 4.7 17.7 8.9l60.3 60.2c12 12 11.9 25-.3 37.7-4.2 4.5-8.6 8.8-13.3 13.3-7 6.8-14.3 13.8-20.9 21.7-11.5 12.4-25.2 18.2-42.9 18.2-1.7 0-3.5-.1-5.2-.2-32.8-2.1-63.3-14.9-86.2-25.8-62.2-30.1-116.8-72.8-162.1-127-37.3-44.9-62.4-86.7-79-131.5-10.3-27.5-14.2-49.6-12.6-69.7z"/></symbol><symbol viewBox="0 0 241.171 241.171" id="cancel"><path d="M138.138 120.754l99.118-98.576a11.931 11.931 0 0 0 0-17.011c-4.74-4.704-12.439-4.704-17.179 0l-99.033 98.492-99.949-99.96c-4.74-4.752-12.439-4.752-17.179 0-4.74 4.764-4.74 12.475 0 17.227l99.876 99.888L3.555 220.497c-4.74 4.704-4.74 12.319 0 17.011 4.74 4.704 12.439 4.704 17.179 0l100.152-99.599 99.551 99.563c4.74 4.752 12.439 4.752 17.179 0 4.74-4.764 4.74-12.475 0-17.227l-99.478-99.491z"/></symbol><symbol viewBox="0 0 16 16" id="instagram"><defs><path id="ga" d="M0 .033h15.166v15.171H0z"/></defs><g fill-rule="evenodd"><mask id="gb"><use xlink:href="#ga"/></mask><path d="M7.61 1.445l-3.14-.001c-.4 0-.792.05-1.175.17-.652.204-1.157.593-1.494 1.192-.294.52-.398 1.087-.398 1.675-.003 2.091-.003 4.182 0 6.273 0 .416.055.826.193 1.222.236.676.667 1.18 1.315 1.493.509.246 1.05.33 1.609.33h6.12a4.1 4.1 0 0 0 1.04-.123c.53-.138.993-.391 1.368-.795.532-.572.764-1.267.768-2.031.01-2.153.007-4.306.002-6.46a3.184 3.184 0 0 0-.332-1.41A2.577 2.577 0 0 0 11.9 1.61a3.893 3.893 0 0 0-1.217-.168c-1.025.004-2.049.001-3.073.002m7.554 6.173v2.98a5.98 5.98 0 0 1-.093 1.187c-.255 1.295-.933 2.286-2.116 2.904a4.432 4.432 0 0 1-2.033.504c-1.36.013-2.72.006-4.08.006-.891 0-1.783.016-2.674-.01-.929-.027-1.784-.305-2.53-.875A3.997 3.997 0 0 1 .24 12.337a4.718 4.718 0 0 1-.239-1.48c0-2.194-.007-4.39.006-6.585.005-.925.263-1.785.809-2.544C1.295 1.063 1.931.605 2.699.325a5.179 5.179 0 0 1 1.785-.29c2.073-.002 4.147-.002 6.221 0 .771 0 1.515.136 2.205.495.913.475 1.554 1.198 1.934 2.153.236.595.321 1.217.321 1.854v3.081" mask="url(#gb)"/><path d="M11.648 4.466a.884.884 0 1 0 .004-1.768.88.88 0 0 0-.89.883.878.878 0 0 0 .886.885m-4.069 5.628a2.52 2.52 0 0 0 2.51-2.499c.008-1.37-1.132-2.513-2.506-2.515a2.517 2.517 0 0 0-2.507 2.502 2.512 2.512 0 0 0 2.503 2.512m3.912-2.5a3.918 3.918 0 0 1-3.913 3.91 3.906 3.906 0 0 1-3.912-3.917A3.917 3.917 0 0 1 7.59 3.678c2.142.004 3.904 1.772 3.902 3.915"/><path d="M11.648 4.466a.878.878 0 0 1-.886-.885.88.88 0 0 1 .89-.883.884.884 0 1 1-.004 1.768"/></g></symbol><symbol viewBox="0 0 384.97 384.97" id="menu"><path d="M12.03 120.303h360.909c6.641 0 12.03-5.39 12.03-12.03 0-6.641-5.39-12.03-12.03-12.03H12.03c-6.641 0-12.03 5.39-12.03 12.03s5.39 12.03 12.03 12.03zm360.909 60.152H12.03c-6.641 0-12.03 5.39-12.03 12.03s5.39 12.03 12.03 12.03h360.909c6.641 0 12.03-5.39 12.03-12.03s-5.389-12.03-12.03-12.03zm0 84.212H132.333c-6.641 0-12.03 5.39-12.03 12.03 0 6.641 5.39 12.03 12.03 12.03h240.606c6.641 0 12.03-5.39 12.03-12.03.001-6.641-5.389-12.03-12.03-12.03z"/></symbol><symbol viewBox="0 0 28 28" id="plus"><path d="M18.974 12.906h-3.88v-3.88a1.091 1.091 0 1 0-2.182 0v3.88h-3.88a1.09 1.09 0 1 0 0 2.182h3.88v3.88a1.09 1.09 0 1 0 2.182 0v-3.88h3.88a1.091 1.091 0 1 0 0-2.182m3.387 9.45a11.74 11.74 0 0 1-8.358 3.462c-3.158 0-6.126-1.23-8.359-3.463a11.743 11.743 0 0 1-3.462-8.358c0-3.158 1.23-6.126 3.462-8.359a11.785 11.785 0 0 1 8.36-3.457 11.78 11.78 0 0 1 8.357 3.457c4.61 4.609 4.61 12.108 0 16.717zm1.544-18.26c-5.46-5.461-14.344-5.461-19.804 0A13.911 13.911 0 0 0 0 13.995c0 3.741 1.456 7.258 4.101 9.902A13.909 13.909 0 0 0 14.003 28c3.74 0 7.257-1.456 9.902-4.102 5.46-5.46 5.46-14.343 0-19.803z" fill-rule="evenodd"/></symbol><symbol viewBox="0 0 129 176" id="sine-r"><path fill-rule="evenodd" d="M35.898 51.46c0 13.259.02 26.517-.029 39.775-.005 1.461.382 1.957 1.9 1.95 13.474-.056 26.948-.048 40.422-.038 5.076.003 9.993-.95 14.622-2.939 14.091-6.056 22.766-16.56 25.532-31.76 1.501-8.248.589-16.293-3.049-23.794-7.703-15.886-20.46-24.286-38.228-24.515-13.04-.167-26.085-.005-39.127-.071-1.658-.01-2.084.483-2.076 2.103.062 13.096.035 26.193.033 39.29zm-10.087-3.07c0-14.015-.004-28.028.002-42.043.002-4.35 1.977-6.326 6.318-6.327C46.845.009 61.56-.014 76.274.013 86.4.03 95.908 2.419 104.533 7.84c10.049 6.318 17.198 15.034 21.282 26.21 3.436 9.401 4.128 19.026 1.9 28.773-2.365 10.343-7.424 19.198-15.216 26.476-6.733 6.288-14.595 10.496-23.532 12.501-3.913.879-7.997 1.315-12.011 1.368-12.935.167-25.871.06-38.807.066-2.242 0-2.256.015-2.26 2.207-.008 5.605.05 11.211-.039 16.815-.025 1.607.55 1.976 2.054 1.973 21.451-.04 42.903-.02 64.354-.034 2.454-.002 4.48.686 5.526 3.1 1.516 3.504-.949 6.938-5.059 6.963-7.33.048-14.66.024-21.99.024-14.284 0-28.566.016-42.85-.036-1.527-.006-2.041.41-2.033 1.992.061 11.21.038 22.421.032 33.632-.001 2.258-.752 4.154-2.903 5.183-3.513 1.68-7.114-.778-7.152-4.93-.057-6.306-.025-12.612-.026-18.919 0-5.012-.047-10.025.038-15.037.026-1.505-.467-1.938-1.941-1.92-6.09.072-12.18.036-18.271.038-2.154 0-3.928-.78-4.977-2.719-1.895-3.5.54-7.296 4.754-7.343 5.82-.065 11.642-.011 17.463-.024 3.255-.007 2.932.317 2.938-2.96.013-5.39-.035-10.78.03-16.17.017-1.394-.383-1.874-1.83-1.859-6.143.068-12.288.031-18.432.009-2.207-.009-4.033-.827-5.035-2.886-1.656-3.407.774-7.091 4.792-7.153 5.658-.088 11.318-.03 16.977-.033.593 0 1.192-.047 1.778.017 1.36.15 1.751-.451 1.745-1.766-.044-9.054-.025-18.109-.027-27.164V48.389h.006z" opacity=".25"/></symbol><symbol viewBox="0 0 13 12" id="star"><path fill-rule="evenodd" d="M2.335 11.74l.06-.304.15-.717.143-.685.144-.697c.048-.23.103-.46.143-.691.044-.249.14-.49.118-.747a.972.972 0 0 0-.313-.664L.135 4.831a.58.58 0 0 1-.104-.125c-.06-.1-.03-.196.076-.242a.604.604 0 0 1 .17-.046c.35-.04.702-.074 1.053-.113.282-.03.564-.064.846-.095.273-.03.546-.057.82-.088.307-.034.619-.05.922-.11a.939.939 0 0 0 .69-.56c.331-.73.659-1.462.988-2.193.161-.358.321-.715.484-1.072a.492.492 0 0 1 .088-.129c.07-.075.17-.08.235-.001a.969.969 0 0 1 .134.222c.272.599.542 1.199.812 1.799.213.472.419.948.642 1.416.141.295.39.478.714.525.39.057.784.09 1.177.133.357.04.715.083 1.072.122.276.03.552.057.827.088.203.022.407.046.61.076.045.006.09.032.128.059a.131.131 0 0 1 .04.175.607.607 0 0 1-.116.156c-.88.802-1.765 1.6-2.643 2.406-.275.251-.37.572-.297.94.071.356.145.712.218 1.069.065.313.133.626.198.94.057.273.112.546.168.82.047.226.097.451.14.678a.437.437 0 0 1-.005.18c-.023.09-.103.134-.193.108a.8.8 0 0 1-.174-.073c-1.03-.587-2.058-1.178-3.09-1.762a.929.929 0 0 0-.957.001c-1.026.58-2.049 1.169-3.073 1.753a.755.755 0 0 1-.154.07c-.154.046-.25-.03-.246-.219"/></symbol></svg>