<?xml version="1.0" encoding="UTF-8"?>
<svg width="13px" height="10px" viewBox="0 0 13 10" version="1.1" xmlns="http://www.w3.org/2000/svg" xmlns:xlink="http://www.w3.org/1999/xlink">
    <!-- Generator: Sketch 49.1 (51147) - http://www.bohemiancoding.com/sketch -->
    <title>arrow_1</title>
    <desc>Created with Sketch.</desc>
    <defs></defs>
    <g id="Welcome" stroke="none" stroke-width="1" fill="none" fill-rule="evenodd">
        <g id="main_04" transform="translate(-90.000000, -401.000000)" fill="#FFFFFF">
            <g id="header">
                <g id="banner" transform="translate(0.000000, 85.000000)">
                    <g id="text" transform="translate(90.000000, 112.000000)">
                        <path d="M11.5124966,208.429682 L1.83570392,208.429682 L5.41350959,204.918318 C5.62462013,204.710779 5.62783501,204.371788 5.42065377,204.16032 C5.21275811,203.949209 4.87376674,203.946352 4.6626562,204.153176 L0.160393556,208.571852 C0.058231773,208.672227 0.000363909757,208.809038 6.70072482e-06,208.951922 C-0.00070771734,209.094806 0.0557313098,209.232331 0.156821466,209.333421 L4.6665855,213.843185 C4.77124775,213.947847 4.90841602,214 5.04558428,214 C5.18239534,214 5.31956361,213.947847 5.42422586,213.843185 C5.63355035,213.633861 5.63355035,213.294512 5.42422586,213.085545 L1.83999043,209.501309 L11.5124966,209.501309 C11.8082657,209.501309 12.0483102,209.261265 12.0483102,208.965496 C12.0483102,208.66937 11.8082657,208.429682 11.5124966,208.429682" id="arrow_1" transform="translate(6.024155, 209.000000) rotate(-180.000000) translate(-6.024155, -209.000000) "></path>
                    </g>
                </g>
            </g>
        </g>
    </g>
</svg>