<?xml version="1.0" encoding="UTF-8"?>
<svg width="9px" height="7px" viewBox="0 0 9 7" version="1.1" xmlns="http://www.w3.org/2000/svg" xmlns:xlink="http://www.w3.org/1999/xlink">
    <!-- Generator: Sketch 49.1 (51147) - http://www.bohemiancoding.com/sketch -->
    <title>arrow-black</title>
    <desc>Created with Sketch.</desc>
    <defs></defs>
    <g id="Welcome" stroke="none" stroke-width="1" fill="none" fill-rule="evenodd">
        <g id="main_04" transform="translate(-520.000000, -2336.000000)" fill="#BC9E52">
            <g id="Features" transform="translate(90.000000, 2175.000000)">
                <g id="2" transform="translate(430.000000, 0.000000)">
                    <path d="M8.05874762,164.100778 L1.28499274,164.100778 L3.78945671,161.642822 C3.93723409,161.497545 3.9394845,161.260251 3.79445764,161.112224 C3.64893068,160.964447 3.41163672,160.962446 3.26385934,161.107223 L0.112275489,164.200296 C0.0407622411,164.270559 0.00025473683,164.366327 4.69050737e-06,164.466345 C-0.000495402138,164.566364 0.0390119168,164.662632 0.109775026,164.733395 L3.26660985,167.89023 C3.33987342,167.963493 3.43589121,168 3.531909,168 C3.62767674,168 3.72369453,167.963493 3.7969581,167.89023 C3.94348525,167.743703 3.94348525,167.506159 3.7969581,167.359881 L1.2879933,164.850917 L8.05874762,164.850917 C8.26578598,164.850917 8.43381711,164.682885 8.43381711,164.475847 C8.43381711,164.268559 8.26578598,164.100778 8.05874762,164.100778" id="arrow-black" transform="translate(4.216909, 164.500000) rotate(-180.000000) translate(-4.216909, -164.500000) "></path>
                </g>
            </g>
        </g>
    </g>
</svg>