<svg xmlns="http://www.w3.org/2000/svg" xmlns:xlink="http://www.w3.org/1999/xlink" width="47" height="50" viewBox="0 0 47 50">
    <defs>
        <path id="a" d="M0 .039h32.306v49.855H0z"/>
    </defs>
    <g fill="none" fill-rule="evenodd">
        <g transform="translate(0 .067)">
            <mask id="b" fill="#fff">
                <use xlink:href="#a"/>
            </mask>
            <path fill="#BC9E52" d="M23.14 4.371c-.176.293-.308.55-.475.783-.38.53-.77 1.053-1.17 1.567a.664.664 0 0 1-.34.229c-.607.143-1.12.438-1.605.827a1529.206 1529.206 0 0 1-9.838 7.868c-.403.319-.495.721-.605 1.15-.271 1.059-.54 2.117-.808 3.175-.297 1.17-.593 2.34-.891 3.509-.305 1.194-.614 2.388-.918 3.582-.3 1.178-.594 2.357-.893 3.535-.298 1.17-.6 2.337-.899 3.506-.298 1.17-.592 2.339-.89 3.508l-.911 3.557c-.05.196-.09.396-.152.588-.07.22.01.324.225.376.599.145 1.195.3 1.793.452.896.227 1.793.452 2.69.68.904.23 1.808.463 2.713.694 1.04.265 2.082.53 3.123.793l3.611.916c1.024.262 2.046.53 3.07.791.93.237 1.863.464 2.792.707.187.05.267-.02.308-.18.222-.87.441-1.74.662-2.611l.794-3.124.797-3.122.787-3.098.911-3.585.89-3.48c.267-1.041.535-2.082.8-3.123.263-1.032.479-2.08.803-3.093.18-.56-.017-.997-.198-1.464a3968.988 3968.988 0 0 0-3.366-8.612c-.131-.336-.28-.666-.414-1-.07-.174-.153-.187-.293-.065-.38.33-.772.643-1.145.98a.497.497 0 0 0-.151.335 2.547 2.547 0 0 1-1.965 2.535c-1.462.34-2.741-.507-3.113-1.825-.396-1.406.48-2.788 1.726-3.138.324-.091.677-.073 1.016-.117.14-.019.305-.03.412-.108 1.925-1.412 3.33-3.243 4.243-5.437.353-.849.577-1.753.835-2.639.224-.768.99-1.281 1.737-1.127.867.18 1.403.89 1.264 1.729-.334 2.02-1.135 3.861-2.2 5.596-.129.21-.288.404-.398.623-.056.11-.08.277-.038.386 1.294 3.257 2.6 6.51 3.898 9.764.258.646.485 1.304.745 1.95.273.68.236 1.355.051 2.046-.282 1.055-.545 2.115-.816 3.173l-.799 3.122-.784 3.072c-.304 1.195-.61 2.389-.913 3.584-.3 1.186-.596 2.374-.898 3.56-.3 1.177-.609 2.353-.91 3.53-.299 1.17-.586 2.341-.89 3.509-.227.868-.4 1.76-.727 2.59-.486 1.239-1.83 1.833-3.116 1.505-2.014-.514-4.031-1.014-6.045-1.526-1.732-.441-3.462-.895-5.194-1.337-1.86-.474-3.722-.94-5.582-1.414-1.212-.309-2.427-.61-3.631-.945-1.29-.359-2.112-1.84-1.782-3.138.514-2.023 1.02-4.048 1.537-6.07.513-2.014 1.039-4.025 1.552-6.039.442-1.732.87-3.468 1.31-5.2.442-1.732.892-3.462 1.337-5.194.32-1.244.634-2.491.96-3.735.146-.557.48-.993.927-1.35 2.808-2.25 5.616-4.503 8.424-6.755.688-.552 1.365-1.118 2.067-1.652 1.334-1.015 2.845-1.398 4.506-1.197.129.016.253.066.448.118" mask="url(#b)"/>
        </g>
        <path fill="#BC9E52" d="M31.232 7.476c-.303.78-.591 1.507-.863 2.24-.024.065.036.197.098.252.324.286.67.547.99.836 2.451 2.21 4.895 4.426 7.348 6.632.233.21.339.45.398.744.186.915.388 1.827.585 2.74.191.887.386 1.773.576 2.66.19.887.375 1.775.566 2.662.197.912.401 1.823.598 2.736.23 1.059.452 2.119.681 3.178.229 1.059.464 2.116.692 3.175.228 1.06.448 2.12.676 3.179.225 1.042.455 2.082.683 3.123.031.144-.003.237-.165.27-.69.144-1.379.291-2.067.44-.896.193-1.79.39-2.686.585a2045.542 2045.542 0 0 1-5.399 1.163l-2.713.58-2.119.454c-.163.035-.273.104-.324.292-.148.535-.327 1.06-.489 1.59-.08.262-.151.527-.237.828.141-.012.22-.011.295-.027.5-.105 1-.21 1.5-.32 1.385-.303 2.768-.613 4.155-.912 1.877-.404 3.756-.798 5.633-1.202 1.757-.379 3.512-.764 5.268-1.148.909-.198 1.736-1.103 1.793-2.03.026-.424-.029-.861-.107-1.28-.17-.91-.379-1.811-.574-2.715-.228-1.06-.461-2.117-.69-3.176-.227-1.06-.45-2.12-.678-3.179-.23-1.068-.466-2.134-.697-3.201-.2-.921-.393-1.843-.592-2.764-.19-.878-.384-1.756-.573-2.634-.195-.913-.386-1.826-.581-2.74-.198-.92-.423-1.837-.59-2.764-.155-.858-.497-1.579-1.183-2.145-.564-.466-1.077-.993-1.624-1.48-2.34-2.079-4.685-4.155-7.031-6.228-.17-.15-.363-.273-.553-.414m-8.091-3.038c-.195-.052-.32-.102-.448-.117-1.66-.202-3.172.181-4.506 1.196-.702.534-1.379 1.1-2.067 1.653l-8.424 6.754c-.447.358-.78.794-.927 1.35-.326 1.244-.64 2.49-.96 3.736-.445 1.731-.895 3.46-1.336 5.193-.441 1.733-.87 3.468-1.31 5.2-.514 2.014-1.04 4.025-1.553 6.039-.516 2.022-1.023 4.047-1.537 6.07-.33 1.3.493 2.78 1.782 3.138 1.204.336 2.419.636 3.63.945 1.86.475 3.723.94 5.584 1.415 1.731.441 3.46.895 5.193 1.336 2.014.512 4.031 1.012 6.045 1.526 1.285.328 2.63-.266 3.116-1.504.327-.831.5-1.723.726-2.591.305-1.168.592-2.34.891-3.509.301-1.177.61-2.352.91-3.53.302-1.186.597-2.374.898-3.56.303-1.195.609-2.389.913-3.584l.784-3.071.799-3.123c.27-1.057.533-2.118.816-3.172.185-.692.222-1.368-.051-2.047-.26-.646-.487-1.304-.745-1.95-1.299-3.255-2.604-6.507-3.898-9.764-.043-.109-.018-.276.037-.386.111-.218.27-.412.4-.622 1.064-1.736 1.865-3.576 2.2-5.597.138-.838-.398-1.55-1.265-1.729-.747-.154-1.513.36-1.737 1.127-.258.887-.482 1.79-.835 2.64-.912 2.193-2.318 4.024-4.243 5.436-.107.079-.272.09-.412.108-.339.044-.692.026-1.016.117-1.245.35-2.123 1.732-1.726 3.138.372 1.319 1.651 2.165 3.112 1.825a2.547 2.547 0 0 0 1.966-2.535.497.497 0 0 1 .151-.334c.372-.337.766-.651 1.145-.98.14-.122.223-.11.293.064.134.335.283.664.414 1 1.124 2.87 2.248 5.74 3.366 8.612.181.467.378.905.198 1.465-.324 1.012-.54 2.06-.803 3.092-.265 1.041-.533 2.082-.8 3.122l-.89 3.481-.91 3.585-.788 3.098-.797 3.122-.794 3.124c-.22.87-.44 1.742-.662 2.612-.041.16-.12.229-.308.18-.929-.244-1.861-.47-2.791-.708-1.025-.26-2.047-.529-3.07-.79-1.204-.307-2.408-.61-3.612-.916l-3.124-.794c-.904-.23-1.808-.464-2.713-.694-.896-.228-1.793-.453-2.689-.68-.598-.151-1.194-.307-1.793-.452-.214-.052-.295-.155-.225-.375.061-.193.102-.392.152-.589.304-1.185.608-2.37.91-3.557.299-1.169.593-2.339.891-3.507.298-1.17.601-2.337.899-3.507.3-1.177.593-2.357.893-3.534.304-1.195.613-2.388.918-3.583.298-1.169.594-2.339.89-3.508.27-1.059.538-2.117.809-3.175.11-.43.202-.832.605-1.15 3.293-2.606 6.567-5.236 9.838-7.869.484-.389.999-.683 1.604-.827a.664.664 0 0 0 .34-.228c.401-.515.792-1.037 1.171-1.567.167-.233.3-.49.476-.784"/>
    </g>
</svg>
