<svg xmlns="http://www.w3.org/2000/svg" xmlns:xlink="http://www.w3.org/1999/xlink" width="57" height="50" viewBox="0 0 57 50">
    <defs>
        <path id="a" d="M.005.027H35.53v48.898H.005z"/>
        <path id="c" d="M0 .06h17.42v27.148H0z"/>
    </defs>
    <g fill="none" fill-rule="evenodd">
        <g transform="translate(21.227 .155)">
            <mask id="b" fill="#fff">
                <use xlink:href="#a"/>
            </mask>
            <path fill="#BC9E52" d="M2.917 34.267c0 3.213.003 6.425-.005 9.638 0 .299.04.532.352.65 2.043.768 4.108 1.434 6.322 1.445 2.403.013 4.806.043 7.21.029 2.433-.014 4.867-.048 7.3-.12 1.852-.055 2.517-1.62 2.16-3.152-.314-1.34-.109-1.841 1.159-2.284 1.832-.64 2.318-2.728.957-4.128-.413-.425-.67-.888-.505-1.508.177-.668.65-.979 1.279-1.139.274-.07.553-.168.795-.311 1.247-.738 1.475-2.672.455-3.76-1.107-1.183-.881-2.23.633-2.79.878-.325 1.407-.906 1.557-1.829.175-1.078-.174-2.472-1.486-2.873-.383-.117-.804-.142-1.208-.144-2.176-.014-4.353-.006-6.53-.007-2.116 0-4.232-.003-6.349-.003-.648 0-1.253-.173-1.481-.82-.141-.401-.148-.908-.046-1.326.263-1.085.613-2.15.941-3.219.695-2.266 1.611-4.467 1.974-6.83.283-1.85.45-3.698.098-5.559-.2-1.056-.804-1.59-1.786-1.405-.701.132-1.377.421-2.046.687-.154.061-.293.3-.335.482-.251 1.105-.468 2.22-.704 3.328-.587 2.754-1.56 5.345-3.31 7.58a989.682 989.682 0 0 1-6.973 8.772c-.291.363-.44.712-.438 1.185.018 3.137.01 6.274.01 9.411m-2.906.24c0-3.562.007-7.123-.006-10.685-.002-.576.234-1.006.594-1.421 2.546-2.94 5.015-5.939 7.318-9.077 1.415-1.93 2.284-4.07 2.808-6.382.335-1.474.685-2.946 1.074-4.406.082-.31.308-.652.569-.831C14.026.56 15.845-.102 17.894.048c1.425.104 2.498 1.069 2.975 2.604.693 2.233.642 4.51.449 6.8-.24 2.838-1.28 5.463-2.17 8.129-.114.344-.214.695-.359 1.026-.16.369-.014.46.326.46 1.452-.003 2.903.003 4.354.003 2.056 0 4.114.055 6.168-.018 2.935-.104 5.043 2.006 5.67 4.046.521 1.69.09 3.197-.912 4.578-.238.329-.568.59-.81.915-.105.14-.185.408-.122.549 1.102 2.463.11 4.823-1.566 6.264-.339.29-.374.526-.217.932.821 2.119.03 4.621-1.928 6.087-.378.282-.543.555-.524 1.039.099 2.48-2.375 5.37-5.385 5.389-4.655.028-9.311.052-13.967.074-3.165.015-6.087-.976-8.949-2.2-.649-.277-.92-.827-.92-1.534.007-3.561.004-7.123.004-10.684" mask="url(#b)"/>
        </g>
        <g transform="translate(0 21.798)">
            <mask id="d" fill="#fff">
                <use xlink:href="#c"/>
            </mask>
            <path fill="#BC9E52" d="M14.5 13.683c0-3.38-.006-6.76.008-10.139.002-.425-.112-.58-.56-.579-3.506.016-7.013.016-10.52 0-.431-.003-.532.142-.531.546.01 6.759.012 13.518 0 20.277 0 .406.128.514.519.512 3.507-.012 7.014-.013 10.521 0 .426 0 .574-.123.572-.57-.017-3.35-.01-6.698-.01-10.047M.002 13.648L0 1.74C0 .65.586.063 1.682.062L15.602.06c1.219 0 1.819.593 1.818 1.801-.006 7.863-.008 15.727-.027 23.59-.001.364-.083.763-.249 1.082-.278.535-.81.674-1.39.673-1.814-.005-3.628.003-5.441.002-2.872 0-5.743 0-8.615-.005-.877-.002-1.383-.301-1.611-.977-.075-.222-.082-.475-.083-.714C0 21.557.001 17.602.001 13.648" mask="url(#d)"/>
        </g>
    </g>
</svg>
