<svg xmlns="http://www.w3.org/2000/svg" xmlns:xlink="http://www.w3.org/1999/xlink" width="39" height="30" viewBox="0 0 39 30">
    <defs>
        <path id="a" d="M0 0h38.122v29.99H0z"/>
    </defs>
    <g fill="none" fill-rule="evenodd">
        <mask id="b" fill="#fff">
            <use xlink:href="#a"/>
        </mask>
        <path fill="#BC9E52" d="M3.612 13.443c1.038.981 2.05 1.893 3.012 2.857 1.848 1.854 3.667 3.737 5.499 5.608.373.382.375.382.745.006A88722.17 88722.17 0 0 0 33.972.457c.13-.132.231-.29.361-.457.18.156.283.236.374.328 1.079 1.094 2.15 2.195 3.237 3.28.25.25.229.405-.013.65a28150.035 28150.035 0 0 0-25.127 25.54c-.243.248-.392.262-.642.006C8.182 25.72 4.193 21.64.198 17.568c-.253-.258-.273-.419-.007-.682 1.07-1.064 2.12-2.148 3.18-3.223.101-.102.213-.195.241-.22" mask="url(#b)"/>
    </g>
</svg>
