<svg xmlns="http://www.w3.org/2000/svg" xmlns:xlink="http://www.w3.org/1999/xlink" width="91" height="33" viewBox="0 0 91 33">
    <defs>
        <path id="a" d="M.29.59h90.405v31.505H.29z"/>
    </defs>
    <g fill="none" fill-rule="evenodd">
        <g transform="translate(-.297 .031)">
            <mask id="b" fill="#fff">
                <use xlink:href="#a"/>
            </mask>
            <path fill="#BC9E52" d="M3.24.59h87.455V32.095H3.091l-2.8-7.645 2.95-8.107L.29 8.697z" mask="url(#b)"/>
        </g>
        <path fill="#FFF" d="M62.837 20.116c.096-.258.148-.427.229-.7h.015c.051.185.132.457.228.7l.862 2.24h-2.203l.87-2.24zm2.21 4.605h.487l-2.225-5.739h-.45l-2.247 5.74h.48l.766-2.005h2.43l.76 2.004zm-10.087-.073v-2.675h.251c1.304.008 1.85.442 2.247 1.304.213.457.405.987.663 1.371h.493c-.28-.465-.456-.921-.714-1.482-.39-.795-.87-1.399-2.129-1.502l2.696-2.608h-.56l-2.586 2.57h-.36v-2.57h-.443v5.592h.442zm-3.19-5.666h-.435l-2.137 3.338c-.45.707-.73 1.2-1.04 1.738l-.014-.015a43.2 43.2 0 0 0 .044-2.29v-2.771h-.427v5.74h.42l2.092-3.272c.413-.648.766-1.245 1.076-1.82l.03.015c-.038.656-.038 1.304-.038 2.255v2.821h.428v-5.739zm-10.744 5.74h.457v-2.837h3.256v2.836h.457v-5.739h-.457v2.505h-3.256v-2.505h-.457v5.74zm-2.566-5.74h-.434l-2.137 3.338c-.449.707-.73 1.2-1.039 1.738l-.014-.015c.037-.736.044-1.385.044-2.29v-2.771h-.428v5.74h.42l2.093-3.272c.412-.648.766-1.245 1.076-1.82l.029.015c-.037.656-.037 1.304-.037 2.255v2.821h.427v-5.739zm-11.25 5.754c.198-.03.448-.177.61-.295.715-.507.744-2.002.744-3.12V19.44h2.984v5.21h.45v-5.593h-3.875v2.324c0 .95-.015 2.223-.538 2.693-.11.11-.339.25-.508.287l.132.376zm-5.52-.088v-2.675h.25c1.304.008 1.85.442 2.247 1.304.214.457.405.987.663 1.371h.494c-.28-.465-.457-.921-.715-1.482-.39-.795-.87-1.399-2.129-1.502l2.697-2.608h-.56l-2.587 2.57h-.36v-2.57h-.442v5.592h.441zm48.104-13.43c-1.075 0-1.636-.486-1.636-1.171 0-.833.67-1.223 1.865-1.223.603 0 .964.036 1.215.08v2.314h-1.444zm-.73.229c-.552.125-.906.567-1.039 1.03-.243.922-.383 1.4-.56 1.695h.501c.104-.154.221-.574.45-1.458.177-.693.53-1.061 1.385-1.142h1.437v2.6h.457V8.581a12.625 12.625 0 0 0-1.68-.125c-.92 0-1.467.154-1.901.53-.25.206-.42.574-.42 1.002 0 .714.479 1.326 1.37 1.43v.029zm-6.227-1.88c.096-.257.148-.426.229-.7h.015c.051.185.132.458.228.7l.862 2.24h-2.203l.87-2.24zm2.21 4.605h.487L63.31 8.433h-.45l-2.247 5.74h.48l.766-2.005h2.43l.76 2.005zm-10.713 0h.457v-2.836h3.257v2.836h.456V8.433h-.456v2.505H54.79V8.433h-.457v5.74zm-6.006-5.267c.192-.045.605-.081 1.142-.081.907 0 1.924.287 1.924 1.326 0 .788-.671 1.356-1.975 1.356-.39 0-.774-.008-1.091-.096V8.905zm0 5.268v-2.365c.317.06.663.066 1.017.066.832 0 1.547-.177 1.975-.53.353-.303.53-.744.53-1.26 0-.649-.346-1.628-2.402-1.628-.596 0-1.157.044-1.57.095v5.621h.45zm-6.662-3.228V8.89h3.323v-.383h-3.772v5.592h3.935v-.383h-3.486v-2.387h3.162v-.384h-3.162zm-6.152.406h.28c1.164 0 2.357.265 2.357 1.238 0 .692-.685 1.223-1.952 1.223a4.33 4.33 0 0 1-1.628-.332l-.148.354c.516.243 1.127.353 1.746.353 1.327 0 2.461-.5 2.461-1.598 0-.877-.685-1.356-1.834-1.444v-.015c.92-.147 1.54-.649 1.54-1.378 0-.87-.782-1.334-1.938-1.334-.642 0-1.223.148-1.725.406l.133.339c.413-.192.965-.369 1.533-.369.906 0 1.525.332 1.525 1.017 0 .693-.87 1.186-2.07 1.186h-.28v.354zm-5.948-1.783c.096-.258.148-.427.229-.7h.015c.052.184.132.457.228.7l.862 2.24h-2.202l.868-2.24zm2.211 4.604h.486l-2.225-5.739h-.45l-2.247 5.74h.48l.766-2.005h2.432l.758 2.005zm-11.222.015c.199-.029.45-.177.611-.294.715-.507.744-2.002.744-3.12V8.89h2.984V14.1h.45V8.507h-3.875v2.324c0 .95-.015 2.223-.538 2.694-.111.11-.34.25-.508.287l.132.375z"/>
    </g>
</svg>
