<svg xmlns="http://www.w3.org/2000/svg" xmlns:xlink="http://www.w3.org/1999/xlink" width="93" height="50" viewBox="0 0 93 50">
    <defs>
        <path id="a" d="M0 .428h92.343v48.896H0z"/>
    </defs>
    <g fill="none" fill-rule="evenodd" transform="translate(0 .248)">
        <mask id="b" fill="#fff">
            <use xlink:href="#a"/>
        </mask>
        <path fill="#FFF" d="M56.01 1.093v46.885h6.167l-.676 1.34h-6.83V1.094h1.34zm21.995 48.22h1.34V1.093h-1.34v48.22zm14.298-48.22l-8.734 24.034 8.774 24.197H90.92l-8.692-23.97-.082-.227.082-.228 8.652-23.806h1.422zM1.393 47.899c5.106-.772 8.792-3.874 9.681-9.174C13.405 24.829-2.201 25.495.265 10.796c1.026-6.114 5.46-9.7 11.496-10.368l-.53 1.42c-5.088.78-8.76 3.88-9.647 9.168-2.307 13.75 13.247 13.4 10.809 27.929-1.026 6.114-5.46 9.7-11.496 10.368l.497-1.414zm29.25 1.425h1.34V1.093h-1.34v48.23z" mask="url(#b)"/>
    </g>
</svg>
