<svg xmlns="http://www.w3.org/2000/svg" width="20" height="20" viewBox="0 0 20 20">
    <path fill="#FC0505" fill-rule="evenodd" d="M13.06 6.939a.779.779 0 0 0-1.101 0L10 8.898l-1.959-1.96a.779.779 0 1 0-1.102 1.103L8.9 9.999l-1.96 1.96a.779.779 0 1 0 1.102 1.102L10 11.1l1.959 1.96a.777.777 0 0 0 1.102 0 .779.779 0 0 0 0-1.102l-1.96-1.96 1.96-1.958a.779.779 0 0 0 0-1.102M10 18.442c-4.655 0-8.442-3.787-8.442-8.442S5.345 1.558 10 1.558 18.442 5.345 18.442 10 14.655 18.442 10 18.442zM10 0C4.486 0 0 4.486 0 10s4.486 10 10 10 10-4.486 10-10S15.514 0 10 0z"/>
</svg>
