<svg xmlns="http://www.w3.org/2000/svg" width="39" height="44" viewBox="0 0 39 44">
    <path fill="#FFF" fill-rule="evenodd" d="M.002 22.018C.002 27.61.004 33.2 0 38.791c0 .911.072 1.807.358 2.678.54 1.65 1.901 2.629 3.56 2.523.875-.056 1.693-.343 2.45-.787 2.688-1.575 5.37-3.158 8.05-4.744 6.944-4.105 13.885-8.214 20.829-12.319.883-.522 1.72-1.094 2.344-1.943.931-1.267 1.005-2.702.196-4.045-.537-.89-1.314-1.514-2.184-2.029L22.486 10.36C17.186 7.222 11.884 4.087 6.582.95A6.848 6.848 0 0 0 4.306.092C2.84-.175 1.427.492.694 1.821.191 2.73.01 3.73.008 4.757-.003 10.51.003 16.265.002 22.018"/>
</svg>
